<?xml version="1.0" encoding="utf-8"?>
<!-- Generator: Adobe Illustrator 27.5.0, SVG Export Plug-In . SVG Version: 6.00 Build 0)  -->
<svg version="1.1" xmlns="http://www.w3.org/2000/svg" xmlns:xlink="http://www.w3.org/1999/xlink" x="0px" y="0px"
	 viewBox="0 0 750 500" style="enable-background:new 0 0 750 500;" xml:space="preserve">
<g id="BACKGROUND">
	<g>
		<rect style="fill:#FFFFFF;" width="750" height="500"/>
	</g>
</g>
<g id="OBJECTS">
	<g>
		<g>
			
				<linearGradient id="SVGID_1_" gradientUnits="userSpaceOnUse" x1="373.4316" y1="-15941.2158" x2="373.4316" y2="-16393.0176" gradientTransform="matrix(1 0 0 -1 0 -15882)">
				<stop  offset="0" style="stop-color:#FFFFFF"/>
				<stop  offset="1" style="stop-color:#D3E0F3"/>
			</linearGradient>
			<path style="fill:url(#SVGID_1_);" d="M124.615,436.476c0.352-25.424-42.964-67.697-51.136-140.806
				c-6.777-60.622,34.905-114.02,74.865-133.621c37.283-18.287,55.734-11.644,80.661-26.725
				c34.866-21.094,39.108-69.688,90.399-86.658c24.382-8.067,50.243-1.478,73.233,10.651c22.99,12.128,44.562,28.411,68.769,36.616
				c24.38,8.264,50.196,6.236,75.481,3.876c85.33-7.966,140.266,66.035,137.097,126.604c-1.885,36.032-13.538,60.44-29.933,81.896
				c-9.216,12.062-22.862,25.323-18.36,40.664c2.049,6.983,7.473,11.639,11.956,16.804c15.126,17.428,20.521,47.041,13.852,70.7
				H124.615z"/>
		</g>
		<g>
			<defs>
				<path id="SVGID_00000098210234938172677710000000787660665888609940_" d="M124.615,436.476
					c0.352-25.424-42.964-67.697-51.136-140.806c-6.777-60.622,34.905-114.02,74.865-133.621
					c37.283-18.287,55.734-11.644,80.661-26.725c34.866-21.094,39.108-69.688,90.399-86.658
					c24.382-8.067,50.243-1.478,73.233,10.651c22.99,12.128,44.562,28.411,68.769,36.616c24.38,8.264,50.196,6.236,75.481,3.876
					c85.33-7.966,140.266,66.035,137.097,126.604c-1.885,36.032-13.538,60.44-29.933,81.896
					c-9.216,12.062-22.862,25.323-18.36,40.664c2.049,6.983,7.473,11.639,11.956,16.804c15.126,17.428,20.521,47.041,13.852,70.7
					H124.615z"/>
			</defs>
			<clipPath id="SVGID_00000058591694295647555250000013053747244833588636_">
				<use xlink:href="#SVGID_00000098210234938172677710000000787660665888609940_"  style="overflow:visible;"/>
			</clipPath>
			<g style="clip-path:url(#SVGID_00000058591694295647555250000013053747244833588636_);">
				
					<linearGradient id="SVGID_00000039101058696177212690000006466841566009939892_" gradientUnits="userSpaceOnUse" x1="553.5275" y1="-16091.2178" x2="802.2902" y2="-16031.3174" gradientTransform="matrix(1 0 0 -1 0 -15882)">
					<stop  offset="0" style="stop-color:#FFFFFF"/>
					<stop  offset="1" style="stop-color:#D3E0F3"/>
				</linearGradient>
				<path style="fill:url(#SVGID_00000039101058696177212690000006466841566009939892_);" d="M690.887,196.067H556.018
					c0,0,2.81-13.866,17.248-15.275c14.438-1.409,20.249,5.811,25.003,4.05c12.339-4.57,14.967-18.999,33.034-20.951
					c11.993-1.296,17.325,14.41,27.185,16.712c9.86,2.302,11.974-5.178,20.425-2.671c8.452,2.507,14.086,12.368,19.017,13.072
					c4.93,0.704,12.51-1.198,16.904,0.352c5.282,1.864,4.93,4.71,4.93,4.71H690.887z"/>
				
					<linearGradient id="SVGID_00000029024325650880304080000011086631489389728929_" gradientUnits="userSpaceOnUse" x1="330.6701" y1="-16192.373" x2="579.4325" y2="-16132.4727" gradientTransform="matrix(1 0 0 -1 0 -15882)">
					<stop  offset="0" style="stop-color:#FFFFFF"/>
					<stop  offset="1" style="stop-color:#D3E0F3"/>
				</linearGradient>
				<path style="fill:url(#SVGID_00000029024325650880304080000011086631489389728929_);" d="M468.029,297.223H333.16
					c0,0,2.81-13.866,17.248-15.275c14.439-1.409,20.249,5.811,25.003,4.05c12.339-4.57,14.967-18.999,33.034-20.951
					c11.993-1.296,17.325,14.41,27.185,16.712c9.861,2.302,11.974-5.178,20.425-2.671c8.452,2.508,14.086,12.368,19.017,13.072
					c4.93,0.704,12.51-1.198,16.904,0.352c5.282,1.864,4.93,4.71,4.93,4.71H468.029z"/>
				
					<linearGradient id="SVGID_00000000927756212427797880000013556580126291820200_" gradientUnits="userSpaceOnUse" x1="328.7996" y1="-15990.5156" x2="577.5621" y2="-15930.6152" gradientTransform="matrix(1 0 0 -1 0 -15882)">
					<stop  offset="0" style="stop-color:#FFFFFF"/>
					<stop  offset="1" style="stop-color:#D3E0F3"/>
				</linearGradient>
				<path style="fill:url(#SVGID_00000000927756212427797880000013556580126291820200_);" d="M466.159,95.365H331.29
					c0,0,2.81-13.866,17.248-15.275c14.439-1.409,20.249,5.811,25.003,4.05c12.339-4.57,14.967-18.999,33.034-20.951
					c11.993-1.296,17.325,14.41,27.185,16.712c9.86,2.302,11.973-5.178,20.425-2.671c8.452,2.507,14.086,12.368,19.017,13.072
					c4.93,0.704,12.511-1.198,16.904,0.352c5.282,1.864,4.93,4.71,4.93,4.71H466.159z"/>
				
					<linearGradient id="SVGID_00000140711720761603587610000002809790080141021338_" gradientUnits="userSpaceOnUse" x1="186.787" y1="-16071.1396" x2="435.5496" y2="-16011.2393" gradientTransform="matrix(1 0 0 -1 0 -15882)">
					<stop  offset="0" style="stop-color:#FFFFFF"/>
					<stop  offset="1" style="stop-color:#D3E0F3"/>
				</linearGradient>
				<path style="fill:url(#SVGID_00000140711720761603587610000002809790080141021338_);" d="M324.146,175.989H189.277
					c0,0,2.81-13.866,17.248-15.275c14.438-1.409,20.249,5.811,25.003,4.05c12.339-4.57,14.967-18.999,33.034-20.951
					c11.993-1.296,17.325,14.41,27.185,16.712c9.86,2.302,11.973-5.178,20.425-2.671c8.452,2.507,14.086,12.368,19.017,13.072
					c4.93,0.704,12.511-1.198,16.904,0.352c5.282,1.864,4.93,4.71,4.93,4.71H324.146z"/>
			</g>
			<g style="clip-path:url(#SVGID_00000058591694295647555250000013053747244833588636_);">
				
					<linearGradient id="SVGID_00000042698019500897430330000010907701901738187193_" gradientUnits="userSpaceOnUse" x1="249.4454" y1="-16323.2832" x2="249.4454" y2="-16139.8398" gradientTransform="matrix(1 0 0 -1 0 -15882)">
					<stop  offset="0" style="stop-color:#D6DBE5"/>
					<stop  offset="1" style="stop-color:#D3E0F3"/>
				</linearGradient>
				<path style="opacity:0.5;fill:url(#SVGID_00000042698019500897430330000010907701901738187193_);" d="M236.012,273.738
					c59.666-17.813,216.444,158.739,216.444,158.739H46.435C46.435,432.477,171.1,293.118,236.012,273.738z"/>
				
					<linearGradient id="SVGID_00000149347054801287685260000016536617583610285753_" gradientUnits="userSpaceOnUse" x1="514.7932" y1="-16307.0215" x2="514.7932" y2="-16129.5303" gradientTransform="matrix(1 0 0 -1 0 -15882)">
					<stop  offset="0" style="stop-color:#D6DBE5"/>
					<stop  offset="1" style="stop-color:#C7D6E9"/>
				</linearGradient>
				<path style="fill:url(#SVGID_00000149347054801287685260000016536617583610285753_);" d="M498.624,241.414
					c71.816-21.441,260.518,191.063,260.518,191.063H270.444C270.444,432.477,420.494,264.74,498.624,241.414z"/>
			</g>
			<g style="clip-path:url(#SVGID_00000058591694295647555250000013053747244833588636_);">
				
					<linearGradient id="SVGID_00000028320582642736301090000008319217740274960315_" gradientUnits="userSpaceOnUse" x1="326.7111" y1="-15996.0693" x2="216.6987" y2="-16043.4082" gradientTransform="matrix(1 0 0 -1 0 -15882)">
					<stop  offset="0" style="stop-color:#A05735"/>
					<stop  offset="1" style="stop-color:#763E35"/>
				</linearGradient>
				<path style="fill:url(#SVGID_00000028320582642736301090000008319217740274960315_);" d="M219.962,146.016
					c0,0,23.11-3.786,40.08-3.125c0,0,1.056,1.012,0.167,2.386c0,0-13.439,1.18-20.174,3.821c0,0,19.017-0.528,29.449,1.761
					c0,0,0.242,1.276-0.264,1.937c-18.554-0.264-31.43-1.387-55.861,9.277"/>
				
					<linearGradient id="SVGID_00000067216454238835562860000009265632926444476319_" gradientUnits="userSpaceOnUse" x1="286.3883" y1="-16044.9443" x2="145.7086" y2="-16105.4785" gradientTransform="matrix(1 0 0 -1 0 -15882)">
					<stop  offset="0" style="stop-color:#D1E43C"/>
					<stop  offset="1" style="stop-color:#6F901F"/>
				</linearGradient>
				<path style="fill:url(#SVGID_00000067216454238835562860000009265632926444476319_);" d="M142.223,226.153
					c0,0,25.419,17.072,50.931,7.859c28.525-10.301,23.022-47.693-14.659-55.661"/>
				
					<linearGradient id="SVGID_00000155117343028685206700000001290681096533361302_" gradientUnits="userSpaceOnUse" x1="190.5507" y1="-16155.374" x2="193.3188" y2="-15907.6074" gradientTransform="matrix(1 0 0 -1 0 -15882)">
					<stop  offset="0" style="stop-color:#D1E43C"/>
					<stop  offset="1" style="stop-color:#94B029"/>
				</linearGradient>
				<path style="fill:url(#SVGID_00000155117343028685206700000001290681096533361302_);" d="M109.452,268.249
					c0,0,34.371-11.805,48.97-27.452c25.756-27.605,15.055-41.516,15.055-41.516s42.647,8.2,58.158-12.715
					c14.827-19.991-3.795-35.013-3.795-35.013s43.229-11.582,53.133-39.004c17.326-47.97-28.542-77.199-55.6-82.481
					S100.316,96.802,100.316,96.802L109.452,268.249z"/>
				
					<linearGradient id="SVGID_00000176724182558093698750000016516248990846565818_" gradientUnits="userSpaceOnUse" x1="128.0565" y1="-16284.002" x2="131.0934" y2="-16012.1777" gradientTransform="matrix(1 0 0 -1 0 -15882)">
					<stop  offset="0" style="stop-color:#A05735"/>
					<stop  offset="1" style="stop-color:#763E35"/>
				</linearGradient>
				<path style="fill:url(#SVGID_00000176724182558093698750000016516248990846565818_);" d="M104.189,396.666
					c0,0-5.106-111.713,12.326-155.87c17.432-44.157,80.292-97.768,80.292-97.768s1.385-4.475-2.313-7.908
					c0,0-62.837,59.723-67.767,59.723c-4.93,0,8.1-41.692,8.1-41.692h-70.08v243.514H104.189z"/>
				<g>
					
						<linearGradient id="SVGID_00000018223488393082326780000004422121182472931483_" gradientUnits="userSpaceOnUse" x1="168.1735" y1="-16134.0811" x2="112.1746" y2="-16158.1777" gradientTransform="matrix(1 0 0 -1 0 -15882)">
						<stop  offset="0" style="stop-color:#D1E43C"/>
						<stop  offset="1" style="stop-color:#94B029"/>
					</linearGradient>
					<path style="fill:url(#SVGID_00000018223488393082326780000004422121182472931483_);" d="M110.286,276.078
						c0,0,2.41-8.902,12.348-11.428c7.791-1.981,14.328,1.321,14.328,1.321s-2.509,6.669-10.895,11.415
						C118.77,281.516,112.157,277.328,110.286,276.078z"/>
					
						<linearGradient id="SVGID_00000044136866754369216150000013258371906007740037_" gradientUnits="userSpaceOnUse" x1="282.8934" y1="140.8538" x2="267.3982" y2="134.1862" gradientTransform="matrix(0.9522 -0.3055 0.3055 0.9522 -33.1158 91.565)">
						<stop  offset="0" style="stop-color:#D1E43C"/>
						<stop  offset="1" style="stop-color:#94B029"/>
					</linearGradient>
					<path style="fill:url(#SVGID_00000044136866754369216150000013258371906007740037_);" d="M261.7,141.318
						c0,0-0.163-3.529,3.166-5.613c2.61-1.634,5.38-1.195,5.38-1.195s-0.135,2.726-2.638,5.438
						C265.43,142.309,262.528,141.555,261.7,141.318z"/>
					
						<linearGradient id="SVGID_00000031180684876182552620000007660506377256444084_" gradientUnits="userSpaceOnUse" x1="289.3907" y1="159.7931" x2="260.6348" y2="147.4193" gradientTransform="matrix(0.8964 0.4433 -0.4433 0.8964 100.4707 -107.3172)">
						<stop  offset="0" style="stop-color:#D1E43C"/>
						<stop  offset="1" style="stop-color:#94B029"/>
					</linearGradient>
					<path style="fill:url(#SVGID_00000031180684876182552620000007660506377256444084_);" d="M262.952,144.235
						c0,0,4.34-4.912,11.468-3.391c5.588,1.193,8.713,5.356,8.713,5.356s-3.7,3.459-10.538,3.84
						C266.644,150.373,263.75,145.62,262.952,144.235z"/>
				</g>
			</g>
		</g>
		<g>
			
				<linearGradient id="SVGID_00000103958860821228698910000017300176979828729007_" gradientUnits="userSpaceOnUse" x1="60.4548" y1="-16271.9844" x2="147.1608" y2="-16271.9844" gradientTransform="matrix(1 0 0 -1 0 -15882)">
				<stop  offset="0" style="stop-color:#D1E43C"/>
				<stop  offset="1" style="stop-color:#94B029"/>
			</linearGradient>
			<path style="fill:url(#SVGID_00000103958860821228698910000017300176979828729007_);" d="M143.428,388.155
				c-11.571-4.821-21.816,30.132-21.816,30.132c-0.723-6.027,7.45-33.419,12.354-41.522c12.475-20.611-2.712-27.179-13.077-9.1
				c-3.948,6.885-7.774,26.603-8.076,35.315c-1.082-7.98-1.687-24.226-6.221-36.987c-8.659-24.368-33.421-26.141-23.971-7.85
				c6.055,11.718,15.345,35.316,19.164,46.464c-5.064-11.079-16.14-28.613-23.322-33.808c-14.586-10.551-27.361-7.604-8.678,10.124
				c24.769,23.503,33.507,53.179,33.507,53.179h23.383C131.375,410.091,156.509,393.605,143.428,388.155z"/>
			
				<linearGradient id="SVGID_00000151521762938862144970000005005994494954321583_" gradientUnits="userSpaceOnUse" x1="511.0923" y1="-16295.1787" x2="553.3073" y2="-16221.1035" gradientTransform="matrix(1 0 0 -1 0 -15882)">
				<stop  offset="0" style="stop-color:#D1E43C"/>
				<stop  offset="1" style="stop-color:#6F901F"/>
			</linearGradient>
			<path style="fill:url(#SVGID_00000151521762938862144970000005005994494954321583_);" d="M567.78,419.161l-78.25-4.536
				c0,0-14.985-18.117-11.764-42.915l37.96,20.054l-34.677-32.965c1.103-2.877,2.48-5.807,4.165-8.772
				c0.379-0.662,0.777-1.315,1.2-1.95l33.826,41.205l-31.682-44.153c17.288-21.497,57.37-23.121,79.424-1.959
				c-6.204,12.911-28.778,47.473-29.325,48.594l34.417-42.857c1.191,1.579,2.303,3.256,3.309,5.021
				C596.893,389.889,567.78,419.161,567.78,419.161z"/>
			<g>
				
					<linearGradient id="SVGID_00000111871570924658992940000011721454267826407339_" gradientUnits="userSpaceOnUse" x1="-165.3424" y1="338.6822" x2="-118.5999" y2="420.702" gradientTransform="matrix(-1 0 0 1 476.4923 0)">
					<stop  offset="0" style="stop-color:#D1E43C"/>
					<stop  offset="1" style="stop-color:#94B029"/>
				</linearGradient>
				<path style="fill:url(#SVGID_00000111871570924658992940000011721454267826407339_);" d="M610.153,423.424
					c10.048-14.114,36.2-22.877,53.069-28.963c13.833-4.991,20.865-11.145,20.844-18.336c-0.04-13.734-18.578-11.051-34.883-2.071
					c-20.773,11.44-41.829,32.268-41.829,32.268c4.183-10.358,53.482-49.365,35.401-64.172
					c-19.421-15.905-49.39,62.961-49.39,62.961c4.996-25.218,45.841-101.555,10.696-100.172
					c-32.86,1.293-24.595,113.54-24.595,113.54L610.153,423.424z"/>
				
					<linearGradient id="SVGID_00000111170032600647578690000014830157035200369803_" gradientUnits="userSpaceOnUse" x1="423.1641" y1="367.9239" x2="444.525" y2="367.9239" gradientTransform="matrix(-1 0 0 1 1028.1311 0)">
					<stop  offset="0.0054" style="stop-color:#64B0E3"/>
					<stop  offset="1" style="stop-color:#20386E"/>
				</linearGradient>
				<path style="opacity:0.5;fill:url(#SVGID_00000111170032600647578690000014830157035200369803_);" d="M585.686,399.905
					c-0.773,6.406-1.466,12.82-2.08,19.241l1.362,0.223c1.769-18.046,4.135-36.069,7.203-53.94
					c1.633-9.545,3.434-19.082,5.832-28.468c1.705-6.677,3.553-13.696,6.9-19.775c0.295-0.534-0.51-1.004-0.821-0.478
					c-4.095,6.932-6.167,15.083-8.103,22.827C591.04,359.334,588.108,379.667,585.686,399.905z"/>
				
					<linearGradient id="SVGID_00000142134135437299138800000005844436952000077480_" gradientUnits="userSpaceOnUse" x1="390.6521" y1="384.7559" x2="436.1034" y2="384.7559" gradientTransform="matrix(-1 0 0 1 1028.1311 0)">
					<stop  offset="0.0054" style="stop-color:#64B0E3"/>
					<stop  offset="1" style="stop-color:#20386E"/>
				</linearGradient>
				<path style="opacity:0.5;fill:url(#SVGID_00000142134135437299138800000005844436952000077480_);" d="M597.111,410.031
					c-1.729,3.474-3.426,6.964-5.083,10.469l1.434,0.231c5.784-12.158,12.063-24.094,18.803-35.734
					c4.063-7.035,8.294-13.999,12.931-20.66c3.625-5.203,7.489-10.421,12.135-14.764c0.446-0.422-0.215-1.068-0.669-0.669
					c-5.505,4.796-9.896,10.796-14.031,16.771C612.934,379.699,604.72,394.789,597.111,410.031z"/>
				
					<linearGradient id="SVGID_00000000181017030346720980000011230815261418798247_" gradientUnits="userSpaceOnUse" x1="357.2736" y1="399.3845" x2="428.3748" y2="399.3845" gradientTransform="matrix(-1 0 0 1 1028.1311 0)">
					<stop  offset="0.0054" style="stop-color:#64B0E3"/>
					<stop  offset="1" style="stop-color:#20386E"/>
				</linearGradient>
				<path style="opacity:0.5;fill:url(#SVGID_00000000181017030346720980000011230815261418798247_);" d="M599.756,421.752
					l1.689,0.271c0.08-0.088,0.167-0.183,0.255-0.271c18.827-19.672,42.682-35.949,68.823-44.076
					c0.582-0.175,0.343-1.076-0.247-0.908c-6.127,1.673-12.055,3.936-17.831,6.581c-13.027,5.968-25.161,13.792-36.228,22.891
					C610.393,411.043,604.887,416.23,599.756,421.752z"/>
			</g>
			
				<linearGradient id="SVGID_00000011725194945315567640000007192162154068402592_" gradientUnits="userSpaceOnUse" x1="688.7424" y1="-16251.0742" x2="340.1045" y2="-16354.6094" gradientTransform="matrix(1 0 0 -1 0 -15882)">
				<stop  offset="0" style="stop-color:#3B7932"/>
				<stop  offset="1" style="stop-color:#94B029"/>
			</linearGradient>
			<path style="fill:url(#SVGID_00000011725194945315567640000007192162154068402592_);" d="M332.036,432.747
				c0,0,35.243-14.001,76.273-29.523c41.03-15.522,51.192-17.119,67.055-15.888c15.863,1.231,42.991,22.557,56.893,25.074
				c13.903,2.517,29.665-22.524,51.37-17.549c21.705,4.975,62.094,37.886,62.094,37.886H332.036z"/>
		</g>
		<g>
			
				<linearGradient id="SVGID_00000146476742898373263900000007964747464146717596_" gradientUnits="userSpaceOnUse" x1="460.5735" y1="-16113.2529" x2="460.5735" y2="-16252.7627" gradientTransform="matrix(1 0 0 -1 0 -15882)">
				<stop  offset="0" style="stop-color:#11133D"/>
				<stop  offset="1" style="stop-color:#203970"/>
			</linearGradient>
			<path style="fill:url(#SVGID_00000146476742898373263900000007964747464146717596_);" d="M510.24,291.892
				c-2.282,2.694-8.156,5.219-15.562,7.48c-4.987,1.511-10.649,2.916-16.386,4.152c-1.796,0.391-3.603,0.771-5.399,1.13
				c-15.984,3.212-30.902,5.156-30.902,5.156l-21.108,60.652c-8.314-0.792-15.477-3.36-15.477-3.36s7.279-49.126,12.255-67.002
				c0,0,2.145-12.73,13.872-17.411c7.712-3.074,30.522-12.287,40.622-16.365c9.022,0.38,18.319-1.521,25.366-4.944
				c6.994-3.391,11.421-7.29,12.466-12.023h0.011C509.997,249.358,522.759,277.101,510.24,291.892z"/>
			
				<linearGradient id="SVGID_00000018920751005798246060000003298362686526232488_" gradientUnits="userSpaceOnUse" x1="486.1542" y1="-16170.2627" x2="486.5937" y2="-16187.7871" gradientTransform="matrix(1 0 0 -1 0 -15882)">
				<stop  offset="0" style="stop-color:#11133D"/>
				<stop  offset="1" style="stop-color:#203970"/>
			</linearGradient>
			<path style="opacity:0.43;fill:url(#SVGID_00000018920751005798246060000003298362686526232488_);" d="M494.678,299.371
				c-4.987,1.511-10.649,2.916-16.386,4.152c5.208-3.782,8.315-16.27,8.315-16.27l4.87,4.913
				C491.846,292.716,493.378,296.054,494.678,299.371z"/>
			
				<linearGradient id="SVGID_00000177465039074833481670000002038984159445789832_" gradientUnits="userSpaceOnUse" x1="426.8027" y1="369.1555" x2="385.2578" y2="354.5653" gradientTransform="matrix(0.9956 0.0934 -0.0934 0.9956 41.3287 -36.9058)">
				<stop  offset="0" style="stop-color:#4C86D3"/>
				<stop  offset="1" style="stop-color:#6C9AD3"/>
			</linearGradient>
			<path style="fill:url(#SVGID_00000177465039074833481670000002038984159445789832_);" d="M418.577,376.572l12.952-33.548
				c0,0-4.297-3.244-10.058-5.399c-5.761-2.155-12.447-2.341-12.447-2.341l-6.198,34.293c-3.157-1.497-3.138-1.914-7.229-3.711
				c-7.009-3.08-10.477,3.495-10.477,3.495c-0.492,2.544,4.251,15.783,31.812,18.367c0,0,1.314-2.75,1.917-7.665
				C419.002,378.833,418.859,377.613,418.577,376.572L418.577,376.572z"/>
			
				<linearGradient id="SVGID_00000031208798962126023760000011723835044355418514_" gradientUnits="userSpaceOnUse" x1="412.6938" y1="393.8381" x2="372.7846" y2="365.4728" gradientTransform="matrix(0.9956 0.0934 -0.0934 0.9956 41.3287 -36.9058)">
				<stop  offset="0" style="stop-color:#11133D"/>
				<stop  offset="1" style="stop-color:#203970"/>
			</linearGradient>
			<path style="fill:url(#SVGID_00000031208798962126023760000011723835044355418514_);" d="M385.335,369.103
				c0,0,1.16-1.317,4.213,1.454c3.053,2.771,6.062,7.169,13.275,11.224c7.213,4.055,14.111,5.946,14.111,5.946
				s-3.461,2.203-14.746-1.383c-2.465-0.783-3.018-0.701-9.155-4.819C387.15,377.579,383.227,371.213,385.335,369.103z"/>
			
				<linearGradient id="SVGID_00000085929579385019607910000011515260847593573512_" gradientUnits="userSpaceOnUse" x1="526.3088" y1="-16263.4795" x2="550.5403" y2="-16263.4795" gradientTransform="matrix(1 0 0 -1 0 -15882)">
				<stop  offset="0" style="stop-color:#4C86D3"/>
				<stop  offset="1" style="stop-color:#1F5686"/>
			</linearGradient>
			<path style="fill:url(#SVGID_00000085929579385019607910000011515260847593573512_);" d="M526.732,386.896
				c0,0-1.704-1.631,1.729-4.052c3.433-2.421,22.362-13.646,22.076-7.263c-0.286,6.383-1.255,9.376-2.531,9.816
				c-1.277,0.44-5.15,2.465-6.647,2.905c-1.497,0.44-3.258,1.057-5.106,1.012C534.404,389.271,527.776,388.395,526.732,386.896z"/>
			
				<linearGradient id="SVGID_00000143614227394699247080000012484538761443484831_" gradientUnits="userSpaceOnUse" x1="519.3892" y1="-16155.0107" x2="519.3892" y2="-16294.5195" gradientTransform="matrix(1 0 0 -1 0 -15882)">
				<stop  offset="0" style="stop-color:#11133D"/>
				<stop  offset="1" style="stop-color:#203970"/>
			</linearGradient>
			<path style="fill:url(#SVGID_00000143614227394699247080000012484538761443484831_);" d="M556.018,399.681
				c0,0-4.331,7.388-13.819,8.339c0,0-41.798-60.17-42.703-62.593c-10.651-28.525-16.735-88.04-16.735-88.04l43.712-3.83
				c0,0,9.966,17.844,1.28,39.15c-0.064,12.926,1.301,32.118,2.188,44.62C541.731,351.061,556.018,399.681,556.018,399.681z"/>
			
				<linearGradient id="SVGID_00000041292909837926679910000001512201523076334981_" gradientUnits="userSpaceOnUse" x1="528.7752" y1="-16274.5811" x2="567.1665" y2="-16305.5127" gradientTransform="matrix(1 0 0 -1 0 -15882)">
				<stop  offset="0" style="stop-color:#4C86D3"/>
				<stop  offset="1" style="stop-color:#6C9AD3"/>
			</linearGradient>
			<path style="fill:url(#SVGID_00000041292909837926679910000001512201523076334981_);" d="M561.798,407.304
				c-0.707-0.515-1.337-0.886-1.897-1.161l0,0l-9.435-31.296c0,0,0.156,6.117-13.861,11.133c-6.735,2.41-9.873,0.915-9.873,0.915
				l18.924,27.969c-0.508,2.445-0.282,7.585-3.189,8.507c-11.242,0.636-7.335,9.54-7.335,9.54h16.875c0,0,2.798-1.016,5.774-4.896
				c3.515-4.582,9.979-13.117,9.979-13.117S564.936,409.591,561.798,407.304z"/>
			<path style="fill:#EFCDAF;" d="M458.58,236.133c2.071,11.6-2.376,32.272-4.11,44.805l-7.385,0.159
				c-1.409-9.082-3.592-21.932-4.226-31.758c-0.57-8.779,0.528-14.653,0.528-14.653l0.919-28.134l17.908,1.247
				C462.214,207.798,457.967,232.678,458.58,236.133z"/>
			
				<linearGradient id="SVGID_00000099657217919771369630000000836261693765071289_" gradientUnits="userSpaceOnUse" x1="458.1884" y1="-16003.1846" x2="452.3979" y2="-16095.3057" gradientTransform="matrix(1 0 0 -1 0 -15882)">
				<stop  offset="0" style="stop-color:#4C86D3"/>
				<stop  offset="1" style="stop-color:#6C9AD3"/>
			</linearGradient>
			<path style="fill:url(#SVGID_00000099657217919771369630000000836261693765071289_);" d="M463.395,212.835
				c0,0.063-0.75,0.349-2.049,0.666c-1.595,0.38-4.015,0.803-6.857,0.866c-1.236,0.032-2.567-0.011-3.941-0.158
				c-0.317-0.021-0.613-0.063-0.94-0.116c-7.364-1.173-8.093-2.155-8.093-2.155s2.166-34.166,9.477-38.181
				C459.212,169.245,462.751,205.059,463.395,212.835z"/>
			
				<linearGradient id="SVGID_00000063620255267722837720000014305655425658828705_" gradientUnits="userSpaceOnUse" x1="457.2698" y1="-16096.8193" x2="461.2434" y2="-16075.4229" gradientTransform="matrix(1 0 0 -1 0 -15882)">
				<stop  offset="0" style="stop-color:#4C86D3"/>
				<stop  offset="1" style="stop-color:#6C9AD3"/>
			</linearGradient>
			<path style="fill:url(#SVGID_00000063620255267722837720000014305655425658828705_);" d="M461.346,213.501
				c-1.595,0.38-4.015,0.803-6.857,0.866l2.432-18.3L461.346,213.501z"/>
			
				<linearGradient id="SVGID_00000046299461404162109120000012289599999810967681_" gradientUnits="userSpaceOnUse" x1="501.9683" y1="-16141.5566" x2="500.8499" y2="-16159.3496" gradientTransform="matrix(1 0 0 -1 0 -15882)">
				<stop  offset="0" style="stop-color:#11133D"/>
				<stop  offset="1" style="stop-color:#203970"/>
			</linearGradient>
			<path style="opacity:0.43;fill:url(#SVGID_00000046299461404162109120000012289599999810967681_);" d="M477.312,272.263
				c0,0,6.382,2.555,11.726,4.492c5.344,1.937,9.834,0.174,14.852-2.246c5.018-2.42,10.829-3.828,15.055-5.589
				c4.226-1.761,6.921-10.005,6.921-10.005l-33.685,9.917"/>
			
				<linearGradient id="SVGID_00000065066072301970171870000017121966032737245322_" gradientUnits="userSpaceOnUse" x1="491.3707" y1="-16059.5088" x2="485.478" y2="-16153.2578" gradientTransform="matrix(1 0 0 -1 0 -15882)">
				<stop  offset="0" style="stop-color:#4C86D3"/>
				<stop  offset="1" style="stop-color:#6C9AD3"/>
			</linearGradient>
			<path style="fill:url(#SVGID_00000065066072301970171870000017121966032737245322_);" d="M514.571,267.371
				c-12.086,5.863-16.84,12.213-38.498,4.458c-2.842-1.014-4.67-3.962-11.008-2.641c2.25-5.99,3.835-14.759,3.032-21.964
				c-4.12-37.135-21.035-70.763-17.104-73.467c6.878-4.723,34.114-7.913,34.114-7.913s10.174,0.011,16.84,6.117
				c2.958,2.715,0.338,8.357,2.345,14.199c1.395,4.025,3.803,10.364,6.592,17.728c1.247,3.296,2.567,6.804,3.909,10.396
				c4.648,12.477,7.972,26.57,12.076,35.772C529.903,256.859,524.016,262.796,514.571,267.371z"/>
			
				<linearGradient id="SVGID_00000025432559688125550660000002605149528304366506_" gradientUnits="userSpaceOnUse" x1="491.4345" y1="-16088.0313" x2="514.7932" y2="-16088.0313" gradientTransform="matrix(1 0 0 -1 0 -15882)">
				<stop  offset="0" style="stop-color:#4C86D3"/>
				<stop  offset="1" style="stop-color:#6C9AD3"/>
			</linearGradient>
			<path style="fill:url(#SVGID_00000025432559688125550660000002605149528304366506_);" d="M514.793,214.283l-2.419,2.937
				c-4.258-4.923-20.432-21.848-20.939-22.376l19.45,9.043C512.131,207.183,513.451,210.691,514.793,214.283z"/>
			<g>
				
					<linearGradient id="SVGID_00000033343849996368130750000016229034203324588478_" gradientUnits="userSpaceOnUse" x1="606.4172" y1="168.4569" x2="609.8065" y2="142.9751" gradientTransform="matrix(-0.9776 0.2105 0.2105 0.9776 1014.5539 -123.8335)">
					<stop  offset="0" style="stop-color:#3B3147"/>
					<stop  offset="1" style="stop-color:#575960"/>
				</linearGradient>
				<path style="fill:url(#SVGID_00000033343849996368130750000016229034203324588478_);" d="M439.537,135.487
					c0,0,8.672,27.12,8.666,35.788c0,0,15.474-5.271,16.03-8.942c1.183-7.812-21.739-32.298-21.739-32.298L439.537,135.487z"/>
				<path style="fill:#EFCDAF;" d="M455.542,171.654c0,0,3.075,6.981,13.405,6.22c9.274-2.228,14.498-9.378,16.161-12.032
					c-1.353-0.202-2.761-0.515-4.336-1.1c-2.145-0.802-4.014-3.542-4.014-3.542s-5.947-8.796-4.01-22.126l-17.003,12.63
					c1.178,0.532,2.446,1.199,2.446,1.199s0.016,0.074,0.041,0.191c0.155,0.722,0.698,3.455,1.06,6.351
					c0.028,0.271,0.07,0.54,0.098,0.811c0.006,0.029,0.013,0.059,0.004,0.092l0.015-0.003l1.511,0.291c0,0,0.408,3.256,0.156,5.945
					c-0.105,1.301-0.527,2.312-0.784,2.597C459.046,170.553,455.542,171.654,455.542,171.654z"/>
				<path style="fill:#E8A77D;" d="M459.412,160.339l1.511,0.291c0,0,0.409,3.256,0.156,5.945
					c7.025-5.088,10.098-13.423,10.098-13.423l-11.784,7.099L459.412,160.339z"/>
				<path style="fill:#EFCDAF;" d="M472.264,152.31c-1.776,3.26-7.513,10.687-13.945,11.554c-2.981,0.401-8.955-3.721-10.932-7.646
					c-0.952-1.89-1.243-3.234-2.809-8.463c-1.756-5.861-3.417-11.13-3.484-15.452c-0.069-4.508,0.469-13.229,12.267-14.44
					C465.095,116.659,483.667,131.374,472.264,152.31z"/>
				
					<linearGradient id="SVGID_00000036934200574591449090000017181774821582753209_" gradientUnits="userSpaceOnUse" x1="570.4755" y1="144.3662" x2="617.6545" y2="144.3662" gradientTransform="matrix(-0.9776 0.2105 0.2105 0.9776 1014.5539 -123.8335)">
					<stop  offset="0" style="stop-color:#3B3147"/>
					<stop  offset="1" style="stop-color:#575960"/>
				</linearGradient>
				<path style="fill:url(#SVGID_00000036934200574591449090000017181774821582753209_);" d="M440.627,126.135
					c4.398-9.807,13.272-11.462,17.965-11.287c0.008,0-0.019,0.026-0.019,0.026c7.916-2.282,13.983,1.903,19.037,8.671
					c12.216,10.829,11.105,22.297,11.599,32.447c0,0-0.53-1.045-1.432-2.68c-0.026,0.19-0.048,0.384-0.086,0.567
					c-1.928,9.532-15.809,16.117-15.809,16.117c1.512-3.022,1.403-9.675,1.403-9.675c-0.444,3.306-5.5,7.99-5.5,7.99
					c1.43-12.892-8.499-28.943-8.499-28.943c-8.305-13.149-14.122-6.254-14.122-6.254s-5.906-0.214-2.4,6.238
					c0,0-1.737-1.465-3.848-4.251C436.622,132.072,439.038,126.812,440.627,126.135z"/>
			</g>
			
				<linearGradient id="SVGID_00000038404026355359194120000006200457456403565978_" gradientUnits="userSpaceOnUse" x1="452.3376" y1="275.1045" x2="457.611" y2="279.6747" gradientTransform="matrix(0.9924 -0.1227 0.1227 0.9924 -21.9679 59.979)">
				<stop  offset="0" style="stop-color:#A05735"/>
				<stop  offset="1" style="stop-color:#763E35"/>
			</linearGradient>
			<path style="fill:url(#SVGID_00000038404026355359194120000006200457456403565978_);" d="M402.82,383.868l-5.976-3.727
				l126.81-203.33c0.232-0.372,0.612-0.638,1.048-0.683c0.687-0.071,1.82,0.041,3.251,1.01c1.177,0.797,1.668,1.546,1.868,2.084
				c0.154,0.414,0.083,0.876-0.151,1.251L402.82,383.868z"/>
			<path style="fill:#EFCDAF;" d="M501.215,195.717l8.303-19.142c0,0,8.66,6.752,16.725,13.304c0,0,0.08,0.068,0.224,0.183
				c7.765,6.911,11.08,10.643,12.029,13.97c1.42,4.974-17.12,5.314-17.12,5.314C512.697,204.382,501.215,195.717,501.215,195.717z"
				/>
			
				<linearGradient id="SVGID_00000132795345483426653880000012391337002981963938_" gradientUnits="userSpaceOnUse" x1="559.4904" y1="276.2233" x2="553.5554" y2="181.8017" gradientTransform="matrix(-0.8412 0.5408 0.5408 0.8412 858.9421 -285.9492)">
				<stop  offset="0" style="stop-color:#4C86D3"/>
				<stop  offset="1" style="stop-color:#6C9AD3"/>
			</linearGradient>
			<path style="fill:url(#SVGID_00000132795345483426653880000012391337002981963938_);" d="M506.921,206.398
				c7.984-7.693,11.993-18.95,11.671-23.066c-14.75-11.939-21.133-14.44-21.133-14.44s-11.205,18.593-9.394,22.497
				C489.061,193.523,499.673,201.507,506.921,206.398z"/>
			<path style="fill:#EFCDAF;" d="M529.94,193.221l-6.766,5.141c0,0-12.649,16.786-20.428,24.425
				c-4.222,4.146-5.651,6.12-7.659,7.924c-0.369,0.308-3.483,0.67-4.49,1.101c-1.543,0.66-2.751,1.376-3.918,2.245
				c-0.805,0.6-1.761,3.28-2.509,4.655c-0.748,1.375-0.924,1.86,0.264,1.684c1.189-0.176,3.411-2.438,3.411-2.438
				s0.454-1.127,0.507,3.847c0.044,4.138-2.409,8.784-2.409,8.784s1.529-0.244,2.903-1.23c1.235-0.886,1.034-2.386,1.871-3.003
				c0.836-0.616,3.173-2.212,3.798-2.922c0.968-1.1,1.443-3.204,1.937-4.006c0.89-1.445,2.861-3.654,2.861-3.654
				s18.934-9.97,27.833-17.473c2.942-2.481,8.031-6.721,10.417-10.068C540.273,204.431,537.83,199.809,529.94,193.221z"/>
			
				<linearGradient id="SVGID_00000070104484451456062700000009395906415519210659_" gradientUnits="userSpaceOnUse" x1="372.8476" y1="-16269.7793" x2="392.3296" y2="-16292.1055" gradientTransform="matrix(1 0 0 -1 0 -15882)">
				<stop  offset="0" style="stop-color:#D3D1D8"/>
				<stop  offset="1" style="stop-color:#909EC9"/>
			</linearGradient>
			<path style="fill:url(#SVGID_00000070104484451456062700000009395906415519210659_);" d="M406.584,363.827
				c0,0,4.732-0.198,6.581,4.16l-6.905,11.371c-0.898,1.479-0.523,3.404,0.882,4.414c1.992,1.431,4.327,4.081,4.13,8.58
				c-0.528,12.062-25.179,33.543-25.179,33.543H348.06c0,0,8.452-7.759,18.488-22.016c10.036-14.257,11.885-21.3,21.042-23.501
				c1.418-0.341,4.777-0.508,6.949-0.584c1.248-0.043,2.394-0.698,3.061-1.753L406.584,363.827z"/>
			
				<linearGradient id="SVGID_00000173878280906420149340000016206335802103614652_" gradientUnits="userSpaceOnUse" x1="468.5161" y1="-15989.2217" x2="436.77" y2="-16040.7754" gradientTransform="matrix(1 0 0 -1 0 -15882)">
				<stop  offset="0" style="stop-color:#4C86D3"/>
				<stop  offset="1" style="stop-color:#6C9AD3"/>
			</linearGradient>
			<path style="fill:url(#SVGID_00000173878280906420149340000016206335802103614652_);" d="M439.537,140.843
				c0,0,13.386-1.789,18.046-3.945c14.018-6.486,20.027-13.353,20.027-13.353s-2.14-8.936-13.333-10.719
				c-11.35-1.808-22.396,5.657-25.096,11.005C434.909,132.292,439.537,140.843,439.537,140.843z"/>
			
				<linearGradient id="SVGID_00000137854071182292739810000013454010657839190158_" gradientUnits="userSpaceOnUse" x1="431.583" y1="-16023.8955" x2="466.3585" y2="-16023.8955" gradientTransform="matrix(1 0 0 -1 0 -15882)">
				<stop  offset="0" style="stop-color:#D1E43C"/>
				<stop  offset="1" style="stop-color:#94B029"/>
			</linearGradient>
			<path style="fill:url(#SVGID_00000137854071182292739810000013454010657839190158_);" d="M439.537,140.843
				c0,0-7.422,6.406-7.95,9.812c-0.253,1.631,9.964,0.754,13.14-0.368c13.699-4.843,21.631-18.048,21.631-18.048
				S455.953,138.181,439.537,140.843z"/>
			<path style="fill:#EFCDAF;" d="M447.085,281.097c0,0,0.245,2.966,0,5.277c-0.245,2.311,0.264,6.669,0.109,8.056
				c-0.155,1.387-1.09,4.343-0.573,5.26c0.517,0.917,2.188-0.238,2.861-1.585c0.675-1.35,2.596-6.527,2.596-6.527l5.785-9.276
				c0,0-1.569-2.529-3.159-2.992C453.113,278.847,447.085,281.097,447.085,281.097z"/>
			<path style="fill:#EFCDAF;" d="M461.43,289.892c0,0-2.345-0.193-3.397-0.259c-1.052-0.066-2.229,1.677-1.172,2.189
				c-0.575,0.025-1.433-0.041-2.311,0.231c-0.567,0.176-1.165,1.058-1.238,1.634c-0.089,0.696,1.629,1.601,1.629,1.601
				s-1.529,0.084-2.345,0.593c-0.437,0.273-0.646,0.738-0.671,1.173c-0.058,1.008,1.365,1.645,1.365,1.645s-1.338-0.144-2.071,0.35
				c-0.561,0.378-0.705,1.219-0.548,1.587c0.259,0.608,1.783,1.717,3.367,1.717s4.127-4.721,4.787-5.579
				C459.485,295.915,462.556,291.458,461.43,289.892z"/>
		</g>
		<g>
			<g>
				
					<linearGradient id="SVGID_00000170247183458747011910000001462067137945986993_" gradientUnits="userSpaceOnUse" x1="235.4609" y1="-16239.0586" x2="288.2139" y2="-16197.7891" gradientTransform="matrix(1 0 0 -1 0 -15882)">
					<stop  offset="0" style="stop-color:#D1E43C"/>
					<stop  offset="1" style="stop-color:#94B029"/>
				</linearGradient>
				<path style="fill:url(#SVGID_00000170247183458747011910000001462067137945986993_);" d="M300.682,340.655
					c0,0-6.312-14.367-30.698-18.898c-23.966-4.44-42.773,20.129-43.441,21.007c0.301-1.061,10.268-35.007,41.568-36.29
					c18.217-0.746,30.449,20.299,30.449,20.299c0.72,1.427,1.231,2.881,1.585,4.283
					C301.455,336.215,300.682,340.655,300.682,340.655z"/>
				
					<linearGradient id="SVGID_00000090269880186005008820000002292423096438411906_" gradientUnits="userSpaceOnUse" x1="236.9158" y1="-16240.8174" x2="287.8316" y2="-16200.9854" gradientTransform="matrix(1 0 0 -1 0 -15882)">
					<stop  offset="0" style="stop-color:#D1E43C"/>
					<stop  offset="1" style="stop-color:#94B029"/>
				</linearGradient>
				<path style="opacity:0.3;fill:url(#SVGID_00000090269880186005008820000002292423096438411906_);" d="M300.682,340.655
					c0,0-6.312-14.367-30.698-18.898c-23.966-4.44-42.773,20.129-43.441,21.007c0.406-0.825,12.546-28.323,39.944-28.323
					c16.737,0.013,27.012,8.001,34.151,18.439C301.948,338.039,300.682,340.655,300.682,340.655z"/>
				
					<linearGradient id="SVGID_00000045589886944238973530000016375802079771697326_" gradientUnits="userSpaceOnUse" x1="332.9375" y1="-16188.9951" x2="276.1888" y2="-16060.9473" gradientTransform="matrix(1 0 0 -1 0 -15882)">
					<stop  offset="0" style="stop-color:#D1E43C"/>
					<stop  offset="1" style="stop-color:#94B029"/>
				</linearGradient>
				<path style="fill:url(#SVGID_00000045589886944238973530000016375802079771697326_);" d="M295.954,220.587
					c-2.881,50.578,9.259,112.328,9.259,112.328l-2.829,0.694l-1.139,0.288c0,0-42.328-69.411-31.3-116.99
					c11.04-47.592,45.877-51.521,45.877-51.521s0,0-0.013,0.013C315.258,166.092,297.801,188.356,295.954,220.587z"/>
				
					<linearGradient id="SVGID_00000088811966274496169310000014555203065811565208_" gradientUnits="userSpaceOnUse" x1="334.3502" y1="-16188.4863" x2="278.092" y2="-16061.5459" gradientTransform="matrix(1 0 0 -1 0 -15882)">
					<stop  offset="0" style="stop-color:#D1E43C"/>
					<stop  offset="1" style="stop-color:#94B029"/>
				</linearGradient>
				<path style="opacity:0.3;fill:url(#SVGID_00000088811966274496169310000014555203065811565208_);" d="M305.213,332.915
					l-2.829,0.694c-6.535-15.991-12.599-36.984-16.279-64.081c-11.263-83.018,28.799-103.684,29.703-104.13
					c-0.55,0.694-18.007,22.958-19.854,55.188C293.073,271.165,305.213,332.915,305.213,332.915z"/>
				
					<linearGradient id="SVGID_00000091737413634620005540000012110306328458107525_" gradientUnits="userSpaceOnUse" x1="248.735" y1="-16197.5439" x2="286.671" y2="-16104.4551" gradientTransform="matrix(1 0 0 -1 0 -15882)">
					<stop  offset="0" style="stop-color:#D1E43C"/>
					<stop  offset="1" style="stop-color:#94B029"/>
				</linearGradient>
				<path style="fill:url(#SVGID_00000091737413634620005540000012110306328458107525_);" d="M302.725,336.372l-0.576,1.192
					l-1.467,3.091c-3.523-24.255-16.803-21.74-39.8-55.778c-22.644-33.514-30.384-75.933-30.619-77.256
					c0-0.013-0.013-0.026-0.013-0.026C302.214,257.793,302.725,336.372,302.725,336.372z"/>
				
					<linearGradient id="SVGID_00000129887125731063927100000011697976226616257710_" gradientUnits="userSpaceOnUse" x1="291.2563" y1="-16213.1992" x2="234.507" y2="-16085.1494" gradientTransform="matrix(1 0 0 -1 0 -15882)">
					<stop  offset="0" style="stop-color:#D1E43C"/>
					<stop  offset="1" style="stop-color:#94B029"/>
				</linearGradient>
				<path style="opacity:0.3;fill:url(#SVGID_00000129887125731063927100000011697976226616257710_);" d="M302.149,337.564
					l-1.467,3.091c-3.523-24.255-16.803-21.74-39.8-55.778c-22.644-33.514-30.384-75.933-30.619-77.256
					c1.205,1.637,52.962,70.546,64.605,103.981C299.071,323.677,300.639,328.491,302.149,337.564z"/>
				
					<linearGradient id="SVGID_00000067226320642657108650000007538021372854389949_" gradientUnits="userSpaceOnUse" x1="350.1006" y1="-16192.1104" x2="324.9785" y2="-16135.4238" gradientTransform="matrix(1 0 0 -1 0 -15882)">
					<stop  offset="0" style="stop-color:#D1E43C"/>
					<stop  offset="1" style="stop-color:#94B029"/>
				</linearGradient>
				<path style="fill:url(#SVGID_00000067226320642657108650000007538021372854389949_);" d="M331.209,281.59
					c-23.181,23.704-22.08,52.713-22.08,52.713h-3.13c0,0-13.738-45.51,5.736-70.066c19.121-24.111,67.761-8.041,69.516-7.439
					c0.013,0,0.039,0.013,0.052,0.013C381.303,256.811,355.438,256.811,331.209,281.59z"/>
				
					<linearGradient id="SVGID_00000037668364525903069840000005151356831636841374_" gradientUnits="userSpaceOnUse" x1="350.9335" y1="-16192.7627" x2="330.066" y2="-16145.6777" gradientTransform="matrix(1 0 0 -1 0 -15882)">
					<stop  offset="0" style="stop-color:#D1E43C"/>
					<stop  offset="1" style="stop-color:#94B029"/>
				</linearGradient>
				<path style="opacity:0.3;fill:url(#SVGID_00000037668364525903069840000005151356831636841374_);" d="M331.209,281.59
					c-23.181,23.704-22.08,52.713-22.08,52.713h-2.043c-0.681-8.591-1.821-38.399,12.442-57.847
					c16.802-22.893,46.872-23.364,61.723-19.658c0.013,0,0.039,0.013,0.052,0.013C381.303,256.811,355.438,256.811,331.209,281.59z"
					/>
			</g>
			
				<linearGradient id="SVGID_00000165943482019942744770000012518566490252199818_" gradientUnits="userSpaceOnUse" x1="235.9878" y1="-16199.6309" x2="235.9878" y2="-16288.373" gradientTransform="matrix(1 0 0 -1 0 -15882)">
				<stop  offset="0" style="stop-color:#11133D"/>
				<stop  offset="1" style="stop-color:#203970"/>
			</linearGradient>
			<path style="fill:url(#SVGID_00000165943482019942744770000012518566490252199818_);" d="M283.91,410.555
				c0,0-3.592,3.75-11.526,2.958c0,0-16.999-26.75-20.031-41.287c-5.325,0.835-14.315,0.792-20.707,0.613h-0.011
				c-4.331-0.116-7.469-0.285-7.469-0.285s-6.592,0.391-15.583-2.662c-2.06-0.708-4.237-1.585-6.497-2.694
				c-8.008-3.92-14.019-27.067-14.019-27.067l39.227-2.831c0,0,42.703,14.305,44.414,15.467c0.275,0.18,2.06,0.866,2.694,3.412
				C277.782,369.638,283.91,410.555,283.91,410.555z"/>
			
				<linearGradient id="SVGID_00000150092319474601775680000013141271494421766546_" gradientUnits="userSpaceOnUse" x1="257.4421" y1="-16289.2158" x2="308.0497" y2="-16289.2158" gradientTransform="matrix(1 0 0 -1 0 -15882)">
				<stop  offset="0" style="stop-color:#4C86D3"/>
				<stop  offset="1" style="stop-color:#6C9AD3"/>
			</linearGradient>
			<path style="fill:url(#SVGID_00000150092319474601775680000013141271494421766546_);" d="M257.442,388.569
				c0,0,14.651-5.989,24.357-7.046l7.229,38.396c0,0,11.276,4.68,15.853,6.098c6.098,1.889,1.517,6.892,1.517,6.892h-35.1
				c0,0-1.423-2.142-1.589-3.928c-0.172-1.847,0.916-6.065,0.73-7.344C269.156,412.786,257.442,388.569,257.442,388.569z"/>
			
				<linearGradient id="SVGID_00000075156749656603022710000018361421016416864151_" gradientUnits="userSpaceOnUse" x1="211.4935" y1="-16258.9795" x2="226.4175" y2="-16244.3945" gradientTransform="matrix(1 0 0 -1 0 -15882)">
				<stop  offset="0" style="stop-color:#11133D"/>
				<stop  offset="1" style="stop-color:#203970"/>
			</linearGradient>
			<path style="opacity:0.43;fill:url(#SVGID_00000075156749656603022710000018361421016416864151_);" d="M231.635,372.839
				c-4.331-0.116-7.469-0.285-7.469-0.285s-6.592,0.391-15.583-2.662c0-2.905,0.01-5.62,0.01-5.62l7.765-5.113
				C216.358,359.158,222.644,367.504,231.635,372.839z"/>
			
				<linearGradient id="SVGID_00000020372781933376442610000002064606283201593488_" gradientUnits="userSpaceOnUse" x1="306.8862" y1="-16237.3906" x2="294.8428" y2="-16245.0723" gradientTransform="matrix(1 0 0 -1 0 -15882)">
				<stop  offset="0" style="stop-color:#E09C6C"/>
				<stop  offset="1" style="stop-color:#E5B391"/>
			</linearGradient>
			<path style="fill:url(#SVGID_00000020372781933376442610000002064606283201593488_);" d="M291.966,355.309
				c0,0,4.474,2.245,5.539,3.962c1.064,1.717,2.02,3.566,2.995,4.49c0.975,0.924,6.756,3.301,6.756,3.301l-0.961-11.159
				c0,0-9.376-3.103-10.631-4.556C294.409,349.895,291.966,355.309,291.966,355.309z"/>
			
				<linearGradient id="SVGID_00000046303497265525269210000014011086752813237168_" gradientUnits="userSpaceOnUse" x1="361.8306" y1="-16318.4277" x2="229.1028" y2="-16136.9775" gradientTransform="matrix(1 0 0 -1 0 -15882)">
				<stop  offset="0" style="stop-color:#D1E43C"/>
				<stop  offset="1" style="stop-color:#94B029"/>
			</linearGradient>
			<path style="fill:url(#SVGID_00000046303497265525269210000014011086752813237168_);" d="M334.458,417.047
				c-2.236-1.538-1.684-1.542-5.183-2.542c-3.5-1-3.731-1.09-4.985-2.806c-1.254-1.717-5.283-6.679-6.097-10.928
				c-0.583-3.004-1.377-7.183-2.37-12.609c-3.355-18.32-7.122-40.298-6.687-53.859c0.357-11.132,7.778-26.738,7.778-26.738
				s-7.877,8.52-10.095,11.678c-0.055,0.079-0.11,0.157-0.165,0.236c-5.254,7.574-7.103,16.992-5.4,26.051
				c1.168,6.213,2.559,14.388,3.436,22.17c1.16,10.295,1.838,23.859,2.483,32.706l0-0.001c0,0,0.301,6.827-0.667,9.116
				c-0.969,2.289-1.849,2.817-2.465,3.698c-0.616,0.88-1.012,4.259-2.641,6.658c-0.805,1.186,0.242,1.849,1.299,1.2
				c1.057-0.649,2.047-4.82,2.839-5.613c0.792-0.792,1.668-1.545,2.938-1.717c1.469-0.198,2.674,0.381,3.533,1.181
				c0.858,0.8,0.924,3.639,1.915,4.366c0.991,0.726,3.236,2.839,3.896,3.962s1.631,0.792,1.707,0
				c0.076-0.792-1.245-2.839-1.773-4.622c-0.528-1.783-1.172-2.856-1.189-4.16c-0.014-1.075,0.229-1.488,1.288-2.146
				c1.089-0.677,4.012,0.176,5.678,2.146c2.044,2.417,5.106,2.082,6.24,2.179c2.311,0.198,3.866,1.912,5.304,2.773
				C336.673,420.383,338.265,419.666,334.458,417.047z"/>
			
				<linearGradient id="SVGID_00000087387749885711736440000014748543743840039301_" gradientUnits="userSpaceOnUse" x1="309.8205" y1="-16230.248" x2="294.9615" y2="-16239.7266" gradientTransform="matrix(1 0 0 -1 0 -15882)">
				<stop  offset="0" style="stop-color:#E09C6C"/>
				<stop  offset="1" style="stop-color:#E5B391"/>
			</linearGradient>
			<path style="fill:url(#SVGID_00000087387749885711736440000014748543743840039301_);" d="M297.448,348.013
				c0,0,3.044,1.948,3.784,2.443c0.739,0.495,3.38,0.825,4.569,0.858c1.188,0.033,3.798,3.319,4.28,3.863
				c0.482,0.544,0.441,1.222-1.045,1.255c-1.486,0.033-4.292-1.552-4.292-1.552s-1.016,0.693-3.513,0.396
				c-2.496-0.297-6.227-2.74-6.227-2.74L297.448,348.013z"/>
			
				<linearGradient id="SVGID_00000053529140126733926020000007243665651770155185_" gradientUnits="userSpaceOnUse" x1="240.0156" y1="-16141.9258" x2="309.0579" y2="-16293.5342" gradientTransform="matrix(1 0 0 -1 0 -15882)">
				<stop  offset="0" style="stop-color:#4C86D3"/>
				<stop  offset="1" style="stop-color:#6C9AD3"/>
			</linearGradient>
			<path style="fill:url(#SVGID_00000053529140126733926020000007243665651770155185_);" d="M298.299,347.642
				c0,0-1.31,4.089-6.751,9.064c0,0-33.723-18.869-40.431-26.697c-1.109-1.289-2.198-4.67-3.18-8.748
				c-1.078-4.469-2.018-9.783-2.715-14.115c-0.761-4.733-1.215-8.293-1.215-8.293l26.359-18.478c0,0-1.902,30.743-2.863,38.023
				C272.035,322.91,298.299,347.642,298.299,347.642z"/>
			
				<linearGradient id="SVGID_00000016773046690124222040000011251093872303202451_" gradientUnits="userSpaceOnUse" x1="248.7837" y1="-16177.9688" x2="263.0843" y2="-16209.3711" gradientTransform="matrix(1 0 0 -1 0 -15882)">
				<stop  offset="0" style="stop-color:#4C86D3"/>
				<stop  offset="1" style="stop-color:#6C9AD3"/>
			</linearGradient>
			<path style="fill:url(#SVGID_00000016773046690124222040000011251093872303202451_);" d="M261.702,297.184
				c-0.349,0.581-11.674,19.228-13.766,24.077c-1.078-4.469-2.018-9.783-2.715-14.115L261.702,297.184z"/>
			
				<linearGradient id="SVGID_00000068665115057952697350000003306937917422237851_" gradientUnits="userSpaceOnUse" x1="184.1779" y1="-16216.0088" x2="184.1779" y2="-16304.7539" gradientTransform="matrix(1 0 0 -1 0 -15882)">
				<stop  offset="0" style="stop-color:#11133D"/>
				<stop  offset="1" style="stop-color:#203970"/>
			</linearGradient>
			<path style="fill:url(#SVGID_00000068665115057952697350000003306937917422237851_);" d="M222.256,433.887
				c-7.401,2.183-80.647-13.007-81.459-12.961c-0.492-1.573-0.545-8.338,1.58-12.152c2.982-0.409,12.428-1.342,19.563-1.989
				c11.716-1.063,21.373-2.095,33.389-1.499c-4.417-9.507-8.559-18.216-9.485-19.771c-4.749-7.934-18.189-26.458-2.239-51.847
				c0,0,17.917,2.844,27.91-0.47c0,0,11.024,59.793,13.858,71.498C225.373,404.696,232.628,430.827,222.256,433.887z"/>
			
				<linearGradient id="SVGID_00000080183497622390034620000000599081024893277880_" gradientUnits="userSpaceOnUse" x1="206.6791" y1="342.901" x2="257.9185" y2="230.3857" gradientTransform="matrix(0.9999 -0.0143 0.0143 0.9999 -5.1591 4.2556)">
				<stop  offset="0" style="stop-color:#4C86D3"/>
				<stop  offset="1" style="stop-color:#6C9AD3"/>
			</linearGradient>
			<path style="fill:url(#SVGID_00000080183497622390034620000000599081024893277880_);" d="M181.963,336.446
				c0,0,29.897,5.63,48.545,2.02c0,0,1.345-6.469,7.413-14.538c7.794-10.364,22.474-19.554,31.744-40.995
				c5.214-12.06-16.912-29.64-30.921-33.521c-7.857-2.177-15.077-1.398-22.605,5.999c-11.541,11.339-22.623,33.669-28.562,49.082
				C180.009,324.13,178.731,330.987,181.963,336.446z"/>
			
				<linearGradient id="SVGID_00000183223551466049381400000013614183889957465995_" gradientUnits="userSpaceOnUse" x1="207.5422" y1="-16145.625" x2="228.5053" y2="-16193.8691" gradientTransform="matrix(1 0 0 -1 0 -15882)">
				<stop  offset="0" style="stop-color:#4C86D3"/>
				<stop  offset="1" style="stop-color:#6C9AD3;stop-opacity:0"/>
			</linearGradient>
			<path style="opacity:0.5;fill:url(#SVGID_00000183223551466049381400000013614183889957465995_);" d="M181.963,336.446
				c0,0,29.897,5.63,48.545,2.02c0,0,1.345-6.469,7.413-14.538c7.794-10.364,22.474-19.554,31.744-40.995
				c5.214-12.06-16.912-29.64-30.921-33.521c-7.857-2.177-15.077-1.398-22.605,5.999c-11.541,11.339-22.623,33.669-28.562,49.082
				C180.009,324.13,178.731,330.987,181.963,336.446z"/>
			<g>
				
					<linearGradient id="SVGID_00000122718685424151010900000004972574997141872554_" gradientUnits="userSpaceOnUse" x1="250.2404" y1="260.5931" x2="293.4875" y2="228.5016" gradientTransform="matrix(0.9999 -0.0143 0.0143 0.9999 -5.1591 4.2556)">
					<stop  offset="0" style="stop-color:#E09C6C"/>
					<stop  offset="1" style="stop-color:#E5B391"/>
				</linearGradient>
				<path style="fill:url(#SVGID_00000122718685424151010900000004972574997141872554_);" d="M269.232,231.958
					c0,0-1.706,2.162-4.218,5.295c-1.437,1.764-3.116,3.856-4.905,6.026c-3.663,4.393-8.211,8.746-11.318,11.989
					c-0.272,2.254,0.671,6.581,4.068,9.5c3.014,2.591,8.248,0.921,8.852,0.232c0.151-0.405,0.289-0.775,0.354-0.901
					c0.298-0.963,1.05-2.916,2.593-5.11c0.092-0.172,0.218-0.33,0.333-0.501c0.47-0.647,1.036-1.313,1.662-1.988
					c1.065-1.182,2.375-2.339,3.976-3.398l-0.059-1.112l-1.197-17.985L269.232,231.958z"/>
				
					<linearGradient id="SVGID_00000139985859448171494100000004012678999047041927_" gradientUnits="userSpaceOnUse" x1="262.8546" y1="253.8605" x2="268.9809" y2="253.8605" gradientTransform="matrix(0.9999 -0.0143 0.0143 0.9999 -5.1591 4.2556)">
					<stop  offset="0" style="stop-color:#E09C6C"/>
					<stop  offset="1" style="stop-color:#E5B391"/>
				</linearGradient>
				<path style="opacity:0.5;fill:url(#SVGID_00000139985859448171494100000004012678999047041927_);" d="M262.663,246.606
					c0,0,0,0-0.006,0.02c-0.833,3.479-2.142,10.817-0.589,17.466c0.302-0.954,1.047-2.905,2.59-5.11
					c0.419,0.889,0.884,1.622,1.372,2.277c0.455-0.462,0.936-0.938,1.475-1.396l-0.213-1.084l-0.649-2.276l-3.434-11.969
					C263.209,244.533,262.965,245.291,262.663,246.606z"/>
				
					<linearGradient id="SVGID_00000054242507685821983520000002474729774801530520_" gradientUnits="userSpaceOnUse" x1="287.2236" y1="249.1275" x2="296.4752" y2="249.1275" gradientTransform="matrix(0.9999 -0.0143 0.0143 0.9999 -5.1591 4.2556)">
					<stop  offset="0" style="stop-color:#3B3147"/>
					<stop  offset="1" style="stop-color:#575960"/>
				</linearGradient>
				<path style="fill:url(#SVGID_00000054242507685821983520000002474729774801530520_);" d="M294.829,247.752
					c0,0-3.372,6.351-9.172,5.644l6.242-8.449L294.829,247.752z"/>
				
					<linearGradient id="SVGID_00000147929602552327525370000004859782741073598881_" gradientUnits="userSpaceOnUse" x1="252.1983" y1="263.2316" x2="295.4454" y2="231.1402" gradientTransform="matrix(0.9999 -0.0143 0.0143 0.9999 -5.1591 4.2556)">
					<stop  offset="0" style="stop-color:#E09C6C"/>
					<stop  offset="1" style="stop-color:#E5B391"/>
				</linearGradient>
				<path style="fill:url(#SVGID_00000147929602552327525370000004859782741073598881_);" d="M263.244,242.969
					c-0.268,1.198-0.457,2.419-0.581,3.637c0,0,0,0-0.006,0.02c-0.187,2.009-0.153,4.062,0.125,6.08
					c0.364,2.597,1.037,4.646,1.876,6.276c0.419,0.889,0.884,1.622,1.372,2.277c2.283,3.013,4.832,3.678,4.832,3.678
					c6.26-0.881,12.495-6.663,16.751-11.58c1.732-1.98,3.126-3.825,4.087-5.138c0.862-1.193,1.339-1.946,1.339-1.946
					c0.037-0.053,0.068-0.086,0.105-0.139c5.168-6.713-2.063-15.183-10.672-17.739c-0.509-0.15-1.004-0.275-1.531-0.366
					c-2.558-0.562-5.199-0.552-7.614,0.205c-4.126,1.296-6.717,5.108-8.316,9.021c-0.083,0.21-0.166,0.419-0.249,0.629
					C264.07,239.659,263.59,241.432,263.244,242.969z"/>
				
					<linearGradient id="SVGID_00000152244376981921449270000016340382135322494120_" gradientUnits="userSpaceOnUse" x1="260.123" y1="245.6062" x2="305.2545" y2="229.1021" gradientTransform="matrix(0.9999 -0.0143 0.0143 0.9999 -5.1591 4.2556)">
					<stop  offset="0" style="stop-color:#3B3147"/>
					<stop  offset="1" style="stop-color:#575960"/>
				</linearGradient>
				<path style="fill:url(#SVGID_00000152244376981921449270000016340382135322494120_);" d="M278.255,231.118
					c0,0,4.697,0.084,7.812,6.647c1.641,3.457,1.132,8.652,6.529,10.857c4.571,1.867,13.706-5.441,12.784-10.292
					c-1.779-9.36-9.476-13.927-16.852-15.949c-2.338-0.641-4.644-1.026-6.719-1.227
					C273.703,220.368,278.057,228.065,278.255,231.118z"/>
				
					<linearGradient id="SVGID_00000039135941828258975690000017092694110251764377_" gradientUnits="userSpaceOnUse" x1="261.998" y1="-16110.7061" x2="297.2089" y2="-16123.582" gradientTransform="matrix(1 0 0 -1 0 -15882)">
					<stop  offset="0" style="stop-color:#3B3147"/>
					<stop  offset="1" style="stop-color:#575960"/>
				</linearGradient>
				<path style="fill:url(#SVGID_00000039135941828258975690000017092694110251764377_);" d="M286.35,233.743
					c-0.423,0.729-2.44,2.969-5.251,3.793c-1.247,0.37-2.472,0.222-4.469,0.084c-1.711,2.113-3.476,4.046-4.839,5.219l-2.494-0.969
					c0.528-0.792,0.941-1.482,1.438-2.602c0,0,2.113-4.12-0.285-5.092c-2.947-1.194-7.596,6.159-10.332,9.096
					c0,0-0.803-7.142,7.015-17.083c7.818-9.931,18.055-6.973,16.323-0.074C283.223,227.024,286.826,232.94,286.35,233.743z"/>
			</g>
			<g>
				
					<linearGradient id="SVGID_00000154419179164059019530000006186869298177407895_" gradientUnits="userSpaceOnUse" x1="368.4034" y1="377.4047" x2="356.6834" y2="365.357" gradientTransform="matrix(-0.6352 -0.1392 0.214 -0.9768 401.4662 787.9066)">
					<stop  offset="0" style="stop-color:#A05735"/>
					<stop  offset="1" style="stop-color:#763E35"/>
				</linearGradient>
				<path style="fill:url(#SVGID_00000154419179164059019530000006186869298177407895_);" d="M243.5,376.471l13.981,3.063
					l1.102-5.031l-13.981-3.063c-0.455-0.1-1.072,0.945-1.376,2.335C242.922,375.164,243.044,376.371,243.5,376.471z"/>
				
					<linearGradient id="SVGID_00000097492311092395684170000003588299681043468183_" gradientUnits="userSpaceOnUse" x1="323.2185" y1="372.5437" x2="320.7144" y2="369.9695" gradientTransform="matrix(-1.2338 -0.2703 0.214 -0.9768 575.6484 826.497)">
					<stop  offset="0" style="stop-color:#A05735"/>
					<stop  offset="1" style="stop-color:#763E35"/>
				</linearGradient>
				<path style="fill:url(#SVGID_00000097492311092395684170000003588299681043468183_);" d="M256.403,376.664
					c0.304-1.389,1.268-2.358,2.153-2.164c0.885,0.194,1.355,1.477,1.051,2.867c-0.304,1.389-1.268,2.358-2.153,2.164
					C256.569,379.337,256.099,378.053,256.403,376.664z"/>
				
					<linearGradient id="SVGID_00000020365133047551347250000001584826820251245236_" gradientUnits="userSpaceOnUse" x1="266.2472" y1="-16276.9326" x2="277.6162" y2="-16265.835" gradientTransform="matrix(1 0 0 -1 0 -15882)">
					<stop  offset="0" style="stop-color:#D3D1D8"/>
					<stop  offset="1" style="stop-color:#A4AAD8"/>
				</linearGradient>
				<path style="fill:url(#SVGID_00000020365133047551347250000001584826820251245236_);" d="M264.248,385.033
					c-1.194,3.141-1.759,5.436-1.267,7.055c0.492,1.62,2.04,2.565,3.524,3.155c9.74,3.877,20.305,3.752,23.358,3.803
					c2.975,0.049-8.907-13.194-12.871-16.486c-3.964-3.293-8.287,0.064-9.565-0.27c-0.503-0.131-1.276-3.672-2.452-4.749
					c-0.418-0.383-0.966-0.718-1.735-0.893c-1.858-0.421-4.983-1.021-4.983-1.021s-0.85-0.094-1.07,1.506
					c-0.177,1.288,0.611,1.403,0.611,1.403s3.447,0.819,4.363,0.986c0.272,0.049,0.778,1.318,1.25,2.53
					C263.932,383.393,264.402,384.702,264.248,385.033z"/>
			</g>
			
				<linearGradient id="SVGID_00000102521475405081004680000013461389461696784788_" gradientUnits="userSpaceOnUse" x1="252.4522" y1="380.193" x2="235.7908" y2="363.0655">
				<stop  offset="0" style="stop-color:#E09C6C"/>
				<stop  offset="1" style="stop-color:#E5B391"/>
			</linearGradient>
			<path style="fill:url(#SVGID_00000102521475405081004680000013461389461696784788_);" d="M256.092,373.291
				c-0.286-0.352-1.893-0.594-2.905-1.233c-0.658-0.415-1.563-1.063-2.121-1.47c-0.162-0.125-0.329-0.248-0.5-0.367l-0.004-0.003
				l0,0c-0.85-0.591-1.781-1.098-2.505-1.39c-1.993-2.012-2.29-2.793-3.021-4.035c-0.514-0.873-3.481-6.942-3.481-6.942
				s-10.04,2.945-8.947,4.523c1.761,2.543,1.824,2.737,3.381,5.547c1.946,3.513,0.954,5.031,1.329,6.554
				c0.374,1.517,2.6,4.665,4.446,5.08c2.641,0.594,9.16,1.697,10.036,1.528c0.845-0.169,1.724-2.24,1.755-2.409
				c0-0.01-1.39-0.912-1.667-1.659c-0.209-0.564-0.26-1.189-0.191-1.77c1.047,0.027,2.376,0.034,3.229-0.06
				C256.51,375.008,256.378,373.644,256.092,373.291z"/>
			
				<linearGradient id="SVGID_00000009573727158135322990000012005698514819474324_" gradientUnits="userSpaceOnUse" x1="199.0897" y1="-16171.1973" x2="227.2156" y2="-16232.958" gradientTransform="matrix(1 0 0 -1 0 -15882)">
				<stop  offset="0" style="stop-color:#4C86D3"/>
				<stop  offset="1" style="stop-color:#6C9AD3"/>
			</linearGradient>
			<path style="fill:url(#SVGID_00000009573727158135322990000012005698514819474324_);" d="M217.785,339.644
				c-2.514,0.053-5.061,0.021-7.575-0.074c-3.021-6.054-10.797-22.228-10.797-28.472c0-7.744,7.311-31.504,7.311-31.504
				s0.444,12.308-0.264,21.985C205.846,309.947,215.207,333.39,217.785,339.644z"/>
			
				<linearGradient id="SVGID_00000138558709632898725980000002772715130376724364_" gradientUnits="userSpaceOnUse" x1="212.8632" y1="-16148.0674" x2="265.427" y2="-16263.4902" gradientTransform="matrix(1 0 0 -1 0 -15882)">
				<stop  offset="0" style="stop-color:#4C86D3"/>
				<stop  offset="1" style="stop-color:#6C9AD3"/>
			</linearGradient>
			<path style="fill:url(#SVGID_00000138558709632898725980000002772715130376724364_);" d="M208.969,270.459
				c0,0-5.545,21.072-7.224,35.553c-1.679,14.482,30.179,60.137,30.179,60.137s8.196-0.531,12.085-5.489
				c0,0-16.169-43.384-20.667-51.184c1.54-3.359,7.28-14.812,11.278-25.429c3.997-10.617,10.131-30.075,1.392-34.596
				C227.273,244.93,212.774,252.185,208.969,270.459z"/>
			
				<linearGradient id="SVGID_00000093175089773470224400000010699368924291439001_" gradientUnits="userSpaceOnUse" x1="157.5807" y1="-16317.0186" x2="154.5029" y2="-16285.5918" gradientTransform="matrix(1 0 0 -1 0 -15882)">
				<stop  offset="0" style="stop-color:#4C86D3"/>
				<stop  offset="1" style="stop-color:#6C9AD3"/>
			</linearGradient>
			<path style="fill:url(#SVGID_00000093175089773470224400000010699368924291439001_);" d="M178.008,429.054
				c0,0-6.719-1.902-17.738-4.194c-3.296-0.687-13.217-2.609-13.217-2.609c-0.74,0.972-1.078,1.944-1.321,2.863
				c-0.211,0.718-0.338,1.405-0.56,2.029c5.071,1.637,0.528,5.758-0.116,5.768H131.83c-0.317-1.321-0.317-5.927,0.835-9.91
				c1.226-4.236,2.166-5.504,2.377-6.698c-0.021-3.624-0.329-11.114,0.431-12.308c0.179-0.296,0.729-0.475,1.49-0.549
				c0.418-0.083,4.424-1.023,10.099,1.728c12.766-0.24,33.134-0.482,33.134-0.482S180.755,412.024,178.008,429.054z"/>
			
				<linearGradient id="SVGID_00000088122067870173937630000007159377867711837074_" gradientUnits="userSpaceOnUse" x1="141.9346" y1="-16309.6904" x2="141.7207" y2="-16307.5059" gradientTransform="matrix(1 0 0 -1 0 -15882)">
				<stop  offset="0" style="stop-color:#4C86D3"/>
				<stop  offset="1" style="stop-color:#6C9AD3"/>
			</linearGradient>
			<path style="fill:url(#SVGID_00000088122067870173937630000007159377867711837074_);" d="M145.733,425.113
				c-0.211,0.718-0.338,1.405-0.56,2.029c0,0-4.457-0.939-7.297,0.47C137.876,427.612,139.791,424.971,145.733,425.113z"/>
		</g>
		<g>
			
				<linearGradient id="SVGID_00000082364686996392651950000009633000752861488023_" gradientUnits="userSpaceOnUse" x1="382.8312" y1="-16321.7666" x2="359.2568" y2="-16297.1143" gradientTransform="matrix(1 0 0 -1 0 -15882)">
				<stop  offset="0" style="stop-color:#A05735"/>
				<stop  offset="1" style="stop-color:#763E35"/>
			</linearGradient>
			<path style="fill:url(#SVGID_00000082364686996392651950000009633000752861488023_);" d="M341.193,429.329
				c0,0,4.666-8.944,9.508-14.402c4.842-5.458,11.797-7.079,15.935-5.583c3.478,0.968,4.245-2.012,7.836-2.069
				c5.348-0.084,7.236,3.17,10.617,5.261s7.374,3.083,9.06,6.361c2.377,4.622,2.695,12.81,2.695,12.81
				S354.267,434.545,341.193,429.329z"/>
			
				<linearGradient id="SVGID_00000156557515840237599090000017078775271688694966_" gradientUnits="userSpaceOnUse" x1="323.2378" y1="-16313.1865" x2="323.2378" y2="-16286.752" gradientTransform="matrix(1 0 0 -1 0 -15882)">
				<stop  offset="0" style="stop-color:#A05735"/>
				<stop  offset="1" style="stop-color:#763E35"/>
			</linearGradient>
			<path style="fill:url(#SVGID_00000156557515840237599090000017078775271688694966_);" d="M402.468,432.91H244.007
				c0,0,11.114-6.297,29.74-13.882c0.877-0.359,1.743-0.687,2.599-0.983c0.063-0.032,0.106-0.042,0.127-0.053
				c17.094-6.075,28.567-1.616,39.607,0.813c12.614,2.779,11.811-1.785,20.781,0c8.97,1.785,15.488-1.447,25.26-3.698
				c3.402-0.782,9.308,1.13,15.573,3.951l0.011,0.011C389.463,424.374,402.468,432.91,402.468,432.91z"/>
			
				<linearGradient id="SVGID_00000095318590963961350990000010204957588307358080_" gradientUnits="userSpaceOnUse" x1="323.2378" y1="-16316.833" x2="323.2378" y2="-16297.0244" gradientTransform="matrix(1 0 0 -1 0 -15882)">
				<stop  offset="0" style="stop-color:#A05735"/>
				<stop  offset="1" style="stop-color:#763E35"/>
			</linearGradient>
			<path style="opacity:0.25;fill:url(#SVGID_00000095318590963961350990000010204957588307358080_);" d="M402.468,432.91H244.007
				c0,0,11.114-6.297,29.74-13.882c0.877-0.359,1.743-0.687,2.599-0.983c-1.183,0.581-9.572,4.934-2.599,8.378
				c7.49,3.698,19.978-0.655,26.211,0c6.244,0.655,6.497,1.585,14.03,2.377c7.533,0.792,7.924-3.835,14.125-4.828
				c6.212-0.983,17.707,4.353,21.795,4.923c4.089,0.57,3.56-0.57,11.23,0c7.649,0.57,15.446-2.345,18.615-1.543
				c3.169,0.782,4.205-2.588-2.05-8.283C389.463,424.374,402.468,432.91,402.468,432.91z"/>
		</g>
		<g>
			<path style="fill:#FFFFFF;" d="M158.887,290.196c-1.127-0.737-2.936-2.016-5.372-0.553c-2.767,1.662-2.645,5.834,1.282,7.306
				C158.724,298.421,162.573,292.606,158.887,290.196z"/>
			<path style="fill:#FFFFFF;" d="M248.112,186.882c-1.127-0.737-2.936-2.016-5.372-0.554c-2.767,1.662-2.645,5.834,1.282,7.307
				C247.949,195.108,251.797,189.292,248.112,186.882z"/>
			<path style="fill:#FFFFFF;" d="M398.981,201.65c-0.833-0.545-2.17-1.491-3.971-0.409c-2.046,1.229-1.955,4.312,0.948,5.401
				C398.86,207.73,401.705,203.432,398.981,201.65z"/>
			<path style="fill:#FFFFFF;" d="M299.46,116.58c-0.453-0.296-1.179-0.81-2.158-0.222c-1.112,0.667-1.062,2.343,0.515,2.934
				C299.394,119.884,300.94,117.548,299.46,116.58z"/>
			<path style="fill:#FFFFFF;" d="M360.49,302.145c-0.453-0.296-1.179-0.81-2.158-0.222c-1.111,0.667-1.062,2.343,0.515,2.934
				C360.424,305.448,361.97,303.113,360.49,302.145z"/>
			<path style="fill:#FFFFFF;" d="M568.921,243.789c-0.453-0.296-1.179-0.81-2.158-0.222c-1.111,0.667-1.062,2.343,0.515,2.934
				C568.855,247.092,570.401,244.757,568.921,243.789z"/>
			<path style="fill:#FFFFFF;" d="M643.831,270.484c-0.833-0.545-2.17-1.49-3.971-0.409c-2.046,1.228-1.955,4.313,0.948,5.401
				C643.71,276.565,646.555,272.266,643.831,270.484z"/>
			<path style="fill:#FFFFFF;" d="M634.988,273.235c-0.571-0.374-1.489-1.022-2.724-0.281c-1.403,0.843-1.341,2.958,0.65,3.704
				C634.905,277.406,636.857,274.457,634.988,273.235z"/>
			<path style="fill:#FFFFFF;" d="M420.409,118.643c-0.833-0.545-2.17-1.491-3.971-0.409c-2.046,1.228-1.955,4.312,0.948,5.401
				C420.288,124.723,423.133,120.424,420.409,118.643z"/>
			<path style="fill:#FFFFFF;" d="M390.184,197.91c-0.457-0.299-1.191-0.818-2.18-0.225c-1.123,0.674-1.073,2.367,0.52,2.965
				C390.118,201.247,391.679,198.888,390.184,197.91z"/>
			<path style="fill:#FFFFFF;" d="M522.78,146.209c-0.833-0.544-2.17-1.49-3.971-0.409c-2.046,1.228-1.955,4.313,0.948,5.401
				C522.659,152.289,525.504,147.991,522.78,146.209z"/>
			<path style="fill:#FFFFFF;" d="M527.706,136.993c-0.488-0.319-1.272-0.873-2.327-0.24c-1.199,0.72-1.146,2.527,0.555,3.165
				C527.635,140.555,529.302,138.036,527.706,136.993z"/>
			<path style="fill:#FFFFFF;" d="M594.173,250.056c-1.369-0.895-3.566-2.449-6.525-0.672c-3.361,2.018-3.212,7.086,1.557,8.874
				C593.974,260.047,598.649,252.984,594.173,250.056z"/>
			<path style="fill:#FFFFFF;" d="M353.329,307.459c-1.369-0.895-3.566-2.449-6.525-0.672c-3.361,2.019-3.212,7.086,1.557,8.874
				C353.131,317.449,357.805,310.386,353.329,307.459z"/>
			<path style="fill:#FFFFFF;" d="M332.878,77.265c-0.772-0.505-2.011-1.381-3.679-0.379c-1.895,1.138-1.811,3.996,0.878,5.004
				C332.766,82.898,335.403,78.915,332.878,77.265z"/>
		</g>
		<g>
			
				<linearGradient id="SVGID_00000155148703233291898850000008016587773470732452_" gradientUnits="userSpaceOnUse" x1="57" y1="-16316.6113" x2="693" y2="-16316.6113" gradientTransform="matrix(1 0 0 -1 0 -15882)">
				<stop  offset="0" style="stop-color:#222227"/>
				<stop  offset="1" style="stop-color:#453F51"/>
			</linearGradient>
			<path style="fill:url(#SVGID_00000155148703233291898850000008016587773470732452_);" d="M691.135,436.476H58.864
				c-1.03,0-1.864-0.835-1.864-1.865l0,0c0-1.03,0.835-1.865,1.864-1.865h632.271c1.03,0,1.865,0.835,1.865,1.865l0,0
				C693,435.641,692.165,436.476,691.135,436.476z"/>
			
				<linearGradient id="SVGID_00000140735339360006737730000003190013076261652924_" gradientUnits="userSpaceOnUse" x1="405.4054" y1="-16329.082" x2="555.4254" y2="-16329.082" gradientTransform="matrix(1 0 0 -1 0 -15882)">
				<stop  offset="0" style="stop-color:#222227"/>
				<stop  offset="1" style="stop-color:#453F51"/>
			</linearGradient>
			<path style="fill:url(#SVGID_00000140735339360006737730000003190013076261652924_);" d="M553.561,448.946H407.27
				c-1.03,0-1.865-0.835-1.865-1.865l0,0c0-1.03,0.835-1.865,1.865-1.865h146.291c1.03,0,1.865,0.835,1.865,1.865l0,0
				C555.425,448.112,554.59,448.946,553.561,448.946z"/>
			
				<linearGradient id="SVGID_00000051346835108859209620000011765633488948176291_" gradientUnits="userSpaceOnUse" x1="288.0691" y1="-16329.082" x2="322.0095" y2="-16329.082" gradientTransform="matrix(1 0 0 -1 0 -15882)">
				<stop  offset="0" style="stop-color:#222227"/>
				<stop  offset="1" style="stop-color:#453F51"/>
			</linearGradient>
			<path style="fill:url(#SVGID_00000051346835108859209620000011765633488948176291_);" d="M320.145,448.946h-30.211
				c-1.03,0-1.865-0.835-1.865-1.865l0,0c0-1.03,0.835-1.865,1.865-1.865h30.211c1.03,0,1.865,0.835,1.865,1.865l0,0
				C322.009,448.112,321.175,448.946,320.145,448.946z"/>
		</g>
		<g>
			<g>
				
					<linearGradient id="SVGID_00000118381498946970402210000004554143525382841008_" gradientUnits="userSpaceOnUse" x1="465.7763" y1="-16281.9277" x2="456.8317" y2="-16264.0977" gradientTransform="matrix(1 0 0 -1 0 -15882)">
					<stop  offset="0" style="stop-color:#D1E43C"/>
					<stop  offset="1" style="stop-color:#89A627"/>
				</linearGradient>
				<path style="fill:url(#SVGID_00000118381498946970402210000004554143525382841008_);" d="M451.514,400.892
					c0,0-1.27-11.188,1.849-17.52c3.119-6.332,13.382-11.797,13.734-11.797c0.352,0,1.993,4.134-0.44,11.181
					c-2.433,7.047-13.339,17.42-12.965,21.124C454.067,407.583,451.746,404.58,451.514,400.892z"/>
				
					<linearGradient id="SVGID_00000116200719469735173160000017738785847561235092_" gradientUnits="userSpaceOnUse" x1="439.4399" y1="-16294.6846" x2="451.1064" y2="-16233.3604" gradientTransform="matrix(1 0 0 -1 0 -15882)">
					<stop  offset="0" style="stop-color:#D1E43C"/>
					<stop  offset="1" style="stop-color:#89A627"/>
				</linearGradient>
				<path style="fill:url(#SVGID_00000116200719469735173160000017738785847561235092_);" d="M451.949,420.595
					c0,0,1.986-9.269-1.393-17.318c-3.379-8.049-9.783-4.983-15.594-13.435c-3.141-4.568-3.153-10.026-3.5-14.196
					c-0.42-5.055-0.786-8.408-0.786-8.408s9.125,2.118,16.303,11.355c7.178,9.237,6.174,22.155,6.273,23.333
					c0.099,1.177,2.707,8.738,2.091,18.669H451.949z"/>
				
					<linearGradient id="SVGID_00000049902923216556841220000007273273833899923641_" gradientUnits="userSpaceOnUse" x1="448.4012" y1="-16299.4551" x2="451.4864" y2="-16286.7715" gradientTransform="matrix(1 0 0 -1 0 -15882)">
					<stop  offset="0" style="stop-color:#D1E43C"/>
					<stop  offset="1" style="stop-color:#89A627"/>
				</linearGradient>
				<path style="fill:url(#SVGID_00000049902923216556841220000007273273833899923641_);" d="M453.385,418.5c0,0,0.74-2.819,0-7.527
					c-1.189-7.56-5.679-10.499-6.141-9.839c-0.462,0.66-1.321,5.018,0,8.254c1.321,3.236,4.477,4.032,5.018,5.679
					c0.413,1.255-0.149,3.434-0.149,3.434H453.385z"/>
			</g>
			<g>
				
					<linearGradient id="SVGID_00000162348628323460273410000006056246128275451277_" gradientUnits="userSpaceOnUse" x1="434.3781" y1="-16316.8232" x2="495.2725" y2="-16302.1611" gradientTransform="matrix(1 0 0 -1 0 -15882)">
					<stop  offset="0" style="stop-color:#A05735"/>
					<stop  offset="1" style="stop-color:#763E35"/>
				</linearGradient>
				<path style="fill:url(#SVGID_00000162348628323460273410000006056246128275451277_);" d="M474.232,430.037
					c0.032,8.008-6.212,15.182-6.212,15.182h-25.503c-2.62-1.278-7.755-7.934-7.11-15.182c0.792-8.895,4.659-9.73,6.233-14.146
					c1.764-4.966,3.36,3.402,8.642,1.68c5.282-1.711,3.043,0.803,7.395,0.803c4.353,0,6.466-5.282,8.716-4.363
					c0.676,0.275,1.088,1.997,2.176,3.169c1.226,1.31,2.588,2.905,3.666,4.923C473.387,424.226,474.211,426.825,474.232,430.037z"/>
				
					<linearGradient id="SVGID_00000037689445908717872550000006935361551840486826_" gradientUnits="userSpaceOnUse" x1="463.5624" y1="-16330.0947" x2="453.1802" y2="-16309.3984" gradientTransform="matrix(1 0 0 -1 0 -15882)">
					<stop  offset="0" style="stop-color:#A05735"/>
					<stop  offset="1" style="stop-color:#763E35"/>
				</linearGradient>
				<path style="opacity:0.25;fill:url(#SVGID_00000037689445908717872550000006935361551840486826_);" d="M474.232,430.037
					c0.032,8.008-6.212,15.182-6.212,15.182h-25.503c-2.62-1.278-7.755-7.934-7.11-15.182c0,0,0.158,6.154,6.776,8.932
					c11.532,4.842,14.354-1.104,16.372-0.66c2.029,0.444,5.113-4.627,8.452-5.399c3.349-0.761,7.3-2.81,5.229-10.808
					C473.387,424.226,474.211,426.825,474.232,430.037z"/>
			</g>
		</g>
	</g>
</g>
</svg>
