<?xml version="1.0" encoding="utf-8"?>
<!-- Generator: Adobe Illustrator 27.5.0, SVG Export Plug-In . SVG Version: 6.00 Build 0)  -->
<svg version="1.1" xmlns="http://www.w3.org/2000/svg" xmlns:xlink="http://www.w3.org/1999/xlink" x="0px" y="0px"
	 viewBox="0 0 500 500" style="enable-background:new 0 0 500 500;" xml:space="preserve">
<g id="Pines">
	<g id="Pines_00000137094596308294015050000000363823640182962323_">
		<g id="Pine_00000019666824614308672100000016985410341535013519_">
			<path style="fill:#E0E0E0;" d="M431.837,212.711c8.379,6.184,46.781,5.333,55.429,0c0.762-3.346,0.374-10.799-0.821-20.597
				l-10.306,5.541l9.32-13.055c-1.359-9.499-3.256-20.463-5.482-31.695l-6.378,3.555l5.452-8.185
				c-0.433-2.106-0.866-4.212-1.314-6.319l-7.274,3.57l6.244-8.35c-1.852-8.484-3.824-16.803-5.811-24.436l-5.795,1.688
				c0,0,2.181-3.271,4.481-6.662c-2.031-7.513-4.063-14.19-5.975-19.477c-0.687-1.897-2.375-2.853-4.048-2.853
				c-1.688,0-3.376,0.956-4.063,2.853c-2.569,7.11-5.362,16.774-8.11,27.603l5.138,8.618l-5.96-5.272
				c-1.24,5.004-2.464,10.216-3.629,15.504l8.23,14.713l-9.918-6.931c-1.643,7.767-3.167,15.564-4.511,23.032l8.051,7.991
				l-8.932-2.868c-0.164,0.911-0.314,1.807-0.463,2.688l8.245,11.113l-9.216-5.048C431.941,195.34,430.776,208.051,431.837,212.711z
				"/>
			<path style="fill:#F0F0F0;" d="M457.52,177.047l-11.693-22.015l11.892,14.581l1.833-68.305l1.428,41.563l8.327-12.028
				l-8.069,19.534l1.447,42.098l15.866-14.627l-15.656,20.752l1.329,75.908c0,2.456-8.321,2.456-8.321,0L457.52,177.047
				L457.52,177.047z"/>
		</g>
		<g id="Pine_00000179624677833061155290000005288717757466895539_">
			<path style="fill:#E0E0E0;" d="M236.04,151.173c7.325,5.406,40.896,4.662,48.456,0c0.666-2.925,0.326-9.441-0.718-18.006
				l-9.01,4.844l8.148-11.413c-1.188-8.305-2.846-17.889-4.792-27.708l-5.576,3.108l4.766-7.155
				c-0.378-1.841-0.757-3.682-1.149-5.524l-6.359,3.121l5.458-7.299c-1.619-7.417-3.343-14.69-5.08-21.362l-5.066,1.476
				c0,0,1.906-2.86,3.917-5.824c-1.776-6.568-3.552-12.405-5.223-17.027c-0.601-1.658-2.076-2.494-3.539-2.494
				c-1.476,0-2.951,0.835-3.552,2.494c-2.246,6.215-4.687,14.664-7.09,24.13l4.492,7.534l-5.21-4.609
				c-1.084,4.374-2.154,8.931-3.173,13.554l7.195,12.862l-8.67-6.059c-1.436,6.79-2.768,13.606-3.943,20.135l7.038,6.986
				l-7.809-2.507c-0.143,0.797-0.274,1.58-0.405,2.35l7.208,9.715l-8.057-4.413C236.132,135.987,235.113,147.099,236.04,151.173z"/>
			<path style="fill:#F0F0F0;" d="M258.492,119.995L248.27,100.75l10.396,12.747l1.603-59.713l1.249,36.335l7.279-10.515
				l-7.054,17.077l1.265,36.803l13.87-12.787l-13.686,18.141l1.162,66.36c0,2.147-7.275,2.147-7.275,0L258.492,119.995
				L258.492,119.995z"/>
		</g>
		<g id="Pine_00000023987135450343743150000015484408876813980075_">
			<path style="fill:#E0E0E0;" d="M316.419,148.686c7.879,5.808,43.966,5,52.103,0c0.564-2.451,0.465-7.254-0.135-13.627
				l-9.374,3.394l8.712-9.374c-0.992-8.185-2.561-18.087-4.497-28.539l-5.294,2.206l4.607-5.845c-0.196-1.029-0.404-2.059-0.6-3.088
				l-12.597,6.409l10.894-14.839c-1.691-8.149-3.517-16.31-5.392-23.956l-8.186,6.837l7.083-11.2
				c-0.515-2.046-1.042-4.044-1.556-5.98l-7.242,3.933l5.931-8.7c-1.569-5.563-3.125-10.526-4.595-14.594
				c-0.637-1.777-2.23-2.671-3.811-2.671c-1.581,0-3.174,0.895-3.811,2.671c-2.206,6.103-4.583,14.19-6.948,23.295
				c2.059,4.779,3.688,8.516,3.688,8.516l-5.22-2.414c-0.576,2.316-1.14,4.693-1.703,7.095c2.475,7.585,5.563,17.094,5.563,17.29
				c-0.159-0.294-3.811-6.825-6.752-12.082C320.18,104.989,314.519,140.378,316.419,148.686z"/>
			<path style="fill:#F0F0F0;" d="M340.558,115.158l-10.991-20.694l11.179,13.706l1.723-64.207l1.343,39.069l7.827-11.306
				l-7.585,18.362l1.36,39.572l14.914-13.749l-14.716,19.507l1.249,81.784c0,2.308-7.822,2.308-7.822,0L340.558,115.158
				L340.558,115.158z"/>
		</g>
		<g id="Pine_00000173851752664271088530000013179320334755708603_">
			<path style="fill:#E0E0E0;" d="M69.184,149.337c7.15,5.282,39.908,4.548,47.291,0c0.4-1.768,0.434-4.904,0.145-9.04
				l-11.175,5.126l10.686-10.586c-0.634-5.949-1.679-13.165-3.013-20.982l-4.081,2.191l3.725-4.292
				c-0.767-4.415-1.624-8.996-2.546-13.633l-6.649,5.349l5.938-8.896c-0.189-0.967-0.389-1.935-0.589-2.891l-9.096,7.506
				l7.706-14.044c-1.423-6.494-2.924-12.876-4.426-18.837l-5.938,4.515c0.145-0.256,2.513-4.292,4.892-8.495
				c-1.957-7.439-3.925-14.033-5.76-19.114c-0.589-1.612-2.024-2.424-3.458-2.424c-1.445,0-2.88,0.812-3.469,2.424
				c-1.746,4.837-3.614,11.031-5.482,18.036v0.011l3.625,7.962l-4.325-5.293c-1.168,4.481-2.324,9.24-3.447,14.122l7.773,17.124
				L78.325,84.31c-0.144,0.667-0.3,1.346-0.434,2.024l3.736,8.84l-4.348-6.016c-1.579,7.461-3.036,14.967-4.281,22.061
				l10.775,12.988l-11.664-7.784c-0.267,1.634-0.523,3.247-0.767,4.815l5.471,6.049l-6.116-1.757
				C69.073,136.928,68.384,145.823,69.184,149.337z"/>
			<path style="opacity:0.15;" d="M69.184,149.337c7.15,5.282,39.908,4.548,47.291,0c0.4-1.768,0.434-4.904,0.145-9.04
				l-11.175,5.126l10.686-10.586c-0.634-5.949-1.679-13.165-3.013-20.982l-4.081,2.191l3.725-4.292
				c-0.767-4.415-1.624-8.996-2.546-13.633l-6.649,5.349l5.938-8.896c-0.189-0.967-0.389-1.935-0.589-2.891l-9.096,7.506
				l7.706-14.044c-1.423-6.494-2.924-12.876-4.426-18.837l-5.938,4.515c0.145-0.256,2.513-4.292,4.892-8.495
				c-1.957-7.439-3.925-14.033-5.76-19.114c-0.589-1.612-2.024-2.424-3.458-2.424c-1.445,0-2.88,0.812-3.469,2.424
				c-1.746,4.837-3.614,11.031-5.482,18.036v0.011l3.625,7.962l-4.325-5.293c-1.168,4.481-2.324,9.24-3.447,14.122l7.773,17.124
				L78.325,84.31c-0.144,0.667-0.3,1.346-0.434,2.024l3.736,8.84l-4.348-6.016c-1.579,7.461-3.036,14.967-4.281,22.061
				l10.775,12.988l-11.664-7.784c-0.267,1.634-0.523,3.247-0.767,4.815l5.471,6.049l-6.116-1.757
				C69.073,136.928,68.384,145.823,69.184,149.337z"/>
			<path style="fill:#E0E0E0;" d="M91.097,118.922l-9.974-18.778l10.144,12.437l1.564-58.263l1.218,35.453l7.103-10.26L94.27,96.173
				l1.234,35.909l13.533-12.476l-13.354,17.701l1.133,101.401c0,2.095-7.098,2.095-7.098,0L91.097,118.922L91.097,118.922z"/>
		</g>
		<g id="Pine_00000113317631593565651080000015733473272207910278_">
			<path style="fill:#E0E0E0;" d="M17.797,205.56c8.242,5.079,44.861,5.884,52.854,0c0.725-3.197,0.351-10.373-0.794-19.783
				l-10.362,4.421l9.557-10.611c-0.918-6.451-2.098-13.65-3.469-21.166l-6.349,2.778l5.929-5.022
				c-0.329-1.746-0.658-3.503-0.998-5.272l-10.6,6.111l9.523-11.541c-1.179-5.85-2.437-11.734-3.753-17.482l-5.467,2.939
				l4.467-7.695c-1.36-5.6-3.955-15.639-5.327-20.56l-5.567,4.422l4.705-7.46c-1.383-4.796-2.755-9.092-4.059-12.709
				c-0.658-1.803-2.256-2.71-3.866-2.71c-1.61,0-3.22,0.907-3.866,2.71c-1.995,5.51-4.126,12.618-6.247,20.622v0.012l4.32,9.818
				l-5.748-4.353c-1.496,5.907-2.97,12.165-4.399,18.559v0.011l7.244,18.276l-8.684-11.621c-0.51,2.437-1.02,4.886-1.519,7.324
				l5.17,10.147l-5.918-6.349c-1.417,7.233-2.698,14.33-3.775,20.951v0.011l11.825,18.57l-12.8-12.233
				c-0.306,1.995-0.578,3.934-0.828,5.793l8.922,10.952l-9.625-5.147C17.378,196.456,17.129,202.647,17.797,205.56z"/>
			<g>
				<path style="fill:#F0F0F0;" d="M30.494,160.267l11.094,15.706l1.165-33.892l-5.987-20.263l6.208,13.839l1.248-36.314
					l1.407,52.401l6.229-7.442l-6.045,14.318l0.799,29.739l12.882-12.811l-12.648,21.521l0.855,73.892c0,2.341-7.934,2.341-7.934,0
					l1.473-84.87L30.494,160.267z"/>
			</g>
		</g>
		<g id="Pine_00000060003525871765007030000007294339242856645792_">
			<path style="fill:#E0E0E0;" d="M169.982,140.081c7.106,4.369,38.635,5.069,45.518,0c0.618-2.737,0.314-8.82-0.649-16.818
				l-8.952,5.271l8.1-11.678c-0.923-6.417-2.139-13.655-3.568-21.147l-6.113,4.187l5.353-8.171
				c-0.173-0.852-0.334-1.693-0.507-2.544l-7.461,4.846l6.518-9.448c-1.338-6.448-2.778-12.895-4.268-19.008l-8.252,5.444
				l7.279-9.438c-0.415-1.653-0.831-3.264-1.247-4.846l-6.032,4.552l5.038-8.252c-1.592-5.819-3.173-10.989-4.663-15.115
				c-0.568-1.561-1.947-2.342-3.336-2.342c-1.379,0-2.768,0.781-3.325,2.342c-1.257,3.467-2.575,7.664-3.913,12.378v0.01l2.95,7.725
				l-3.639-4.957l-0.051-0.071c-1.977,7.198-3.974,15.379-5.829,23.803l4.765,16.971l-6.366-9.53
				c-1.206,5.799-2.332,11.608-3.335,17.183v0.01l6.924,23.205l-8.597-13.351C170.144,125.026,169.079,136.107,169.982,140.081z"/>
			<path style="opacity:0.15;" d="M169.982,140.081c7.106,4.369,38.635,5.069,45.518,0c0.618-2.737,0.314-8.82-0.649-16.818
				l-8.952,5.271l8.1-11.678c-0.923-6.417-2.139-13.655-3.568-21.147l-6.113,4.187l5.353-8.171
				c-0.173-0.852-0.334-1.693-0.507-2.544l-7.461,4.846l6.518-9.448c-1.338-6.448-2.778-12.895-4.268-19.008l-8.252,5.444
				l7.279-9.438c-0.415-1.653-0.831-3.264-1.247-4.846l-6.032,4.552l5.038-8.252c-1.592-5.819-3.173-10.989-4.663-15.115
				c-0.568-1.561-1.947-2.342-3.336-2.342c-1.379,0-2.768,0.781-3.325,2.342c-1.257,3.467-2.575,7.664-3.913,12.378v0.01l2.95,7.725
				l-3.639-4.957l-0.051-0.071c-1.977,7.198-3.974,15.379-5.829,23.803l4.765,16.971l-6.366-9.53
				c-1.206,5.799-2.332,11.608-3.335,17.183v0.01l6.924,23.205l-8.597-13.351C170.144,125.026,169.079,136.107,169.982,140.081z"/>
			<g>
				<path style="fill:#E0E0E0;" d="M180.92,101.073l9.555,13.526l1.003-29.19l-5.156-17.451l5.346,11.918l1.075-31.275l1.212,45.13
					l5.365-6.409l-5.206,12.332l0.688,25.612l11.094-11.034l-10.893,18.535l0.737,76.925c0,2.016-6.833,2.016-6.833,0l1.269-86.38
					L180.92,101.073z"/>
			</g>
		</g>
		<g id="Pine_00000050626420570367375010000016807831365114498200_">
			<path style="fill:#E0E0E0;" d="M386.714,158.212c7.849,4.826,42.671,5.598,50.274,0c0.683-3.023,0.347-9.741-0.717-18.575
				l-9.887,5.822l8.946-12.898c-1.019-7.088-2.362-15.082-3.941-23.356l-6.752,4.624l5.912-9.025c-0.19-0.941-0.369-1.87-0.56-2.81
				l-8.241,5.352l7.199-10.436c-1.478-7.121-3.068-14.242-4.714-20.994l-9.114,6.013l8.039-10.424
				c-0.459-1.825-0.918-3.605-1.377-5.352l-6.662,5.027l5.565-9.114c-1.758-6.427-3.505-12.137-5.151-16.694
				c-0.627-1.724-2.15-2.586-3.684-2.586c-1.523,0-3.057,0.862-3.672,2.586c-1.389,3.829-2.844,8.465-4.322,13.671v0.011
				l3.258,8.532l-4.019-5.475l-0.056-0.078c-2.184,7.95-4.389,16.986-6.438,26.29l5.263,18.743l-7.032-10.525
				c-1.332,6.405-2.575,12.821-3.683,18.979v0.011l7.647,25.63l-9.495-14.746C386.894,141.585,385.718,153.823,386.714,158.212z"/>
			<path style="opacity:0.15;" d="M386.714,158.212c7.849,4.826,42.671,5.598,50.274,0c0.683-3.023,0.347-9.741-0.717-18.575
				l-9.887,5.822l8.946-12.898c-1.019-7.088-2.362-15.082-3.941-23.356l-6.752,4.624l5.912-9.025c-0.19-0.941-0.369-1.87-0.56-2.81
				l-8.241,5.352l7.199-10.436c-1.478-7.121-3.068-14.242-4.714-20.994l-9.114,6.013l8.039-10.424
				c-0.459-1.825-0.918-3.605-1.377-5.352l-6.662,5.027l5.565-9.114c-1.758-6.427-3.505-12.137-5.151-16.694
				c-0.627-1.724-2.15-2.586-3.684-2.586c-1.523,0-3.057,0.862-3.672,2.586c-1.389,3.829-2.844,8.465-4.322,13.671v0.011
				l3.258,8.532l-4.019-5.475l-0.056-0.078c-2.184,7.95-4.389,16.986-6.438,26.29l5.263,18.743l-7.032-10.525
				c-1.332,6.405-2.575,12.821-3.683,18.979v0.011l7.647,25.63l-9.495-14.746C386.894,141.585,385.718,153.823,386.714,158.212z"/>
			<g>
				<path style="fill:#E0E0E0;" d="M398.796,115.129l10.553,14.939l1.108-32.239l-5.694-19.274l5.904,13.163l1.188-34.543
					l1.338,49.845l5.926-7.079l-5.75,13.62l0.76,28.288l12.253-12.187l-12.031,20.472l0.814,84.963c0,2.227-7.547,2.227-7.547,0
					l1.401-95.405L398.796,115.129z"/>
			</g>
		</g>
		<g id="Pine_00000083767961104151577910000010050079672465667746_">
			<path style="fill:#E0E0E0;" d="M282.022,152.581c6.78,4.162,36.835,4.828,43.393,0c0.269-1.192,0.363-3.063,0.269-5.471
				l-7.002,3.121l6.511-9.995c-0.409-4.138-1.064-9.001-1.894-14.309l-6.815,3.565l5.986-8.674c-0.14-0.842-0.292-1.695-0.444-2.56
				l-11.047,6.406l9.633-14.238c-1.484-7.856-3.203-16.027-5.003-23.801l-6.406,4.816l5.108-10.322
				c-0.245-0.994-0.491-1.964-0.725-2.934l-6.324,5.027l4.839-10.767c-1.765-6.698-3.542-12.649-5.202-17.243
				c-0.538-1.485-1.858-2.233-3.18-2.233c-1.321,0-2.642,0.748-3.18,2.233c-1.59,4.407-3.285,10.054-4.992,16.425l1.906,11.585
				l-3.647-4.84c-1.602,6.465-3.191,13.409-4.641,20.376l4.781,14.951l-6.161-8.171c-1.403,7.038-2.642,13.958-3.624,20.259
				l2.771,6.78l-3.472-2.104c-0.245,1.672-0.467,3.297-0.654,4.84l6.044,10.053l-6.581-5.319
				C281.648,145.941,281.519,150.395,282.022,152.581z"/>
			<path style="opacity:0.15;" d="M282.022,152.581c6.78,4.162,36.835,4.828,43.393,0c0.269-1.192,0.363-3.063,0.269-5.471
				l-7.002,3.121l6.511-9.995c-0.409-4.138-1.064-9.001-1.894-14.309l-6.815,3.565l5.986-8.674c-0.14-0.842-0.292-1.695-0.444-2.56
				l-11.047,6.406l9.633-14.238c-1.484-7.856-3.203-16.027-5.003-23.801l-6.406,4.816l5.108-10.322
				c-0.245-0.994-0.491-1.964-0.725-2.934l-6.324,5.027l4.839-10.767c-1.765-6.698-3.542-12.649-5.202-17.243
				c-0.538-1.485-1.858-2.233-3.18-2.233c-1.321,0-2.642,0.748-3.18,2.233c-1.59,4.407-3.285,10.054-4.992,16.425l1.906,11.585
				l-3.647-4.84c-1.602,6.465-3.191,13.409-4.641,20.376l4.781,14.951l-6.161-8.171c-1.403,7.038-2.642,13.958-3.624,20.259
				l2.771,6.78l-3.472-2.104c-0.245,1.672-0.467,3.297-0.654,4.84l6.044,10.053l-6.581-5.319
				C281.648,145.941,281.519,150.395,282.022,152.581z"/>
			<path style="fill:#E0E0E0;" d="M305.31,124.664l9.152-17.23l-9.308,11.411l-1.435-53.459l-1.118,32.53l-6.517-9.414l6.315,15.288
				l-1.133,32.948l-12.418-11.448l12.253,16.242l-1.04,69.336c0,1.922,6.512,1.922,6.512,0L305.31,124.664L305.31,124.664z"/>
		</g>
		<g id="Pine_00000148623601090933311450000007811636736155583147_">
			<path style="fill:#E0E0E0;" d="M134.06,153.231c6.482,4.001,35.258,4.631,41.54,0c0.48-2.101,0.35-6.392-0.23-12.083l-6.441,1.23
				l6.001-5.191c-0.28-2.21-0.6-4.571-0.971-7.042l-11.943,4.771l11.373-8.422c-1.21-7.592-2.781-16.044-4.551-24.476l-9.232,7.382
				l8.382-11.413c-0.73-3.371-1.49-6.721-2.261-9.982l-7.502,4.691l6.612-8.432c-0.72-2.921-1.44-5.751-2.16-8.452l-4.451,4.871
				l2.951-10.302c-1.13-3.921-2.241-7.442-3.301-10.372c-0.52-1.431-1.78-2.141-3.041-2.141c-1.27,0-2.531,0.71-3.041,2.141
				c-1.77,4.891-3.681,11.383-5.571,18.694v0.01l3.371,7.231l-4.421-3.061c-1.41,5.691-2.791,11.733-4.081,17.824v0.01l6.782,14.003
				l-7.882-8.632c-0.59,2.931-1.16,5.841-1.68,8.702l4.381,6.582l-5.051-2.951c-1.09,6.141-2.011,11.953-2.681,17.054v0.01
				l7.042,11.163l-7.832-4.221C133.69,147.48,133.62,151.29,134.06,153.231z"/>
			<path style="fill:#F0F0F0;" d="M156.355,126.51l8.762-16.496l-8.911,10.926l-1.374-51.183l-1.07,31.145l-6.24-9.013l6.046,14.638
				l-1.084,31.546l-11.889-10.96l11.731,15.55l-0.996,75.318c0,1.84,6.235,1.84,6.235,0L156.355,126.51L156.355,126.51z"/>
		</g>
	</g>
</g>
<g id="Bushes">
	<g id="Bush_00000158716000364942113340000001417941877191444652_">
		<path style="fill:#EBEBEB;" d="M477.246,290.519c6.613-4.713,6.565-16.93-1.837-19.55c5.8-5.81,4.045-18.323-4.362-19.096
			c2.057-5.134,1.045-12.163-5.549-13.459c2.089-6.295-3.736-10.66-9.577-8.399c-0.255-6.635-9.652-7.016-11.768-2.346
			c0.114-2.569-3.732-7.326-6.199-7.336c4.261-3.335,3.083-10.018-0.572-10.907c4.972-3.772,2.309-12.379-3.63-12.297
			c3.983-6.276-4.512-12.833-9.789-10.899c2.989-7.056-10.977-12.668-14-5.193c0.119-0.295-1.172-1.523-1.385-1.727
			c-0.542-0.519-1.153-0.964-1.808-1.331c-1.337-0.75-2.844-1.164-4.365-1.314c-3.15-0.309-6.463,0.473-9.135,2.172
			c-1.414,0.899-2.667,2.082-3.529,3.527c-0.417,0.701-0.739,1.457-0.946,2.247c-0.289,1.106,0.011,2.175-0.29,3.254
			c-1.773-0.46-3.723-0.2-5.314,0.709c-1.591,0.909-2.804,2.456-3.309,4.218c-0.491-1.676-1.046-3.356-1.974-4.837
			c-0.786-1.255-1.839-2.303-3.156-2.99c-1.407-0.735-2.609-1.635-4.306-1.528c5.069-6.51-5.213-14.076-10.678-8.912
			c-2.541-5.975-11.621-4.717-11.023,2.289c-2.017-3.65-5.973-3.392-9.221-1.441c-4.484,2.693-3.883,7.49-1.417,11.375
			c-1.862-2.222-7.538-3.446-8.401,0.232c-1.295-1.956-4.634-2.442-6.404-0.73c-2.227-8-13.535-1.712-11.58,1.308
			c-2.288-3.537-7.97-4.171-10.982-1.225c1.516-4.132-2.118-9.225-6.519-9.135c0.285-3.146-0.864-6.54-3.433-8.378
			c-2.569-1.838-6.583-1.637-8.548,0.836c-1.571-3.005-5.571-4.465-8.708-3.18c-3.137,1.286-4.962,5.133-3.973,8.376
			c-1.424-3.162-6.256-4.055-8.715-1.61c-1.219-2.837-3.408-5.422-6.358-6.332c-2.95-0.911-6.633,0.32-7.83,3.166
			c-0.503-2.928-4.643-4.441-6.916-2.527c0.543-3.285-1.948-6.636-5.159-7.513c-3.212-0.877-6.788,0.478-9.019,2.949
			c-2.231,2.471-3.218,5.891-3.206,9.221c-1.545-2.569-5.539-3.195-7.797-1.222c1.252-1.094-2.805-4.036-3.551-4.249
			c-2.263-0.648-5.08,0.386-6.725,1.947c-1.846,1.752-2.718,4.472-2.235,6.971c-2.022-0.7-4.334-0.513-6.218,0.502
			c-1.884,1.015-3.312,2.843-3.84,4.916c-1.837-1.89-4.606-2.827-7.213-2.441s-4.986,2.085-6.196,4.426
			c0.542-1.048-3.555-2.077-4.092-2.043c-1.603,0.102-3.32,0.958-4.145,2.362c-0.246-1.919-1.547-3.669-3.314-4.458
			c-1.767-0.789-3.938-0.59-5.532,0.508c0.275-1.65-0.413-3.426-1.727-4.461c-2.498-1.968-5.937-0.762-7.38,1.851
			c0.598-7.006-8.482-8.264-11.024-2.289c-5.465-5.164-15.748,2.402-10.678,8.912c-1.697-0.107-2.899,0.793-4.306,1.528
			c-1.317,0.688-2.37,1.735-3.157,2.99c-0.928,1.48-1.483,3.16-1.974,4.837c-0.504-1.762-1.718-3.309-3.308-4.218
			c-1.591-0.909-3.54-1.169-5.313-0.709c-0.302-1.078-0.001-2.148-0.29-3.254c-0.206-0.79-0.528-1.546-0.946-2.247
			c-0.861-1.446-2.115-2.628-3.529-3.527c-2.672-1.699-5.985-2.481-9.135-2.172c-1.52,0.149-3.028,0.564-4.365,1.314
			c-0.654,0.367-1.265,0.811-1.808,1.331c-0.213,0.204-1.505,1.431-1.385,1.727c-3.023-7.475-16.989-1.863-14,5.193
			c-5.278-1.934-13.773,4.623-9.789,10.899c-5.939-0.083-8.602,8.525-3.63,12.297c-3.655,0.889-4.833,7.572-0.572,10.907
			c-2.467,0.01-6.313,4.767-6.199,7.336c-2.116-4.671-11.513-4.289-11.768,2.346c-5.841-2.26-11.666,2.104-9.577,8.399
			c-6.594,1.296-7.605,8.324-5.549,13.459c-8.406,0.773-10.161,13.286-4.361,19.096c-8.402,2.62-8.451,14.837-1.837,19.55
			c-4.378,2.09-4.812,12.247,2.323,15.052c-0.184,0.164-0.36,0.336-0.528,0.515c-4.2,4.484-0.689,11.87,5.454,11.87h215.726h7.405
			h215.726c6.144,0,9.654-7.386,5.454-11.87c-0.168-0.179-0.343-0.351-0.528-0.515C482.058,302.766,481.623,292.609,477.246,290.519
			z"/>
		<g id="Bush_00000083777465774714846130000014712314343240400537_">
			<g>
				<path style="fill:#E0E0E0;" d="M85.668,201.02c2.467-2.779,6.722-3.032,9.501-0.566c0.503,0.446,0.911,0.954,1.242,1.497
					c1.391-1.155,3.235-1.755,5.168-1.503c2.949,0.385,5.19,2.611,5.728,5.363c-1.252-1.479-3.028-2.529-5.106-2.8
					c-3.489-0.456-6.741,1.401-8.208,4.389c-0.031-0.373-0.01-0.759,0.041-1.151c0.124-0.95,0.444-1.826,0.908-2.597
					c-0.212-0.255-0.44-0.501-0.697-0.729c-2.631-2.336-6.366-2.624-9.257-0.975C85.171,201.624,85.405,201.316,85.668,201.02z"/>
				<path style="fill:#E0E0E0;" d="M155.669,189.423c-1.903-2.143-5.184-2.339-7.328-0.436c-0.387,0.344-0.702,0.736-0.958,1.155
					c-1.073-0.891-2.495-1.354-3.986-1.159c-2.275,0.297-4.003,2.014-4.417,4.136c0.965-1.141,2.336-1.95,3.938-2.16
					c2.691-0.352,5.199,1.081,6.331,3.385c0.024-0.287,0.008-0.585-0.032-0.887c-0.096-0.733-0.342-1.408-0.701-2.003
					c0.164-0.197,0.339-0.387,0.538-0.562c2.029-1.801,4.91-2.024,7.139-0.752C156.051,189.889,155.871,189.652,155.669,189.423z"/>
				<path style="fill:#E0E0E0;" d="M76.272,227.133c-0.768-1.052-4.177-0.631-5.271-0.425c-1.945,0.366-3.736,1.571-4.813,3.229
					c-1.212,1.867-1.514,4.296-0.794,6.403c-2.209-0.509-4.678,0.377-6.06,2.174c-1.382,1.797-1.603,4.411-0.543,6.415
					c-4.334-0.974-10.992-0.215-14.381,3.066c-1.859,1.8-2.57,4.896-1.163,7.069c-0.262-0.404-3.674-0.444-6.483,1.298
					c-1.725,1.069-2.797,3.095-2.899,5.13c-0.115,2.279,0.941,5.361,1.994,6.461c-0.224-0.431-2.852,1.4-3.087,1.618
					c-0.828,0.766-1.524,1.794-1.846,2.885c-0.597,2.017,0.983,4.436,3.144,4.497c-1.705,0.757-3.322,1.847-4.339,3.411
					c-1.017,1.565-1.337,3.662-0.481,5.32c1.128,2.185,3.793,2.99,6.18,3.584c-1.443,1.629-2.246,3.93-1.698,6.036
					c0.549,2.106,2.652,3.819,4.811,3.548c-2.299,1.451-3.493,4.454-2.818,7.088c0.675,2.633,3.166,4.692,5.879,4.859
					c-1.205-0.074-2.116,2.438-2.421,3.234c-0.552,1.44-1.307,2.469-2.029,3.925h-6.013c-6.144,0-9.654-7.387-5.454-11.87
					c0.167-0.179,0.343-0.351,0.528-0.515c-7.134-2.805-6.7-12.962-2.323-15.052c-6.613-4.713-6.565-16.93,1.838-19.55
					c-5.8-5.81-4.045-18.323,4.361-19.096c-2.057-5.135-1.045-12.163,5.549-13.459c-2.089-6.295,3.736-10.659,9.578-8.399
					c0.255-6.635,9.652-7.016,11.768-2.345c-0.114-2.569,3.733-7.326,6.199-7.336c-4.261-3.335-3.083-10.018,0.572-10.907
					c-4.972-3.772-2.309-12.379,3.63-12.297c-3.163-4.984,1.542-10.14,6.257-11.086c-1.711,1.903-3.268,4.445-2.023,7.071
					c1.114,2.349,4.137,2.759,6.141,3.745c-4.763,1.608-6.947,6.388-3.405,10.579c-4.85,0.611-5.477,7.062-3.535,9.678
					c1.196-1.037,3.671-1.267,5.479-0.924c2.435,0.463,3.747,1.693,5.936,4.137C77.913,216.995,73.531,223.376,76.272,227.133z"/>
			</g>
		</g>
		<g>
			<path style="fill:#E0E0E0;" d="M303.709,196.699c-2.467-2.779-6.722-3.032-9.501-0.566c-0.502,0.446-0.911,0.954-1.242,1.497
				c-1.391-1.155-3.235-1.755-5.168-1.503c-2.95,0.385-5.19,2.612-5.728,5.363c1.252-1.479,3.028-2.529,5.106-2.8
				c3.489-0.456,6.741,1.401,8.208,4.389c0.031-0.373,0.01-0.759-0.041-1.151c-0.124-0.95-0.444-1.825-0.908-2.597
				c0.212-0.255,0.44-0.501,0.697-0.729c2.631-2.336,6.366-2.624,9.257-0.975C304.205,197.303,303.971,196.995,303.709,196.699z"/>
			<path style="fill:#E0E0E0;" d="M345.467,189.423c1.903-2.143,5.185-2.339,7.328-0.436c0.387,0.344,0.702,0.736,0.958,1.155
				c1.073-0.891,2.495-1.354,3.986-1.159c2.275,0.297,4.003,2.014,4.418,4.136c-0.966-1.141-2.336-1.95-3.938-2.16
				c-2.691-0.352-5.199,1.081-6.331,3.385c-0.024-0.287-0.008-0.585,0.032-0.887c0.096-0.733,0.342-1.408,0.701-2.003
				c-0.164-0.197-0.339-0.387-0.538-0.562c-2.029-1.801-4.91-2.024-7.139-0.752C345.085,189.889,345.265,189.652,345.467,189.423z"
				/>
			<path style="fill:#E0E0E0;" d="M171.788,193.766c2.251-1.774,5.516-1.386,7.29,0.865c0.32,0.407,0.561,0.848,0.739,1.306
				c1.213-0.687,2.695-0.892,4.128-0.437c2.186,0.694,3.584,2.689,3.618,4.851c-0.749-1.293-1.955-2.332-3.495-2.821
				c-2.586-0.821-5.308,0.146-6.829,2.214c0.027-0.287,0.096-0.577,0.188-0.868c0.224-0.704,0.586-1.325,1.043-1.847
				c-0.126-0.223-0.266-0.44-0.43-0.648c-1.679-2.131-4.475-2.859-6.894-2.001C171.329,194.157,171.548,193.955,171.788,193.766z"/>
			<path style="fill:#E0E0E0;" d="M260.094,183.492c-1.902-2.143-5.184-2.339-7.328-0.436c-0.387,0.344-0.702,0.736-0.958,1.155
				c-1.073-0.891-2.495-1.354-3.986-1.159c-2.275,0.297-4.003,2.014-4.417,4.136c0.965-1.141,2.336-1.95,3.938-2.16
				c2.691-0.352,5.199,1.081,6.331,3.385c0.024-0.287,0.008-0.585-0.032-0.887c-0.096-0.732-0.342-1.408-0.701-2.003
				c0.164-0.197,0.339-0.386,0.537-0.562c2.029-1.801,4.91-2.024,7.139-0.752C260.477,183.957,260.297,183.72,260.094,183.492z"/>
			<path style="fill:#E0E0E0;" d="M424.864,227.133c0.767-1.052,4.177-0.631,5.27-0.425c1.945,0.366,3.736,1.571,4.813,3.229
				c1.212,1.867,1.514,4.296,0.794,6.403c2.209-0.509,4.678,0.377,6.06,2.174c1.382,1.797,1.603,4.411,0.543,6.415
				c4.335-0.974,10.992-0.215,14.381,3.066c1.859,1.8,2.57,4.896,1.163,7.069c0.262-0.404,3.674-0.444,6.483,1.298
				c1.725,1.069,2.797,3.095,2.899,5.13c0.115,2.279-0.942,5.361-1.994,6.461c0.224-0.431,2.852,1.4,3.087,1.618
				c0.828,0.766,1.524,1.794,1.846,2.885c0.597,2.017-0.983,4.436-3.144,4.497c1.705,0.757,3.322,1.847,4.339,3.411
				c1.017,1.565,1.337,3.662,0.481,5.32c-1.128,2.185-3.793,2.99-6.18,3.584c1.443,1.629,2.246,3.93,1.698,6.036
				c-0.549,2.106-2.652,3.819-4.811,3.548c2.299,1.451,3.493,4.454,2.818,7.088c-0.675,2.633-3.166,4.692-5.879,4.859
				c1.205-0.074,2.116,2.438,2.421,3.234c0.552,1.44,1.307,2.469,2.029,3.925h6.013c6.144,0,9.654-7.387,5.454-11.87
				c-0.167-0.179-0.344-0.351-0.528-0.515c7.134-2.805,6.7-12.962,2.323-15.052c6.613-4.713,6.565-16.93-1.837-19.55
				c5.8-5.81,4.045-18.323-4.361-19.096c2.057-5.135,1.045-12.163-5.549-13.459c2.089-6.295-3.736-10.659-9.578-8.399
				c-0.255-6.635-9.652-7.016-11.767-2.345c0.114-2.569-3.733-7.326-6.199-7.336c4.261-3.335,3.083-10.018-0.572-10.907
				c4.972-3.772,2.309-12.379-3.63-12.297c3.163-4.984-1.542-10.14-6.257-11.086c1.711,1.903,3.268,4.445,2.023,7.071
				c-1.114,2.349-4.137,2.759-6.141,3.745c4.763,1.608,6.947,6.388,3.405,10.579c4.851,0.611,5.477,7.062,3.535,9.678
				c-1.196-1.037-3.672-1.267-5.479-0.924c-2.435,0.463-3.747,1.693-5.936,4.137C423.223,216.995,427.605,223.376,424.864,227.133z"
				/>
		</g>
	</g>
</g>
<g id="Floor">
	<g id="Floor_00000097476110896288712810000014136901216306139556_">
		<g>
			<path id="Floor_00000011013292244205160370000003593640303413566879_" style="fill:#BA68C8;" d="M87.307,248.918
				c-89.483,51.663-89.481,135.426,0.005,187.089c89.486,51.663,234.568,51.663,324.051,0
				c89.483-51.663,89.481-135.426-0.005-187.089C321.873,197.255,176.79,197.255,87.307,248.918z"/>
			<path id="Floor_00000008121049266385848710000004079764175832380075_" style="opacity:0.7;fill:#FFFFFF;" d="M87.307,248.918
				c-89.483,51.663-89.481,135.426,0.005,187.089c89.486,51.663,234.568,51.663,324.051,0
				c89.483-51.663,89.481-135.426-0.005-187.089C321.873,197.255,176.79,197.255,87.307,248.918z"/>
		</g>
		<g style="opacity:0.4;">
			<g>
				<path style="fill:#BA68C8;" d="M139.403,422.316c-0.272-0.835-0.63-1.668-1.174-2.363c-0.332-0.424-0.712-0.817-1.12-1.169
					c-0.263-0.227-0.661-0.603-1.033-0.501c-0.111,0.03-0.103,0.239-0.05,0.31c0.247,0.327,0.609,0.545,0.829,0.897
					c0.183,0.294,0.28,0.638,0.398,0.961c0.312,0.856,0.618,1.725,0.793,2.621c0.161,0.824,0.284,1.644,0.336,2.483
					c0.026,0.416,0.057,0.819,0.105,1.234c0.048,0.411,0.154,0.732,0.282,1.123c0.042,0.128,0.259,0.353,0.402,0.2
					c0.73-0.785,0.782-1.979,0.745-3.004C139.881,424.157,139.697,423.219,139.403,422.316z"/>
				<path style="fill:#BA68C8;" d="M142.458,409.613c-1.767,2.179-1.78,5.338-1.801,8.026c-0.012,1.617-0.007,3.24,0.052,4.856
					c0.062,1.665-0.091,3.597,0.44,5.185c0.061,0.181,0.432,0.549,0.556,0.209c0.518-1.416,0.326-3.296,0.352-4.795
					c0.028-1.592-0.012-3.185-0.01-4.777c0.001-1.441,0.051-2.879,0.215-4.311c0.155-1.349,0.462-2.673,0.628-4.02
					C142.911,409.824,142.637,409.392,142.458,409.613z"/>
				<path style="fill:#BA68C8;" d="M146.582,418.208c-0.912,0.175-1.577,1.217-1.984,1.986c-0.365,0.689-0.617,1.453-0.804,2.207
					c-0.213,0.862-0.324,1.747-0.392,2.631c-0.074,0.961-0.267,2.004,0.378,2.803c0.075,0.093,0.29,0.214,0.408,0.115
					c0.682-0.575,0.512-1.697,0.571-2.507c0.066-0.894,0.181-1.782,0.374-2.658c0.166-0.754,0.429-1.463,0.732-2.172
					c0.292-0.683,0.789-1.319,0.911-2.061C146.794,418.442,146.753,418.175,146.582,418.208z"/>
			</g>
			<g>
				<path style="fill:#BA68C8;" d="M350.746,421.929c-0.241-0.741-0.559-1.481-1.043-2.099c-0.295-0.376-0.632-0.726-0.994-1.038
					c-0.233-0.201-0.587-0.536-0.917-0.445c-0.099,0.027-0.092,0.212-0.045,0.275c0.219,0.291,0.541,0.484,0.736,0.797
					c0.163,0.261,0.249,0.567,0.354,0.853c0.277,0.76,0.549,1.532,0.704,2.328c0.143,0.732,0.252,1.46,0.299,2.205
					c0.023,0.369,0.051,0.727,0.093,1.096c0.042,0.365,0.137,0.65,0.251,0.997c0.037,0.114,0.23,0.314,0.357,0.177
					c0.648-0.697,0.695-1.758,0.662-2.668C351.171,423.563,351.008,422.731,350.746,421.929z"/>
				<path style="fill:#BA68C8;" d="M353.459,410.648c-1.57,1.935-1.581,4.74-1.6,7.128c-0.011,1.436-0.007,2.878,0.047,4.312
					c0.055,1.479-0.081,3.195,0.391,4.604c0.054,0.161,0.383,0.487,0.494,0.185c0.46-1.257,0.289-2.927,0.313-4.258
					c0.025-1.414-0.01-2.828-0.009-4.243c0.001-1.279,0.046-2.557,0.191-3.829c0.138-1.198,0.41-2.374,0.558-3.57
					C353.862,410.835,353.619,410.452,353.459,410.648z"/>
				<path style="fill:#BA68C8;" d="M357.122,418.281c-0.81,0.155-1.4,1.081-1.762,1.764c-0.324,0.612-0.548,1.29-0.714,1.96
					c-0.189,0.766-0.288,1.552-0.349,2.337c-0.066,0.853-0.237,1.779,0.336,2.489c0.066,0.082,0.258,0.19,0.362,0.102
					c0.605-0.51,0.454-1.507,0.507-2.226c0.059-0.794,0.16-1.583,0.332-2.361c0.148-0.67,0.381-1.299,0.65-1.929
					c0.259-0.607,0.7-1.172,0.809-1.831C357.31,418.488,357.273,418.252,357.122,418.281z"/>
			</g>
			<g>
				<path style="fill:#BA68C8;" d="M262.41,444.941c0.246-0.755,0.569-1.508,1.062-2.137c0.3-0.383,0.644-0.739,1.012-1.057
					c0.238-0.205,0.598-0.545,0.934-0.453c0.1,0.028,0.093,0.216,0.045,0.28c-0.223,0.296-0.551,0.492-0.75,0.811
					c-0.166,0.266-0.253,0.577-0.36,0.869c-0.283,0.774-0.559,1.56-0.717,2.37c-0.146,0.745-0.257,1.487-0.304,2.245
					c-0.023,0.376-0.052,0.741-0.095,1.116c-0.043,0.372-0.139,0.662-0.255,1.015c-0.038,0.116-0.234,0.319-0.363,0.181
					c-0.66-0.709-0.707-1.79-0.674-2.717C261.978,446.606,262.144,445.758,262.41,444.941z"/>
				<path style="fill:#BA68C8;" d="M259.648,433.456c1.598,1.97,1.609,4.827,1.629,7.258c0.011,1.462,0.007,2.93-0.047,4.391
					c-0.056,1.506,0.082,3.253-0.398,4.688c-0.055,0.163-0.39,0.496-0.503,0.189c-0.469-1.28-0.294-2.98-0.318-4.335
					c-0.026-1.44,0.011-2.88,0.009-4.32c-0.001-1.302-0.046-2.604-0.195-3.898c-0.14-1.22-0.418-2.417-0.568-3.634
					C259.238,433.645,259.486,433.255,259.648,433.456z"/>
				<path style="fill:#BA68C8;" d="M255.918,441.227c0.825,0.158,1.426,1.101,1.794,1.796c0.33,0.623,0.558,1.314,0.727,1.996
					c0.193,0.78,0.293,1.58,0.355,2.379c0.067,0.869,0.242,1.812-0.342,2.535c-0.068,0.084-0.262,0.193-0.369,0.104
					c-0.616-0.519-0.462-1.535-0.517-2.267c-0.06-0.808-0.163-1.611-0.338-2.404c-0.15-0.682-0.388-1.323-0.662-1.964
					c-0.264-0.618-0.713-1.193-0.824-1.864C255.727,441.438,255.764,441.197,255.918,441.227z"/>
			</g>
			<g>
				<path style="fill:#BA68C8;" d="M48.35,325.096c0.231-0.711,0.536-1.42,1-2.012c0.282-0.361,0.606-0.695,0.953-0.995
					c0.224-0.193,0.563-0.513,0.879-0.426c0.095,0.026,0.088,0.204,0.043,0.264c-0.21,0.279-0.519,0.464-0.706,0.764
					c-0.156,0.25-0.239,0.543-0.339,0.818c-0.266,0.729-0.526,1.469-0.675,2.232c-0.137,0.702-0.242,1.4-0.286,2.114
					c-0.022,0.354-0.049,0.697-0.089,1.05c-0.041,0.35-0.131,0.623-0.24,0.956c-0.036,0.109-0.22,0.301-0.342,0.17
					c-0.621-0.668-0.666-1.685-0.634-2.558C47.943,326.663,48.099,325.865,48.35,325.096z"/>
				<path style="fill:#BA68C8;" d="M45.749,314.282c1.505,1.855,1.515,4.544,1.533,6.833c0.01,1.377,0.006,2.759-0.045,4.134
					c-0.052,1.418,0.077,3.062-0.375,4.414c-0.052,0.154-0.368,0.467-0.473,0.178c-0.441-1.205-0.277-2.806-0.3-4.082
					c-0.024-1.356,0.01-2.711,0.009-4.067c-0.001-1.226-0.044-2.451-0.183-3.67c-0.132-1.149-0.393-2.276-0.535-3.422
					C45.363,314.461,45.596,314.094,45.749,314.282z"/>
				<path style="fill:#BA68C8;" d="M42.238,321.599c0.776,0.149,1.342,1.036,1.689,1.691c0.311,0.586,0.526,1.237,0.684,1.879
					c0.181,0.734,0.276,1.487,0.334,2.24c0.063,0.818,0.228,1.706-0.322,2.387c-0.064,0.079-0.247,0.182-0.347,0.098
					c-0.58-0.489-0.435-1.445-0.486-2.134c-0.056-0.761-0.154-1.517-0.318-2.263c-0.141-0.642-0.366-1.246-0.623-1.849
					c-0.248-0.582-0.672-1.123-0.776-1.755C42.057,321.798,42.092,321.571,42.238,321.599z"/>
			</g>
			<g>
				<path style="fill:#BA68C8;" d="M203.934,393.878c-0.226-0.695-0.524-1.388-0.977-1.967c-0.276-0.353-0.593-0.68-0.932-0.973
					c-0.219-0.189-0.55-0.502-0.86-0.417c-0.092,0.025-0.086,0.199-0.042,0.258c0.205,0.273,0.507,0.453,0.69,0.747
					c0.152,0.245,0.233,0.531,0.331,0.8c0.26,0.713,0.514,1.436,0.66,2.182c0.134,0.686,0.236,1.369,0.28,2.068
					c0.021,0.346,0.048,0.682,0.088,1.027c0.04,0.342,0.128,0.609,0.235,0.935c0.035,0.107,0.215,0.294,0.334,0.166
					c0.607-0.653,0.651-1.648,0.62-2.501C204.332,395.41,204.179,394.629,203.934,393.878z"/>
				<path style="fill:#BA68C8;" d="M206.478,383.302c-1.471,1.814-1.482,4.444-1.499,6.683c-0.01,1.346-0.006,2.698,0.044,4.043
					c0.051,1.387-0.076,2.995,0.367,4.317c0.051,0.151,0.359,0.457,0.463,0.174c0.432-1.179,0.271-2.744,0.293-3.992
					c0.023-1.326-0.01-2.652-0.009-3.978c0.001-1.199,0.043-2.397,0.179-3.59c0.129-1.123,0.385-2.226,0.523-3.347
					C206.855,383.477,206.627,383.118,206.478,383.302z"/>
				<path style="fill:#BA68C8;" d="M209.912,390.457c-0.76,0.146-1.313,1.014-1.652,1.653c-0.304,0.574-0.514,1.21-0.669,1.838
					c-0.177,0.718-0.27,1.455-0.327,2.191c-0.062,0.8-0.223,1.668,0.315,2.334c0.062,0.077,0.242,0.178,0.339,0.095
					c0.567-0.478,0.426-1.413,0.476-2.087c0.055-0.745,0.15-1.484,0.311-2.213c0.138-0.628,0.358-1.218,0.609-1.808
					c0.243-0.569,0.657-1.099,0.759-1.716C210.088,390.652,210.053,390.43,209.912,390.457z"/>
			</g>
			<g>
				<path style="fill:#BA68C8;" d="M452.728,325.293c-0.251-0.772-0.582-1.542-1.086-2.185c-0.307-0.392-0.659-0.756-1.036-1.081
					c-0.243-0.21-0.611-0.558-0.955-0.463c-0.103,0.028-0.095,0.221-0.046,0.286c0.228,0.303,0.563,0.504,0.767,0.83
					c0.169,0.272,0.259,0.59,0.368,0.889c0.289,0.792,0.571,1.596,0.733,2.424c0.149,0.762,0.263,1.521,0.311,2.296
					c0.024,0.385,0.053,0.758,0.097,1.141c0.044,0.38,0.143,0.677,0.261,1.039c0.039,0.119,0.239,0.327,0.371,0.185
					c0.675-0.726,0.724-1.831,0.689-2.779C453.171,326.995,453,326.128,452.728,325.293z"/>
				<path style="fill:#BA68C8;" d="M455.554,313.545c-1.634,2.016-1.646,4.937-1.666,7.423c-0.012,1.495-0.007,2.997,0.048,4.491
					c0.057,1.54-0.084,3.327,0.407,4.795c0.056,0.167,0.399,0.508,0.514,0.193c0.479-1.309,0.301-3.048,0.326-4.434
					c0.026-1.473-0.011-2.945-0.01-4.419c0.001-1.332,0.047-2.663,0.199-3.987c0.143-1.248,0.427-2.472,0.581-3.717
					C455.973,313.739,455.72,313.34,455.554,313.545z"/>
				<path style="fill:#BA68C8;" d="M459.368,321.494c-0.844,0.162-1.458,1.126-1.835,1.836c-0.337,0.637-0.571,1.344-0.743,2.042
					c-0.197,0.797-0.3,1.616-0.363,2.434c-0.069,0.889-0.247,1.853,0.349,2.593c0.069,0.086,0.268,0.197,0.377,0.106
					c0.63-0.531,0.473-1.57,0.528-2.319c0.061-0.827,0.167-1.648,0.345-2.458c0.154-0.698,0.397-1.353,0.677-2.009
					c0.27-0.632,0.729-1.22,0.843-1.907C459.564,321.71,459.526,321.464,459.368,321.494z"/>
			</g>
		</g>
	</g>
</g>
<g id="Shadows">
	<path id="Shadow_00000004519160308850712190000016692739932243761550_" style="opacity:0.4;fill:#BA68C8;" d="M441.577,334.892
		c-19.901-11.49-50.652-12.891-73.206-4.21l-18.595-10.735c-4.245-2.451-11.327-2.706-15.737-0.567l-74.465,36.114
		c-4.41,2.139-4.546,5.894-0.301,8.345l10.269,5.929l-21.145,12.304c-4.236,2.465-4.23,6.487,0.015,8.938l17.145,9.898
		c4.245,2.451,11.191,2.451,15.436,0l21.243-12.264l10.382,5.994c4.245,2.451,11.023,2.185,15.063-0.592l24.532-16.862
		c2.087,1.803,4.502,3.517,7.26,5.11c22.672,13.09,59.43,13.09,82.102,0C464.249,369.204,464.249,347.981,441.577,334.892z"/>
	
		<ellipse id="Shadow_00000053523181077353858070000009847413702770380219_" style="opacity:0.4;fill:#BA68C8;" cx="107.392" cy="365.078" rx="58.055" ry="33.518"/>
</g>
<g id="Tree">
	<g id="Tree_1_">
		<g id="Soil_1_">
			<path style="fill:#B16668;" d="M272.838,329.516c-0.772-1.192-2.004-2.149-3.342-2.665c-2.341-0.903-4.937-0.762-7.442-0.602
				c0.627-7.09-6.525-11.785-12.929-11.785c-1.981,0-3.647,0.813-5.214,1.925c-2.069-1.992-3.802-3.477-7.104-4.832
				c-3.931-1.613-8.069-2.433-12.388-1.693c-4.596,0.787-8.822,3.542-11.396,7.431c-2.153-2.291-5.399-3.213-8.528-3.521
				c-2.734-0.269-5.613-0.115-8.031,1.189c-2.417,1.305-4.242,3.98-3.885,6.704c-3.165,0.254-6.535,0.954-8.714,3.262
				c-2.18,2.308-2.351,6.664,0.378,8.287c-2.889,0.269-4.358,4.053-3.272,6.744c1.214,3.008,4.195,4.667,7.131,5.407
				c1.836,0.463,3.642,0.754,5.542,0.609c0.432-0.033,2.881-0.195,5.048-1.319c2.123,3.577,7.632,4.513,10.818,1.839
				c1.421,3.379,4.641,5.938,8.254,6.558c3.613,0.62,7.502-0.718,9.968-3.431c2.492,3.269,6.778,5.074,10.858,4.573
				c4.08-0.502,7.801-3.291,9.428-7.066c3.523,2.747,7.845,2.721,11.753,0.914c1.866-0.863,3.452-2.361,4.468-4.143
				c0.232-0.406,1.634-5.313,1.212-5.212c1.786-0.426,3.605-0.865,5.172-1.82c1.568-0.956,2.871-2.53,3.024-4.36
				C273.736,331.437,273.416,330.41,272.838,329.516z"/>
			<path style="fill:#9A4A4D;" d="M212.715,329.535c-1.544-2.13-4.424-2.737-6.669-1.487c-1.358-1.622-3.402-2.659-5.689-2.659
				c-3.202,0-5.925,2.023-6.968,4.86c1.343-1.915,3.559-3.166,6.075-3.166c2.016,0,3.838,0.801,5.175,2.101
				c0.257,0.25,0.493,0.515,0.715,0.801c0.107-0.093,0.222-0.186,0.343-0.272c0.343-0.25,0.708-0.45,1.086-0.607
				c2.152-0.879,4.703-0.215,6.125,1.751c0.365,0.493,0.622,1.043,0.786,1.608C213.68,331.444,213.358,330.422,212.715,329.535z"/>
			<path style="fill:#9A4A4D;" d="M236.622,324.644c1.433-1.977,4.106-2.54,6.189-1.38c1.26-1.505,3.158-2.467,5.28-2.467
				c2.972,0,5.499,1.877,6.467,4.51c-1.247-1.778-3.303-2.939-5.638-2.939c-1.871,0-3.562,0.743-4.802,1.95
				c-0.239,0.232-0.458,0.478-0.663,0.743c-0.1-0.086-0.206-0.173-0.318-0.252c-0.318-0.232-0.657-0.418-1.008-0.564
				c-1.997-0.816-4.365-0.199-5.685,1.625c-0.338,0.457-0.577,0.968-0.73,1.492C235.726,326.415,236.024,325.466,236.622,324.644z"
				/>
			<path style="fill:#9A4A4D;" d="M221.219,338.463c1.433-1.977,4.106-2.54,6.189-1.38c1.26-1.506,3.158-2.468,5.28-2.468
				c2.972,0,5.499,1.877,6.467,4.511c-1.247-1.778-3.303-2.939-5.638-2.939c-1.87,0-3.562,0.743-4.802,1.95
				c-0.239,0.232-0.458,0.477-0.664,0.743c-0.1-0.086-0.206-0.172-0.318-0.252c-0.318-0.232-0.657-0.418-1.008-0.564
				c-1.997-0.816-4.365-0.199-5.685,1.625c-0.339,0.458-0.577,0.968-0.73,1.493C220.323,340.234,220.622,339.286,221.219,338.463z"
				/>
		</g>
		<g>
			<path style="fill:#BA68C8;" d="M243.861,168.05c2.873-6.789-2.668-15.514-2.118-21.493c-9.125,5.434-15.226,14.175-14.304,21.874
				c0.355,2.963,1.735,6.292,4.03,9.348C236.616,177.51,241.598,173.398,243.861,168.05z"/>
			<path style="fill:#BA68C8;" d="M189.056,242.688c-4.209-3.617-3.391-11.355-5.762-15.204c7.972,0.612,15.011,4.465,16.965,9.966
				c0.752,2.117,0.935,4.824,0.409,7.652C197.107,246.644,192.371,245.537,189.056,242.688z"/>
			<path style="fill:#BA68C8;" d="M265.369,233.275c4.687-2.973,4.993-10.747,7.894-14.214c-7.977-0.544-15.498,2.255-18.225,7.416
				c-1.049,1.986-1.621,4.639-1.508,7.514C256.831,236.029,261.677,235.617,265.369,233.275z"/>
			<path style="fill:#BA68C8;" d="M217.187,239.879c0.388-3.38-3.201-6.522-3.736-9.241c-3.333,3.594-4.897,8.259-3.486,11.548
				c0.543,1.266,1.587,2.56,3.002,3.614C215.21,245.011,216.881,242.541,217.187,239.879z"/>
			<g>
				<path style="fill:#37474F;" d="M237.382,155.534c-2.992,7.064-4.949,14.647-6.682,22.107c-1.772,7.628-2.949,15.379-3.881,23.15
					c-1.803,15.035-2.111,30.24-2.015,45.367c0.027,4.186,0.088,8.372,0.167,12.557c0.081,4.304-1.16,41.392-1.502,63.674
					c-0.031,2.011,5.257,2.181,5.218,0c-0.395-22.025-1.088-66.122-1.165-73.661c-0.076-7.451-0.05-14.906,0.14-22.356
					c0.386-15.17,1.494-30.344,4.069-45.31c0.718-4.171,1.512-8.335,2.485-12.455c1.023-4.335,2.277-8.607,3.416-12.911
					C237.677,155.527,237.48,155.302,237.382,155.534z"/>
			</g>
			<g>
				<path style="fill:#37474F;" d="M210.55,253.796c-4.617-5.095-17.654-18.318-20.918-20.813c-0.084-0.064-0.044-0.052,0,0
					c2.064,2.41,7.837,9.291,11.739,14.2c4.088,5.144,24.323,28.762,24.323,28.762l0.248-4.67
					C225.941,271.275,214.604,258.269,210.55,253.796z"/>
			</g>
			<g>
				<path style="fill:#37474F;" d="M226.59,256.081v4.305c5.762-5.178,21.956-19.757,25.823-23.492
					c4.511-4.357,11.134-10.424,13.496-12.543c-3.562,2.046-18.217,13.452-23.46,17.899
					C238.868,245.286,230.247,252.862,226.59,256.081z"/>
			</g>
			<g>
				<path style="fill:#37474F;" d="M218.5,263.502l-1.301,2.289c-0.149-0.338-3.703-10.816-4.533-20.788
					c-0.248-2.978-0.055-5.169,0.057-7.56c0.003-0.066,0.104,0.002,0.106,0.045c0.095,2.069,0.166,4.131,0.401,6.191
					c0.244,2.133,0.62,4.254,1.075,6.352c0.876,4.038,2.051,8.01,3.546,11.863C218.061,262.432,218.279,262.968,218.5,263.502z"/>
			</g>
			<path style="fill:#BA68C8;" d="M254.926,198.64c3.147-2.705,2.536-8.49,4.309-11.368c-5.961,0.458-11.224,3.339-12.685,7.452
				c-0.562,1.583-0.699,3.607-0.306,5.722C248.906,201.598,252.447,200.77,254.926,198.64z"/>
			<path style="fill:#BA68C8;" d="M251.332,211.844c2.541-0.12,4.429-3.146,6.371-3.868c-3.053-2.028-6.683-2.621-8.941-1.185
				c-0.869,0.553-1.699,1.479-2.307,2.65C247.307,211.002,249.33,211.938,251.332,211.844z"/>
			<g>
				<path style="fill:#37474F;" d="M238.855,206.945c3.452-3.809,13.2-13.697,15.641-15.562c0.063-0.048,0.033-0.039,0,0
					c-1.543,1.802-5.86,6.947-8.778,10.618c-3.057,3.846-18.186,21.506-18.186,21.506l-0.185-3.492
					C227.346,220.015,235.824,210.29,238.855,206.945z"/>
			</g>
			<g>
				<path style="fill:#37474F;" d="M234.056,215.651l-1.846-0.685c0.232-0.15,7.537-4.033,14.797-5.843
					c2.168-0.541,3.808-0.661,5.586-0.866c0.049-0.006,0.011,0.077-0.02,0.084c-1.516,0.319-3.028,0.619-4.52,1.04
					c-1.545,0.436-3.065,0.969-4.558,1.557c-2.875,1.132-5.665,2.476-8.329,4.042C234.792,215.199,234.423,215.424,234.056,215.651z
					"/>
			</g>
			<path style="fill:#BA68C8;" d="M210.402,167.879c-2.06-3.602,0.453-8.849-0.254-12.154c5.463,2.427,9.458,6.904,9.458,11.268
				c0,1.68-0.549,3.633-1.627,5.494C215.084,172.682,212.025,170.716,210.402,167.879z"/>
			<path style="fill:#BA68C8;" d="M209.368,181.524c-2.355-0.963-3.12-4.447-4.709-5.777c3.556-0.889,7.175-0.233,8.822,1.877
				c0.634,0.812,1.105,1.962,1.287,3.269C213.443,182.079,211.223,182.283,209.368,181.524z"/>
			<g>
				<path style="fill:#37474F;" d="M222.766,181.085c-1.978-4.745-7.853-17.326-9.529-19.9c-0.043-0.066-0.018-0.048,0,0
					c0.851,2.214,3.196,8.508,4.717,12.944c1.593,4.647,9.938,26.353,9.938,26.353l1.344-3.228
					C229.234,197.253,224.502,185.251,222.766,181.085z"/>
			</g>
			<g>
				<path style="fill:#37474F;" d="M224.373,190.895l1.969-0.027c-0.168-0.219-5.752-6.323-11.987-10.46
					c-1.862-1.235-3.367-1.898-4.974-2.686c-0.044-0.022-0.036,0.069-0.009,0.086c1.321,0.808,2.646,1.597,3.911,2.493
					c1.31,0.928,2.564,1.939,3.774,2.993c2.33,2.029,4.509,4.23,6.495,6.597C223.831,190.223,224.103,190.558,224.373,190.895z"/>
			</g>
			<path style="fill:#BA68C8;" d="M245.357,235.802c1.234-3.171-1.44-7.121-1.267-9.887c-4.136,2.63-6.833,6.745-6.304,10.284
				c0.204,1.362,0.885,2.879,1.986,4.258C242.143,240.264,244.385,238.3,245.357,235.802z"/>
			<g>
				<path style="fill:#37474F;" d="M239.958,246.312c0.012-0.474,0.014-0.949,0.035-1.423c0.092-2.145,0.267-4.292,0.573-6.417
					c0.296-2.052,0.75-4.064,1.184-6.089c0.009-0.042-0.072-0.134-0.091-0.071c-0.715,2.285-1.459,4.355-1.975,7.298
					c-0.389,2.219-0.651,4.498-0.823,6.701H239.958z"/>
			</g>
			<path style="fill:#BA68C8;" d="M245.049,247.854c3.27-0.939,6.96,2.085,9.73,2.166c-2.997,3.878-7.341,6.188-10.818,5.337
				c-1.338-0.327-2.786-1.145-4.059-2.367C240.312,250.647,242.473,248.594,245.049,247.854z"/>
			<g>
				<path style="fill:#37474F;" d="M234.089,252.27c0.474,0.031,0.946,0.072,1.42,0.096c2.144,0.104,4.298,0.127,6.442,0.016
					c2.071-0.107,4.116-0.376,6.172-0.622c0.043-0.005,0.127,0.084,0.062,0.098c-2.341,0.503-4.47,1.054-7.448,1.299
					c-2.246,0.185-4.538,0.237-6.749,0.207L234.089,252.27z"/>
			</g>
			<path style="fill:#BA68C8;" d="M195.913,202.072c-3.665-3.073-3.041-9.749-5.124-13.04c6.875,0.444,12.981,3.69,14.722,8.41
				c0.67,1.816,0.856,4.147,0.433,6.59C202.892,205.396,198.8,204.492,195.913,202.072z"/>
			<g>
				<path style="fill:#37474F;" d="M226.44,225.967l-0.49,3.677c-4.332-5.079-16.505-19.375-19.383-23.006
					c-3.357-4.235-8.323-10.171-10.099-12.25c2.81,2.154,14.029,13.564,18.001,17.959
					C217.182,215.349,223.683,222.801,226.44,225.967z"/>
			</g>
			<path style="fill:#BA68C8;" d="M215.24,208.581c-0.693-2.849,2.041-5.919,2.208-8.301c3.234,2.717,5.069,6.539,4.214,9.502
				c-0.329,1.14-1.084,2.359-2.181,3.411C217.478,212.758,215.786,210.824,215.24,208.581z"/>
			<g>
				<path style="fill:#37474F;" d="M218.656,218.173c0.044-0.407,0.096-0.812,0.132-1.219c0.165-1.842,0.261-3.696,0.241-5.546
					c-0.019-1.786-0.178-3.557-0.318-5.336c-0.003-0.037,0.076-0.106,0.086-0.05c0.351,2.033,0.75,3.886,0.856,6.459
					c0.08,1.94,0.044,3.916-0.06,5.818L218.656,218.173z"/>
			</g>
			<path style="fill:#BA68C8;" d="M206.496,213.195c-2.851-0.686-5.914,2.055-8.296,2.228c2.725,3.227,6.552,5.053,9.513,4.19
				c1.139-0.332,2.356-1.09,3.406-2.189C210.679,215.422,208.741,213.735,206.496,213.195z"/>
			<g>
				<path style="fill:#37474F;" d="M216.096,216.586c-0.406,0.044-0.812,0.098-1.219,0.135c-1.842,0.17-3.696,0.27-5.545,0.255
					c-1.787-0.014-3.557-0.169-5.337-0.305c-0.037-0.003-0.106,0.077-0.05,0.086c2.034,0.346,3.888,0.741,6.461,0.84
					c1.94,0.075,3.916,0.034,5.818-0.074L216.096,216.586z"/>
			</g>
		</g>
	</g>
</g>
<g id="Character_2">
	<g id="Character_00000152966536477857979790000006594963865273508996_">
		<g id="Chartacter_00000132772981124576067620000007869839598691815562_">
			<g id="Bottom_00000183225284681893115590000009528786667197687959_">
				<g>
					<path style="fill:#FFA8A7;" d="M390.029,332.104l1.476-15.101l-17.849-1.891c0,0,0.779,11.918,0.71,17.387
						c-0.033,2.577-1.741,7.434-1.741,7.434s7.051,3.795,10.69,2.214c3.639-1.581,6.017-7.625,5.923-8.729L390.029,332.104z"/>
					<path style="fill:#263238;" d="M352.311,358.317c-0.248,0.014-0.35,2.423,1.063,3.552c1.63,1.304,6.747,3.727,12.741,2.598
						c5.994-1.129,9.16-3.232,11.465-5.45c2.305-2.217,5.534-5.344,8.232-6.111c2.506-0.713,5.831-3.02,6.6-3.873
						c0.769-0.853,0.465-4.448,0.465-4.448L352.311,358.317z"/>
					<path id="XMLID_00000090989878814307712970000000696283200499202189_" style="fill:#455A64;" d="M390.161,330.662
						c0,0,0.331,0.16,0.531,0.985c0.239,0.983,0.593,3.857,1.078,5.465c0.674,2.234,1.292,6.855,1.058,8.717
						s-4.936,4.338-7.522,5.518c-2.643,1.206-5.649,3.561-8.265,6.042c-2.708,2.568-8.542,5.4-12.478,5.58
						c-4.658,0.213-9.981-1.065-11.301-3.231c-1.633-2.68-2.885-5.828,3.842-9.5c1.273-0.695,5.714-3.746,7.224-4.847
						c4.086-2.978,6.93-5.662,8.618-10.636c0.197-0.581,0.403-1.224,0.913-1.542c0.391-0.243,0.879-0.238,1.336-0.197
						c1.159,0.105,5.78,0.514,6.856,0.974c0.951,0.407,2.293,0.868,2.338,2.094c0.016,0.427-0.082,0.849-0.194,1.26
						c-0.07,0.255-0.117,0.591,0.103,0.728c0.208,0.129,0.465-0.044,0.636-0.22c0.687-0.708,1.171-1.593,1.738-2.406
						c0.304-0.436,1.272-1.828,1.665-2.18c0.358-0.32,0.826-0.495,1.14-0.854C389.873,331.959,390.172,331.237,390.161,330.662z"/>
					<path style="fill:#37474F;" d="M377.04,357.39c1.15-1.09,2.375-2.149,3.611-3.104l0-0.007c0,0-7.847,5.531-11.25,3.391
						c-2.192-1.378-1.283-3.243-1.263-3.825c0.02-0.582-7.657-4.27-9.723-4.413v0c-0.554,0.357-1.012,0.662-1.313,0.806
						c-5.272,2.513-5.837,5.422-4.749,8.984c1.319,2.166,6.116,4.219,12.133,3.898C368.421,362.912,374.332,359.958,377.04,357.39z"
						/>
					<path style="fill:#37474F;" d="M368.616,352.129c-4.198,2.002-2.323,2.732-1.112,2.846c1.211,0.113,8.205-4.63,12.42-8.467
						c4.397-4.001,7.711-9.235,9.345-10.705c0.609-0.548,1.261-1.217,1.839-1.84c-0.165-0.97-0.303-1.854-0.415-2.316
						c-0.201-0.825-0.531-0.985-0.531-0.985s-0.288,1.297-0.684,1.751c-0.314,0.359-0.782,0.534-1.14,0.854
						c-0.394,0.353-1.362,1.745-1.665,2.18c-0.567,0.814-1.051,1.699-1.738,2.406C381.445,342.967,372.814,350.127,368.616,352.129z
						"/>
					<g>
						<g>
							<path style="fill:#263238;" d="M367.775,354.306c0.095-0.005,0.188-0.042,0.264-0.114c0.174-0.163,0.186-0.44,0.027-0.621
								c-1.293-1.468-7.227-4.798-10.366-4.272c-0.233,0.038-0.39,0.264-0.351,0.503c0.037,0.239,0.232,0.397,0.488,0.364
								c2.931-0.484,8.577,2.832,9.601,3.995C367.526,354.264,367.651,354.313,367.775,354.306z"/>
						</g>
						<g>
							<path style="fill:#263238;" d="M371.392,351.726c0.095-0.005,0.188-0.042,0.264-0.113c0.174-0.163,0.185-0.441,0.027-0.621
								c-1.292-1.467-7.224-4.794-10.366-4.271c-0.232,0.038-0.39,0.264-0.351,0.503c0.037,0.239,0.25,0.402,0.488,0.364
								c2.933-0.48,8.577,2.83,9.601,3.994C371.144,351.684,371.269,351.733,371.392,351.726z"/>
						</g>
						<g>
							<path style="fill:#263238;" d="M375.018,349.272c0.095-0.005,0.188-0.042,0.264-0.114c0.174-0.163,0.185-0.44,0.027-0.621
								c-1.294-1.468-7.227-4.801-10.366-4.271c-0.232,0.038-0.39,0.264-0.351,0.503c0.037,0.239,0.247,0.403,0.488,0.364
								c2.933-0.485,8.577,2.83,9.601,3.993C374.77,349.23,374.895,349.279,375.018,349.272z"/>
						</g>
						<g>
							<path style="fill:#263238;" d="M378.351,346.512c0.095-0.005,0.188-0.042,0.264-0.113c0.174-0.163,0.185-0.44,0.027-0.62
								c-1.292-1.468-7.239-4.796-10.366-4.27c-0.233,0.038-0.39,0.264-0.351,0.503c0.038,0.239,0.248,0.402,0.488,0.365
								c2.929-0.482,8.577,2.83,9.601,3.993C378.103,346.47,378.228,346.519,378.351,346.512z"/>
						</g>
						<g>
							<path style="fill:#263238;" d="M381.615,343.756c0.092-0.005,0.184-0.04,0.258-0.109c0.176-0.16,0.192-0.438,0.036-0.62
								c-1.78-2.084-7.954-4.801-11.092-4.276c-0.232,0.038-0.39,0.264-0.351,0.503c0.038,0.239,0.249,0.396,0.488,0.364
								c2.825-0.471,8.738,2.142,10.319,3.989C381.362,343.713,381.49,343.763,381.615,343.756z"/>
						</g>
					</g>
				</g>
				<g>
					<path style="fill:#FFA8A7;" d="M420.776,338.336l-4.102-18.555l17.45-2.936l0.387,18.334c0,0,1.363,4.925,0.388,6.625
						c-0.974,1.7-11.458,3.53-12.426,2.405C421.504,343.084,420.776,338.336,420.776,338.336z"/>
					<path style="fill:#263238;" d="M422.688,367.598c0.484,4.164,1.332,6.855,3.064,9.104c1.732,2.249,4.796,2.62,7.82,1.492
						c3.024-1.128,6.844-3.577,7.531-7.316c0.687-3.739,0.379-6.198-0.521-9.999L422.688,367.598z"/>
					<path id="XMLID_00000070114582640332931780000001206266715698512780_" style="fill:#455A64;" d="M434.51,335.179
						c1.266-0.076,0.942,3.205,1.572,8.82c0.681,6.074,3.321,10.826,4.279,15.694c1.094,5.562,0.907,8.137-1.049,11.848
						c-1.955,3.711-9.341,8.078-13.326,3.666c-3.249-3.598-3.607-8.018-3.628-13.714c-0.021-5.889,0.014-10.037-0.477-14.443
						c-0.469-4.211-2.177-8.096-1.105-8.713c0.117,0.612,1.218,4.874,1.926,4.803c0.037-0.551-0.002-1.054-0.07-1.601
						c-0.059-0.475-0.043-1.005,0.274-1.415c0.319-0.414,1.524-0.933,2.031-1.095c1.229-0.394,3.427-0.886,4.683-1.16
						c0.625-0.136,1.254-0.248,1.885-0.325c0.512-0.062,1.116-0.103,1.61,0c0.303,0.063,0.588,0.223,0.713,0.485
						c0.092,0.194,0.089,0.42,0.1,0.638c0.02,0.392,0.094,0.777,0.219,1.142c0.055,0.161,0.19,0.349,0.368,0.284
						c0.145-0.053,0.194-0.23,0.187-0.37C434.671,339.038,434.556,335.538,434.51,335.179z"/>
					<path style="fill:#37474F;" d="M439.99,358.118c0.166,0.801,1.195,6.115-0.34,7.302c-1.661,1.284-2.826-2.846-2.826-2.846
						s-4.086-0.611-9.82,2.552c0.347,0.838-0.405,3.855-2.044,3.457c-1.629-0.395-2.586-6.52-2.598-6.6
						c0.042,5.459,0.47,9.731,3.624,13.223c3.985,4.412,11.371,0.046,13.326-3.666c1.956-3.711,2.143-6.286,1.049-11.848
						C440.251,359.136,440.126,358.616,439.99,358.118z"/>
					<path style="fill:#37474F;" d="M436.384,362.998c0.133,2.045,2.273,1.065,2.215-1.841c-0.057-2.906-1.552-9.955-2.13-14.705
						c-0.407-6.834-0.693-11.349-1.959-11.274c0.009,0.069,0.01,0.139,0.018,0.208c0,0,0.153,3.894,0.174,4.336
						c0.251,4.175,0.35,12.288,0.938,16.057C436.228,359.549,436.251,360.953,436.384,362.998z"/>
					<path style="fill:#37474F;" d="M427.681,364.979c-0.52-1.957-0.94-3.271-1.58-7.029c-0.635-3.73-2.808-11.193-3.886-15.207
						c-0.345-0.658-1.439-4.408-1.439-4.408c-0.875,0.264,0.022,3.84,0.442,5.514c0.42,1.674,0.931,3.467,1.458,5.869
						c1.338,4.731,1.504,11.842,2.365,14.565C425.901,367.006,428.201,366.937,427.681,364.979z"/>
					<g>
						<g>
							<path style="fill:#263238;" d="M426.889,365.309c0.058-0.013,0.114-0.037,0.168-0.069c0.044-0.029,4.509-2.814,9.669-2.229
								c0.254,0.027,0.502-0.145,0.556-0.385c0.055-0.241-0.107-0.458-0.36-0.487c-5.521-0.626-10.143,2.264-10.339,2.388
								c-0.222,0.141-0.298,0.415-0.166,0.612C426.516,365.288,426.707,365.35,426.889,365.309z"/>
						</g>
						<g>
							<path style="fill:#263238;" d="M425.602,361.002c0.052-0.012,0.104-0.032,0.153-0.061c0.049-0.029,5.08-2.958,10.826-2.491
								c0.254,0.017,0.497-0.159,0.544-0.401c0.046-0.241-0.124-0.454-0.379-0.475c-6.077-0.49-11.22,2.509-11.437,2.636
								c-0.228,0.136-0.313,0.408-0.19,0.61C425.216,360.977,425.412,361.045,425.602,361.002z"/>
						</g>
						<g>
							<path style="fill:#263238;" d="M436.053,354.267c0.176-0.04,0.329-0.171,0.382-0.345c0.07-0.239-0.074-0.469-0.322-0.514
								c-5.749-1.029-11.197,2.387-11.427,2.534c-0.224,0.141-0.298,0.415-0.166,0.613c0.132,0.196,0.422,0.235,0.64,0.099
								c0.052-0.032,5.345-3.345,10.694-2.381C435.921,354.284,435.988,354.281,436.053,354.267z"/>
						</g>
						<g>
							<path style="fill:#263238;" d="M435.519,350.326c0.173-0.039,0.324-0.167,0.378-0.337c0.076-0.239-0.064-0.471-0.311-0.519
								c-6.329-1.244-11.445,2.378-11.659,2.532c-0.214,0.154-0.271,0.431-0.125,0.618c0.145,0.187,0.442,0.214,0.65,0.06
								c0.047-0.035,4.97-3.506,10.861-2.35C435.382,350.344,435.453,350.341,435.519,350.326z"/>
						</g>
						<g>
							<path style="fill:#263238;" d="M434.9,345.902c0.17-0.039,0.32-0.164,0.376-0.332c0.078-0.237-0.056-0.471-0.303-0.523
								c-5.936-1.254-11.503,2.502-11.736,2.664c-0.219,0.148-0.28,0.425-0.141,0.616c0.139,0.192,0.428,0.229,0.647,0.075
								c0.054-0.037,5.432-3.663,10.944-2.498C434.759,345.919,434.831,345.918,434.9,345.902z"/>
						</g>
					</g>
				</g>
				<g>
					<path id="XMLID_00000054257880853389798430000014136601695239243143_" style="fill:#455A64;" d="M429.384,184.495
						c1.856,17.704,3.056,27.538,2.632,50.724c-0.161,8.79,0.141,18.553,0.227,27.345c0.024,2.493-0.262,5.437,0.138,7.904
						c0.739,4.564,1.186,7.404,1.944,12.998c0.459,3.388,0.684,7.689,0.913,11.102c0.343,5.12-0.143,10.323,0.895,15.346
						c0.39,1.886,0.993,3.735,1.162,5.655c0.091,1.033,0.047,2.102-0.225,3.105c-0.274,1.014-2.043,3.433-2.351,4.349
						c-0.449,1.335-0.036,3.342-0.031,4.779c0,0-9.187,4.724-16.195,2.152c-0.328-1.275-0.428-3.386-1.125-4.438
						c-0.497-0.751-2.735-2.556-3.355-3.301c-0.654-0.785-1.141-1.718-1.39-2.718c-0.348-1.395-0.254-2.859-0.378-4.292
						c-0.293-3.381-1.791-6.512-2.849-9.732c-2.852-8.679-2.354-17.899-4.117-26.78c-2.381-11.99-3.521-19.574-4.868-28.114
						c-1.347-8.54-4.768,17.013-4.769,17.017c-0.196,1.452,0.158,3.191,0.214,4.652c0.117,3.033,0.046,6.014,0.426,9.009
						c0.844,6.646,0.667,13.423-0.527,20.009c-0.629,3.464-1.177,5.847-0.995,9.376c0.107,2.07,0.457,3.903-0.323,5.815
						c-0.561,1.376-2.01,3.657-2.715,4.933c-0.29,0.525-0.3,4.679-0.615,4.879c0,0-9.709,5.778-17.019-0.45
						c-0.1-1.209,0.005-3.605-0.481-4.674c-1.262-1.374-3.198-3.984-3.343-6.062c-0.136-1.952,0.44-3.376,0.449-5.332
						c0.011-2.4-0.383-4.78-0.637-7.167c-0.362-3.404-0.437-6.831-0.382-10.251c0.048-2.974,0.528-6.126,0.083-9.041
						c-0.74-4.853-0.838-9.988-0.984-14.906c-0.575-19.341-0.78-58.7,1.255-83.663L429.384,184.495z"/>
					<path style="fill:#263238;" d="M395.324,216.058l5.644,38.065c-0.185-1.172-0.369-2.348-0.558-3.544
						c-1.347-8.54-4.769,17.017-4.769,17.017l0.867-16.696c0.228-5.22-0.119-10.45-1.034-15.593l-3.318-16.349
						c-8.004-2.212-11.297-8.993-11.297-8.993C385.239,214.339,395.324,216.058,395.324,216.058z"/>
				</g>
				<path style="fill:#263238;" d="M434.885,328.483c-3.127,2.599-10.23,4.478-16.506,2.13l-1.294-5.541
					c4.738,1.65,12.435,0.912,17.658-2.505L434.885,328.483z"/>
				<path style="fill:#263238;" d="M391.111,326.912c-2.107,2.265-11.216,3.339-17.042-0.203l-0.461-5.565
					c4.416,2.552,13.818,2.904,18.115,0.245L391.111,326.912z"/>
				<g>
					<path style="fill:#37474F;" d="M431.908,239.14c0,0,0.542,25.184,0.485,26.995c-0.057,1.811-13.901,5.64-14.241,4.491
						c-0.568-1.914-0.453-6.188-1.685-26.78C427.141,242.35,431.908,239.14,431.908,239.14z"/>
					<path style="fill:#263238;" d="M418.517,250.924c0.388-0.138,0.811-0.099,1.215-0.111c0.473-0.015,0.945-0.039,1.416-0.082
						c0.997-0.092,1.988-0.256,2.965-0.491c1.103-0.265,2.191-0.621,3.247-1.051c0.861-0.351,1.676-0.823,2.538-1.166
						c0.081-0.032,0.096,0.132,0.043,0.173c-0.815,0.631-1.784,1.067-2.713,1.464c-0.874,0.374-1.771,0.678-2.684,0.921
						c-0.972,0.259-1.961,0.448-2.957,0.565c-0.498,0.058-0.997,0.099-1.498,0.121c-0.473,0.021-1.148,0.137-1.577-0.111
						C418.446,251.116,418.437,250.952,418.517,250.924z"/>
					<path style="fill:#263238;" d="M423.964,248.068c0.004,0.218,0.054,0.434,0.227,0.567c0.263,0.201,0.65,0.174,0.922,0.012
						c0.315-0.187,0.504-0.548,0.456-0.937c-0.028-0.227-0.147-0.429-0.324-0.562c-0.187-0.141-0.424-0.199-0.65-0.171
						c-0.277,0.035-0.372,0.195-0.494,0.451C424.01,247.622,423.961,247.849,423.964,248.068z M424.494,247.499
						c0.1-0.083,0.233-0.114,0.36-0.1c0.403,0.042,0.474,0.711,0.147,0.911c-0.198,0.121-0.506,0.077-0.649-0.124
						C424.206,247.983,424.324,247.64,424.494,247.499z"/>
				</g>
			</g>
			<g id="Top_10_">
				<g>
					<g id="XMLID_00000096754302532416489320000018294862276245300879_">
						<path style="fill:#FFA8A7;" d="M381.623,127.466c-8.199,1.903-12.099,7.917-15.323,20.507
							c-2.335,9.12-5.671,21.261-5.671,21.261s-8.239,11.587-14.741,20.482l11.124,9.024c6.025-6.687,9.419-9.99,13.609-14.378
							c4.41-4.618,5.479-6.014,7.417-11.52c1.982-5.633,6.386-18.399,6.386-18.399L381.623,127.466z"/>
					</g>
				</g>
				<path style="fill:#455A64;" d="M381.742,127.054c-8.007,2.465-11.033,5.741-13.161,11.744
					c-2.128,6.003-5.666,20.576-5.666,20.576s0.399,3.004,7.542,6.195c7.143,3.192,9.967,1.212,9.967,1.212l4.951-12.861
					L381.742,127.054z"/>
				<g id="XMLID_1352_">
					<path id="XMLID_1989_" style="fill:#BA68C8;" d="M427.834,129.339c0,0,6.927,6.236,5.856,19.725
						c-0.82,10.318-2.82,21.784-3.133,26.202c-0.48,6.777,0.369,19.519,0.369,19.519c-10.272,12.216-56.801,11.889-62.085,0.737
						c0,0,1.785-34.748,4.247-51.68c1.29-8.872,5.35-14.33,8.655-16.788l10.809-3.209l17.75-0.24L427.834,129.339z"/>
				</g>
				<g id="Head_00000028283233056500610210000008205768266202792883_">
					<path style="fill:#37474F;" d="M394.986,77.508c15.532-0.653,20.625,6.72,22.293,13.933c1.664,7.195-2.9,16.983-7.374,23.789
						L381.178,96.18C378.257,88.819,383.099,78.007,394.986,77.508z"/>
					<g id="XMLID_317_">
						<path style="fill:#FFA8A7;" d="M380.081,111.117c0.369,3.887,2.09,8.206,7.094,9.189c1.907,0.375,5.141,0.253,5.141,0.253
							l0.09,1.282l0.145,2.004c-3.126,4.155-1.235,7.622,1.93,8.006c11.139,1.35,15.823-7.743,15.823-7.743l-0.069-12.904
							c0,0,1.055,1.748,3.924,0.659c2.205-0.839,5.144-4.959,3.562-8.413c-1.559-3.383-5.294-2.816-6.293-1.797
							c-0.991,1.019-1.242,2.674-2.772,2.425c-0.812-0.125-1.607-1.414-1.355-4.247c-1.85-2.481-2.479-4.713-1.867-8.819
							c-7.471-4.831-20.354-4.149-23.955-1.407C379.992,95.151,379.535,105.372,380.081,111.117z"/>
						<path style="fill:#F28F8F;" d="M392.317,120.556c5.095-0.461,11.916-2.818,13.564-5.135c1.648-2.317,2.262-4.217,2.262-4.217
							s-0.122,3.176-1.379,5.206c-1.256,2.03-6.335,5.546-14.317,6.014L392.317,120.556z"/>
					</g>
					<g id="XMLID_00000142142765234488708280000015534130278981383870_">
						<path id="XMLID_315_" style="fill:#263238;" d="M395.615,100.116c-0.01,0.862,0.654,1.566,1.483,1.573
							c0.829,0.008,1.509-0.685,1.52-1.546c0.01-0.862-0.654-1.566-1.483-1.573C396.306,98.563,395.625,99.255,395.615,100.116z"/>
						<path id="XMLID_487_" style="fill:#263238;" d="M396.793,95.181l3.315,2.255c0.609-0.956,0.361-2.236-0.555-2.858
							C398.638,93.954,397.403,94.225,396.793,95.181z"/>
						<path id="XMLID_00000150067973549987069840000001778868221387495054_" style="fill:#263238;" d="M382.565,96.132l3.566-0.974
							c-0.234-1.003-1.222-1.597-2.206-1.328C382.94,94.099,382.332,95.13,382.565,96.132z"/>
						<path id="XMLID_00000060015071413353294150000015960172849636618420_" style="fill:#263238;" d="M383.652,98.982
							c-0.01,0.861,0.654,1.566,1.483,1.573c0.829,0.007,1.509-0.684,1.519-1.546c0.01-0.861-0.654-1.566-1.483-1.573
							C384.342,97.429,383.662,98.121,383.652,98.982z"/>
					</g>
					<path style="fill:#F28F8F;" d="M390.619,107.84l-5.466-2.327c0.737-1.067,4.798-8.209,7.14-8.76
						C392.3,96.739,390.619,107.84,390.619,107.84z"/>
					<g>
						<path id="XMLID_00000146483208926460075000000009584608708288948373_" style="fill:#B16668;" d="M395.739,108.571
							l-4.956,1.871c0.494,1.421,2.003,2.154,3.373,1.637C395.524,111.562,396.233,109.992,395.739,108.571z"/>
					</g>
					<path style="fill:#F28F8F;" d="M395.879,109.34c0.067,1.179-0.6,2.315-1.724,2.74c-0.597,0.225-1.217,0.201-1.771-0.002
						C392.8,110.648,394.17,109.551,395.879,109.34z"/>
				</g>
			</g>
		</g>
		<path id="Fingers" style="fill:#F28F8F;" d="M340.188,217.497c0.452,0.598,0.984,1.157,1.655,1.489
			c0.851,0.421,1.894,0.432,2.753,0.029c0.859-0.403,1.518-1.212,1.738-2.136c1.521,0.216,3.334-0.04,4.128-1.355
			c0.528-0.874,0.456-1.986,0.84-2.932c1.165,0.45,2.441-0.192,3.523-0.816c0.339-0.195,0.689-0.4,0.921-0.715
			c0.316-0.428,0.366-0.99,0.405-1.521c0.107-1.444,0.183-3.012-0.629-4.211c-0.803-1.187-2.45-1.721-3.797-1.231
			c-0.592,0.215-1.107,0.596-1.607,0.979c-2.203,1.683-4.311,3.49-6.312,5.41c-1.018,0.977-2.009,1.983-2.97,3.017
			c-0.502,0.54-1.206,1.002-1.522,1.69C338.905,216.089,339.661,216.799,340.188,217.497z"/>
		<g id="Wheelbarrow_00000125563894879891062010000014299757472975629233_">
			<g>
				<g>
					<g>
						<path style="fill:#BA68C8;" d="M345.671,204.474l0.001,0.001c0.277-0.227,0.703-0.222,1.213,0.073
							c1.013,0.585,1.968,2.084,2.134,3.349c0.084,0.641-0.052,1.096-0.337,1.316l0,0l-9.771,7.821l-3.011-4.739L345.671,204.474z"
							/>
						<path style="fill:#BA68C8;" d="M335.937,210.456c0.414-0.327,1.037-0.324,1.788,0.11c1.516,0.875,2.946,3.119,3.194,5.013
							c0.121,0.923-0.069,1.58-0.465,1.919c-0.057,0.048-0.648,0.499-0.723,0.55c-0.413,0.282-1.012,0.259-1.727-0.154
							c-1.516-0.875-2.946-3.119-3.194-5.013c-0.119-0.911,0.064-1.563,0.45-1.905C335.32,210.921,335.885,210.497,335.937,210.456z
							"/>
						<path style="opacity:0.15;" d="M335.937,210.456c0.414-0.327,1.037-0.324,1.788,0.11c1.516,0.875,2.946,3.119,3.194,5.013
							c0.121,0.923-0.069,1.58-0.465,1.919c-0.057,0.048-0.648,0.499-0.723,0.55c-0.413,0.282-1.012,0.259-1.727-0.154
							c-1.516-0.875-2.946-3.119-3.194-5.013c-0.119-0.911,0.064-1.563,0.45-1.905C335.32,210.921,335.885,210.497,335.937,210.456z
							"/>
						<path style="fill:#BA68C8;" d="M340.277,216.052c-0.247-1.885-1.671-4.12-3.18-4.992c-1.509-0.871-2.533-0.049-2.286,1.836
							c0.247,1.885,1.671,4.12,3.18,4.992C339.501,218.759,340.524,217.937,340.277,216.052z"/>
					</g>
					<g>
						<path style="fill:#EBEBEB;" d="M257.065,373.093c0.153-0.008,0.302-0.066,0.427-0.178l48.388-43.359
							c0.177-0.158,0.279-0.403,0.284-0.675l0.655-41.23c0.025-1.582,0.413-3.088,1.122-4.355l23.456-62.603l6.598-5.283
							c0.362-0.291-0.69-1.942-1.052-1.652l-6.714,5.376c-0.077,0.062-0.142,0.139-0.193,0.23l-23.533,62.741
							c-0.862,1.54-1.334,3.372-1.364,5.296l-0.648,40.803l-48.111,43.111c-0.348,0.312-0.38,0.922-0.073,1.364
							C256.504,372.961,256.792,373.107,257.065,373.093z"/>
					</g>
				</g>
				<g>
					<polygon style="fill:#EBEBEB;" points="260.068,370.439 272.399,330.913 270.811,330.072 258.481,369.598 					"/>
				</g>
				<g id="XMLID_00000131350711855552448620000015213610066544851585_">
					<path id="XMLID_00000113341221178315002160000018085481258220465305_" style="fill:#37474F;" d="M288.346,361.424l3.298-6.551
						l-7.848-4.543l-0.001,0.001c-2.496-1.436-5.82-1.273-9.469,0.835c-7.751,4.475-14.034,16.018-14.035,25.781
						c-0.001,5.113,1.724,8.72,4.479,10.357l-0.002,0.004l0.111,0.064c0.005,0.003,0.011,0.006,0.016,0.009l8.045,4.645l3.479-6.911
						C283.004,380.074,288.091,370.134,288.346,361.424z"/>
					<path id="XMLID_00000010992545466073954800000005012315838011741318_" style="fill:#263238;" d="M288.346,361.424l3.298-6.551
						l-7.848-4.543l-0.001,0.001c-2.496-1.436-5.82-1.273-9.469,0.835c-7.751,4.475-14.034,16.018-14.035,25.781
						c-0.001,5.113,1.724,8.72,4.479,10.357l-0.002,0.004l0.111,0.064c0.005,0.003,0.011,0.006,0.016,0.009l8.045,4.645l3.479-6.911
						C283.004,380.074,288.091,370.134,288.346,361.424z"/>
					<path id="XMLID_00000177471135231028903700000008693398700818947475_" style="fill:#37474F;" d="M296.526,365.455
						c0,8.418-4.674,18.161-10.931,23.551c-0.013,0.006-0.019,0.019-0.025,0.025c-0.992,0.848-2.023,1.596-3.078,2.205
						c-7.752,4.479-14.04,0.188-14.034-9.574c0-7.375,3.587-15.774,8.682-21.365c0.012-0.013,0.031-0.025,0.044-0.044
						c1.64-1.79,3.43-3.292,5.308-4.372C290.244,351.408,296.526,355.692,296.526,365.455z"/>
					<path id="XMLID_00000151534347564186890810000011154228903300517810_" style="fill:#455A64;" d="M282.492,361.773
						c4.932-2.848,8.931,0.12,8.931,6.629c0,6.509-3.999,14.095-8.931,16.942c-4.933,2.848-8.931-0.12-8.931-6.629
						C273.561,372.207,277.56,364.621,282.492,361.773z"/>
					<path id="XMLID_00000082326176864660567000000005622878190780740505_" style="fill:#FAFAFA;" d="M286.528,371.758
						c-0.339,3.236-2.423,6.669-4.649,7.661c-0.98,0.434-1.822,0.327-2.429-0.204c-0.783-0.669-1.182-2.038-0.992-3.856
						c0.339-3.236,2.417-6.67,4.649-7.661c0.603-0.272,1.159-0.333,1.633-0.214c0,0,0.007-0.006,0.006,0.001
						C286.026,367.802,286.774,369.402,286.528,371.758z"/>
					<path id="XMLID_00000147185627721312366580000004903113298275944624_" style="fill:#F0F0F0;" d="M285.731,371.34
						c-0.339,3.236-2.423,6.669-4.649,7.661c-0.603,0.265-1.153,0.334-1.633,0.214c-0.783-0.669-1.182-2.038-0.992-3.856
						c0.339-3.236,2.417-6.67,4.649-7.661c0.603-0.272,1.159-0.333,1.633-0.214c0,0,0.007-0.006,0.006,0.001
						C285.521,368.159,285.921,369.528,285.731,371.34z"/>
					<path id="XMLID_00000078032032711252251400000007127899593599633026_" style="fill:#455A64;" d="M296.526,365.455
						c0,8.418-4.674,18.161-10.931,23.551c3.706-4.033,7.544-10.786,8.902-17.225c1.187-5.628,0.741-13.707-4.09-15.749
						c-4.793-2.029-11.207,2.262-13.224,4.222c1.64-1.79,3.43-3.292,5.308-4.372C290.244,351.408,296.526,355.692,296.526,365.455z"
						/>
				</g>
				<g>
					<g>
						<path style="fill:#BA68C8;" d="M392.674,225.731l0.001,0.002c0.277-0.227,0.704-0.222,1.213,0.072
							c1.013,0.585,1.968,2.084,2.134,3.349c0.084,0.641-0.052,1.096-0.337,1.316l0,0.001l-9.771,7.821l-3.011-4.739
							L392.674,225.731z"/>
						<path style="fill:#BA68C8;" d="M382.94,231.713c0.414-0.328,1.036-0.324,1.788,0.11c1.516,0.875,2.946,3.12,3.194,5.013
							c0.121,0.923-0.069,1.58-0.465,1.919c-0.057,0.048-0.648,0.499-0.723,0.55c-0.413,0.282-1.012,0.259-1.727-0.154
							c-1.516-0.875-2.946-3.12-3.194-5.013c-0.119-0.911,0.064-1.563,0.45-1.905C382.323,232.179,382.889,231.754,382.94,231.713z"
							/>
						<path style="opacity:0.15;" d="M382.94,231.713c0.414-0.328,1.036-0.324,1.788,0.11c1.516,0.875,2.946,3.12,3.194,5.013
							c0.121,0.923-0.069,1.58-0.465,1.919c-0.057,0.048-0.648,0.499-0.723,0.55c-0.413,0.282-1.012,0.259-1.727-0.154
							c-1.516-0.875-2.946-3.12-3.194-5.013c-0.119-0.911,0.064-1.563,0.45-1.905C382.323,232.179,382.889,231.754,382.94,231.713z"
							/>
						<path style="fill:#BA68C8;" d="M387.28,237.309c-0.247-1.885-1.671-4.12-3.18-4.992c-1.509-0.871-2.533-0.049-2.286,1.836
							c0.247,1.886,1.671,4.12,3.18,4.992C386.504,240.016,387.527,239.194,387.28,237.309z"/>
					</g>
					<g>
						<path style="fill:#EBEBEB;" d="M265.406,384.558c2.641-0.136,5.231-0.924,7.206-2.341l48.19-34.568
							c1.868-1.341,4.466-0.61,5.912,1.663l4.476,7.026c3.191,5.007,8.835,6.633,12.584,3.622c3.677-2.954,6.524-9.849,6.622-16.038
							l0.5-31.495c0.026-1.598,0.42-3.115,1.141-4.389l25.353-64.599c0.469-0.827,1.061-1.532,1.761-2.095l5.545-4.436
							c0.362-0.291-0.691-1.942-1.052-1.652l-5.545,4.436c-0.851,0.685-1.571,1.542-2.141,2.548l-25.354,64.599
							c-0.877,1.549-1.356,3.394-1.387,5.337l-0.5,31.496c-0.088,5.578-2.722,12.008-5.994,14.637
							c-3.026,2.431-7.611,1.074-10.222-3.022l-4.476-7.026c-2.011-3.156-5.621-4.171-8.212-2.309l-48.19,34.567
							c-3.536,2.538-9.519,2.813-13.333,0.609c-1.59-0.918-2.584-2.205-2.798-3.624c-0.236-1.565,0.493-3.238,2-4.589
							c0.348-0.312,0.38-0.922,0.073-1.364c-0.308-0.442-0.837-0.548-1.186-0.236c-1.957,1.754-2.884,4.057-2.542,6.32
							c0.321,2.126,1.686,3.984,3.844,5.229C259.895,384.142,262.678,384.698,265.406,384.558z"/>
					</g>
				</g>
				<g>
					<polygon style="fill:#EBEBEB;" points="275.929,379.67 290.739,341.575 289.195,340.612 274.386,378.707 					"/>
				</g>
				<g>
					<g>
						<path style="fill:#BA68C8;" d="M241.023,304.358l15.954,19.266c1.122,1.36,2.724,2.932,4.41,4.381l52.996-51.487
							c1.194-1.154,2.643-1.829,4.192-1.998l0.007-0.01l-2.646-20.197L241.023,304.358z"/>
						<path style="opacity:0.1;" d="M241.023,304.358l15.954,19.266c1.122,1.36,2.724,2.932,4.41,4.381l52.996-51.487
							c1.194-1.154,2.643-1.829,4.192-1.998l0.007-0.01l-2.646-20.197L241.023,304.358z"/>
					</g>
					<g>
						<path style="fill:#BA68C8;" d="M318.576,274.521c1.598-0.181,3.274,0.176,4.856,1.089l33.523,19.356
							c0.652-2.81,0.896-5.728,0.578-8.153l-1.202-9.174l-40.394-23.325L318.576,274.521z"/>
						<path style="opacity:0.2;" d="M318.576,274.521c1.598-0.181,3.274,0.176,4.856,1.089l33.523,19.356
							c0.652-2.81,0.896-5.728,0.578-8.153l-1.202-9.174l-40.394-23.325L318.576,274.521z"/>
					</g>
					<path style="fill:#BA68C8;" d="M314.379,276.517c2.419-2.351,5.946-2.706,9.055-0.911l33.524,19.355
						c-0.71,3.07-1.904,6.011-3.397,8.031l-32.662,44.186c-4.927,6.665-13.394,8.282-20.845,3.98l-33.491-19.336
						c-1.518-0.876-3.394-2.278-5.175-3.813L314.379,276.517z"/>
					<g>
						<path style="fill:#BA68C8;" d="M356.331,277.639l1.214,9.267c0.631,5.063-1.142,12.242-3.984,16.087l-32.662,44.186
							c-3,4.058-7.314,6.233-11.91,6.351l-12.879-17.37L356.331,277.639z"/>
						<path style="opacity:0.35;" d="M356.331,277.639l1.214,9.267c0.631,5.063-1.142,12.242-3.984,16.087l-32.662,44.186
							c-3,4.058-7.314,6.233-11.91,6.351l-12.879-17.37L356.331,277.639z"/>
					</g>
					<g>
						<path style="fill:#BA68C8;" d="M296.11,336.159l12.879,17.37c-2.953,0.076-6.02-0.689-8.935-2.371l-33.492-19.337
							c-2.955-1.706-7.27-5.394-9.588-8.194l-15.95-19.271L296.11,336.159z"/>
						<path style="opacity:0.45;" d="M296.11,336.159l12.879,17.37c-2.953,0.076-6.02-0.689-8.935-2.371l-33.492-19.337
							c-2.955-1.706-7.27-5.394-9.588-8.194l-15.95-19.271L296.11,336.159z"/>
					</g>
					<g>
						<path style="fill:#BA68C8;" d="M242.199,309.274l50.598,29.212c2.153,1.243,5.295,0.94,6.982-0.672l57.577-55.051
							c3.147-3.009,2.436-7.369-1.581-9.688l-36.522-21.086c-2.153-1.243-5.466-1.208-7.363,0.078l-70.634,47.906
							C237.419,302.574,237.844,306.76,242.199,309.274z M244.487,302.043l67.989-45.414c1.912-1.277,5.215-1.301,7.377-0.052
							l32.566,18.802c2.162,1.248,2.551,3.586,0.868,5.221l-54.13,52.599c-1.683,1.635-4.799,1.949-6.961,0.7l-47.256-27.283
							C242.777,305.367,242.575,303.32,244.487,302.043z"/>
						<path style="opacity:0.2;fill:#FFFFFF;" d="M242.199,309.274l50.598,29.212c2.153,1.243,5.295,0.94,6.982-0.672l57.577-55.051
							c3.147-3.009,2.436-7.369-1.581-9.688l-36.522-21.086c-2.153-1.243-5.466-1.208-7.363,0.078l-70.634,47.906
							C237.419,302.574,237.844,306.76,242.199,309.274z M244.487,302.043l67.989-45.414c1.912-1.277,5.215-1.301,7.377-0.052
							l32.566,18.802c2.162,1.248,2.551,3.586,0.868,5.221l-54.13,52.599c-1.683,1.635-4.799,1.949-6.961,0.7l-47.256-27.283
							C242.777,305.367,242.575,303.32,244.487,302.043z"/>
					</g>
				</g>
			</g>
			<g>
				<path style="fill:#B16668;" d="M254.354,304.628c1.939-0.1,3.798,0.954,5.057,2.643c1.714-3.963,4.905-6.843,8.917-7.699
					c-0.088-3.337,1.972-6.032,4.883-6.182c1.473-0.076,2.898,0.519,4.052,1.547c2.037-4.303,5.859-7.23,10.577-7.472
					c5.603-0.288,10.946,3.285,13.986,8.718c0.142-0.621,0.405-1.199,0.822-1.661c1.325-1.469,3.546-1.269,4.96,0.447
					c0.622,0.755,0.968,1.677,1.066,2.598c1.035-0.362,2.135-0.586,3.291-0.646c4.598-0.237,9.022,2.13,12.141,5.989
					c0.115-0.733,0.407-1.416,0.889-1.95c1.325-1.469,3.546-1.269,4.96,0.447c0.298,0.362,0.523,0.767,0.701,1.187l-31.497,30.606
					c-1.683,1.635-4.799,1.949-6.961,0.7l-42.611-24.601C250.052,306.693,251.899,304.754,254.354,304.628z"/>
				<path style="fill:#9A4A4D;" d="M297.728,309.235c1.088-2.318,3.583-3.092,5.765-1.876c0.992-1.774,2.679-2.962,4.727-3.067
					c2.867-0.148,5.585,1.861,6.911,4.806c-1.468-1.959-3.625-3.176-5.877-3.06c-1.805,0.093-3.326,1.021-4.343,2.455
					c-0.196,0.276-0.37,0.566-0.529,0.878c-0.109-0.093-0.224-0.186-0.345-0.271c-0.342-0.248-0.696-0.442-1.057-0.591
					c-2.048-0.828-4.241-0.01-5.243,2.13c-0.258,0.537-0.412,1.13-0.482,1.733C297.128,311.293,297.274,310.199,297.728,309.235z"/>
				<path style="fill:#9A4A4D;" d="M286.631,303.316c-1.273-1.652-3.296-2.038-4.69-0.958c-1.094-1.252-2.592-2.011-4.147-1.931
					c-2.177,0.112-3.816,1.828-4.228,4.138c0.713-1.582,2.088-2.661,3.798-2.749c1.37-0.071,2.694,0.507,3.739,1.503
					c0.201,0.191,0.389,0.395,0.57,0.616c0.063-0.078,0.131-0.157,0.205-0.23c0.207-0.212,0.434-0.386,0.675-0.525
					c1.37-0.78,3.175-0.336,4.348,1.188c0.3,0.382,0.532,0.814,0.703,1.261C287.487,304.811,287.161,304.004,286.631,303.316z"/>
				<path style="fill:#9A4A4D;" d="M295.366,320.67c-1.273-1.652-3.295-2.038-4.69-0.958c-1.094-1.252-2.592-2.011-4.147-1.931
					c-2.177,0.112-3.816,1.828-4.228,4.137c0.712-1.582,2.088-2.661,3.798-2.749c1.37-0.07,2.694,0.507,3.739,1.502
					c0.201,0.191,0.389,0.395,0.57,0.616c0.063-0.078,0.131-0.157,0.205-0.23c0.207-0.213,0.434-0.386,0.675-0.525
					c1.371-0.78,3.175-0.336,4.349,1.188c0.299,0.382,0.532,0.814,0.703,1.261C296.222,322.165,295.896,321.358,295.366,320.67z"/>
			</g>
		</g>
		<path style="fill:#FFA8A7;" d="M353.884,203.75c0.186-0.866,1.282-2.875,3.129-5.009c-2.521-4.353-5.618-7.828-11.124-9.024
			c-2.208,3.27-4.731,5.704-5.784,8.015c-1.984,4.355-2.2,12.952-2.2,12.952l5.224-4.176c3.096-1.704,5.049,6.657,5.104,8.733
			c0.055,2.076-0.572,3.257-0.2,4.569c0.372,1.312,2.197,2.617,3.114,0.686c0.917-1.931,2.703-4.529,2.926-7.741
			C354.297,209.543,353.441,205.81,353.884,203.75z"/>
		<g id="Arm_00000012444112696181798660000014856055356924635302_">
			<g id="Arm_00000070095193773195708500000000204571252844972692_">
				<path style="fill:#FFA8A7;" d="M438.823,164.344c-1.003,10.626-0.896,10.351-1.604,16.711c-0.576,5.179-0.9,7.093-6.931,15.72
					c-3.731,5.337-11.521,15.895-15.35,20.642c-4.018-0.788-8.776-4.829-11.345-7.472c4.561-6.195,14.3-28.038,14.3-28.038
					l2.418-26.412c0,0,1.298-19.212,8.15-24.306c8.252,3.157,10.307,6.473,11.218,11.203
					C440.589,147.121,439.964,152.254,438.823,164.344z"/>
				<path style="fill:#FFA8A7;" d="M415.838,216.332l0.153-0.473c-4.167-1.713-8.365-5.428-10.879-8.005l0,0
					c-2.254,3.433-5.163,6.041-6.521,7.36c-2.134,2.074-7.13,4.453-10.331,7.334c-3.201,2.881-1.39,7.834-1.39,7.834l2.601-2.134
					c2.076-1.123,4.103,2.722,3.523,4.368l-4.296,3.446c2.685,1.897,8.454,0.906,10.157-0.324c1.721-1.243,2.825-1.069,6.294-3.301
					c3.468-2.232,4.987-6.654,6.963-10.389C412.918,220.523,414.018,218.584,415.838,216.332z"/>
			</g>
			<path style="fill:#455A64;" d="M427.834,129.339c7.129,2.668,9.867,4.754,12.018,8.59c2.152,3.836,1.834,10.482,1.086,19.183
				c-0.748,8.701-1.403,13.846-1.403,13.846s-3.275,1.965-9.262,1.59c-5.988-0.374-11.451-4.304-11.451-4.304
				s1.066-13.659,1.815-19.366C421.384,143.172,422.595,135.233,427.834,129.339z"/>
		</g>
	</g>
</g>
<g id="Character_1">
	<g id="Character_16_">
		<g id="Bottom_14_">
			<g>
				<path style="fill:#FFBDA7;" d="M70.802,345.692c1.071-11.551,0.096-24.209,1.419-42.253v0c0.178-4.628,0.444-9.585,0.842-13.985
					c1.34-14.804,3.726-19.827,3.994-22.684c0,0,1.688-28.388,3.302-60.808c0.759-15.251,5.273-19.784,8.968-27.814l41.998,0.835
					c4.294,20.08,4.764,63.693,4.214,84.289c-0.28,10.501-5.637,66.595-5.748,67.886c-0.392,4.579-0.028,6.396,1.731,8.36
					c3.683,4.112,9.061,8.064,13.706,11.678c-0.719,1.79-6.388,1.611-9.168,0.182c-4.441-2.283-8.826-5.717-10.334-6.881
					c-3.817-2.945-8.723-5.345-8.699-9.711c0-0.544-0.144-0.697-0.115-0.782c-0.023-2.55-5.216-40.248-5.537-48.979
					c-0.276-7.506,0.89-20.213,0.89-20.213l-4.206-31.858c0,0-4.192,24.043-7.465,36.801c-2.663,10.385-7.068,28.109-10.088,40.896
					l0,0c-2.949,14.74-7.043,29.046-7.864,36.438c-0.239,1.764-2.586,19.078-3.492,23.037c-0.906,3.958-9.571,3.891-9.991-2.956
					C68.879,362.614,70.6,347.866,70.802,345.692z"/>
			</g>
			<g>
				<path style="fill:#263238;" d="M153.159,355.969c0.24,0.002,0.578,2.649-0.736,3.76c-1.516,1.283-5.949,3.372-11.774,2.564
					c-5.825-0.808-8.967-2.641-11.282-4.616c-2.316-1.975-5.561-4.759-8.194-5.365c-2.445-0.563-5.097-1.698-5.874-2.462
					c-0.777-0.764-0.637-4.131-0.637-4.131L153.159,355.969z"/>
				<path id="XMLID_00000012467037413128683610000003239940205390797486_" style="fill:#37474F;" d="M116.813,332.772
					c0,0-0.44,0.01-0.598,0.788c-0.188,0.926-0.407,3.623-0.807,5.143c-0.555,2.112-0.953,6.448-0.648,8.177
					c0.305,1.728,4.289,2.964,6.833,3.96c2.598,1.017,5.595,3.092,8.223,5.299c2.72,2.284,8.464,4.605,12.264,4.695
					c5.802,0.138,9.574-1.401,10.754-3.476c1.459-2.567,0.347-4.072-6.292-7.224c-1.257-0.596-5.667-3.261-7.169-4.226
					c-1.588-1.02-3.108-2.151-4.507-3.419c-0.708-0.642-1.384-1.318-2.017-2.033c-0.557-0.629-1.343-1.392-1.67-2.172
					c-0.074-0.177-0.124-0.383-0.19-0.566c-0.19-0.529-0.319-1.017-0.42-1.567c-0.102-0.555-0.162-1.364-0.687-1.701
					c-0.602-0.387-1.695-0.349-2.381-0.304c-0.863,0.057-1.73,0.159-2.575,0.34c-0.984,0.211-2.12,0.288-2.71,1.204
					c-0.452,0.702-0.529,1.594-0.572,2.411c-0.02,0.389-0.015,0.781-0.023,1.171c-0.003,0.166,0.065,0.466-0.167,0.395
					c-0.221-0.068-0.463-0.652-0.545-0.851c-0.181-0.438-0.295-0.905-0.494-1.336c-0.227-0.492-0.483-0.997-0.817-1.419
					c-0.311-0.394-0.652-0.772-1.046-1.085c-0.359-0.284-0.818-0.428-1.135-0.75C117.018,333.818,116.846,333.102,116.813,332.772z"
					/>
				<path style="fill:#FAFAFA;" d="M147.614,350.653c-8.406,0.502-11.1,5.665-11.486,8.873c2.075,0.757,4.217,1.267,5.954,1.308
					c5.802,0.138,9.813-1.397,10.993-3.472C154.451,354.94,153.549,352.968,147.614,350.653z"/>
				<g>
					<g>
						<path style="fill:#F0F0F0;" d="M135.019,350.623c-0.091,0-0.183-0.032-0.259-0.095c-0.174-0.145-0.197-0.403-0.052-0.578
							c1.183-1.421,4.573-3.286,7.623-2.926c0.226,0.026,0.387,0.231,0.36,0.455c-0.026,0.224-0.224,0.386-0.455,0.36
							c-2.847-0.328-5.96,1.509-6.898,2.636C135.257,350.574,135.139,350.624,135.019,350.623z"/>
					</g>
					<g>
						<path style="fill:#F0F0F0;" d="M131.42,348.482c-0.092-0.001-0.183-0.031-0.259-0.095c-0.174-0.145-0.197-0.404-0.053-0.578
							c1.184-1.423,4.576-3.292,7.623-2.926c0.226,0.026,0.387,0.231,0.36,0.455c-0.026,0.224-0.221,0.385-0.455,0.36
							c-2.847-0.332-5.96,1.508-6.898,2.636C131.658,348.433,131.54,348.483,131.42,348.482z"/>
					</g>
					<g>
						<path style="fill:#F0F0F0;" d="M128.09,346.043c-0.092-0.001-0.183-0.032-0.259-0.095c-0.174-0.145-0.197-0.403-0.052-0.578
							c1.183-1.422,4.587-3.288,7.623-2.925c0.226,0.026,0.387,0.231,0.36,0.455c-0.026,0.225-0.222,0.384-0.455,0.36
							c-2.843-0.329-5.96,1.509-6.897,2.636C128.328,345.994,128.21,346.044,128.09,346.043z"/>
					</g>
					<g>
						<path style="fill:#F0F0F0;" d="M124.828,343.605c-0.089-0.001-0.179-0.031-0.254-0.091c-0.177-0.142-0.204-0.401-0.061-0.577
							c1.627-2.017,5.276-3.322,8.323-2.961c0.226,0.026,0.387,0.231,0.36,0.455c-0.026,0.224-0.223,0.38-0.455,0.36
							c-2.743-0.324-6.145,0.873-7.59,2.661C125.069,343.555,124.949,343.606,124.828,343.605z"/>
					</g>
				</g>
			</g>
			<g>
				<path style="fill:#263238;" d="M81.809,372.67c-0.309,4.169-0.977,6.923-2.429,9.342c-1.452,2.418-4.118,3.131-6.79,2.358
					c-2.672-0.773-6.076-2.761-6.778-6.378c-0.701-3.617-1.104-6.094-0.421-9.952L81.809,372.67z"/>
				<path id="XMLID_3831_" style="fill:#37474F;" d="M71.057,342.209c-1.108,0.068-1.508,5.666-2.252,11.264
					c-0.797,6-2.549,8.452-3.253,13.371c-0.804,5.62,0.033,8.155,1.843,11.601c1.809,3.446,8.379,6.927,11.741,2.116
					c2.74-3.922,2.933-8.33,2.797-13.961c-0.142-5.821,0.316-9.84,0.625-14.249c0.295-4.214,1.672-8.686,0.719-9.176
					c-0.086,0.618-0.342,1.595-0.509,2.414c-0.151,0.74-0.292,1.364-0.563,2.074c-0.119,0.311-0.372,0.635-0.463,0.123
					c-0.062-0.347-0.022-0.704,0.02-1.05c0.191-1.55-0.549-1.693-0.948-1.821c-0.865-0.28-4.291-0.797-5.119-0.874
					c-0.844-0.079-3.76-0.273-4.148,0.226c-0.263,0.338-0.311,0.912-0.403,1.621c-0.11,0.846-0.308,1.464-0.326,1.197
					c-0.041-0.608,0.1-2.184,0.122-2.565C70.96,344.155,71.045,342.652,71.057,342.209z"/>
				<path style="fill:#FAFAFA;" d="M65.183,370.102c-0.257,3.494,0.491,5.907,1.908,8.605c1.809,3.446,8.914,6.949,12.274,2.139
					c1.673-2.393,2.163-5.254,2.441-8.178C79.919,368.866,68.334,366.966,65.183,370.102z"/>
				<g>
					<g>
						<path style="fill:#F0F0F0;" d="M79.509,366.491c-0.046-0.006-0.091-0.02-0.135-0.043c-0.044-0.023-5.122-2.361-10.129-1.25
							c-0.221,0.045-0.438-0.101-0.486-0.335c-0.046-0.234,0.096-0.463,0.318-0.512c5.295-1.171,10.473,1.224,10.667,1.324
							c0.202,0.109,0.284,0.368,0.182,0.581C79.845,366.423,79.676,366.512,79.509,366.491z"/>
					</g>
					<g>
						<path style="fill:#F0F0F0;" d="M69.571,361.004c-0.154-0.02-0.292-0.132-0.343-0.298c-0.068-0.228,0.051-0.472,0.267-0.544
							c4.994-1.666,10.45,1.106,10.655,1.225c0.199,0.115,0.272,0.377,0.161,0.587c-0.11,0.208-0.362,0.28-0.557,0.171
							c-0.046-0.026-5.364-2.714-10.011-1.157C69.687,361.006,69.629,361.011,69.571,361.004z"/>
					</g>
					<g>
						<path style="fill:#F0F0F0;" d="M69.821,357.048c-0.152-0.02-0.287-0.129-0.34-0.291c-0.072-0.228,0.043-0.473,0.258-0.548
							c5.495-1.945,10.667,1.068,10.858,1.197c0.192,0.128,0.248,0.395,0.127,0.597c-0.122,0.202-0.38,0.262-0.567,0.133
							c-0.042-0.03-5.041-2.916-10.156-1.107C69.941,357.049,69.879,357.055,69.821,357.048z"/>
					</g>
					<g>
						<path style="fill:#EBEBEB;" d="M70.165,353.155c-0.149-0.019-0.284-0.125-0.338-0.285c-0.075-0.225,0.036-0.472,0.25-0.551
							c5.151-1.91,10.72,1.184,10.929,1.319c0.195,0.122,0.256,0.388,0.139,0.593c-0.116,0.205-0.368,0.274-0.563,0.147
							c-0.049-0.03-5.449-3.018-10.233-1.243C70.289,353.156,70.226,353.163,70.165,353.155z"/>
					</g>
				</g>
			</g>
			<g>
				<g>
					<path style="fill:#455A64;" d="M88.198,178.261c-5.156,8.975-8.995,16.316-10.035,43.284
						c-1.041,26.968-1.946,39.857-2.116,43.108c-0.17,3.251-2.179,9.028-4.16,25.019c-1.981,15.991-0.827,34.786-0.827,34.786
						s1.528,2.94,7.645,3.611c5.643,0.619,8.485-1.447,8.485-1.447s8.372-31.05,10.708-40.66
						c2.336-9.61,10.034-46.551,10.034-46.551l3.184,25.813c0,0-1.9,8.809-0.455,22.896c1.445,14.086,4.197,28.542,4.197,28.542
						s3.814,1.568,8.652,1.591c4.838,0.023,7.659-1.839,7.659-1.839s5.634-41.716,5.951-57.643
						c0.317-15.928-0.237-55.775-4.781-79.456L88.198,178.261z"/>
				</g>
				<path style="fill:#FFBDA7;" d="M99.739,269.702c0,0-2.364-3.564-8.325-4.404c-5.961-0.84-9.13,2.344-9.13,2.344
					S93.396,266.69,99.739,269.702z M81.565,269.983c7.673,1.674,11.195,1.434,14.725,0.802
					C96.29,270.786,85.238,269.166,81.565,269.983z"/>
				<path style="fill:#FFBDA7;" d="M136.951,262.925l0.086-1.726c-5.133-0.788-13.355,0.709-15.583,1.934
					C129.233,262.116,136.951,262.925,136.951,262.925z M125.07,265.207c3.428,0.994,11.629,1.576,11.629,1.576l0.116-1.619
					C136.815,265.164,130.948,264.866,125.07,265.207z"/>
				<path style="fill:#37474F;" d="M72.527,325.97c0.226,0.18,0.5,0.368,0.826,0.558c-1.059-25.213,2.358-39.612,4.639-49.209
					c0.219-0.922,0.427-1.798,0.62-2.635c1.728-7.503,2.74-22.617,2.961-35.005c0.067-3.727,0.136-7.58,0.253-11.673
					c0.137-4.787,0.38-9.742,0.869-14.639c8.799-0.873,10.878-9.506,13.495-20.405c0.358-1.49,0.728-3.03,1.128-4.612l-0.776-0.196
					c-0.4,1.585-0.771,3.129-1.13,4.622c-2.623,10.922-4.548,18.855-12.634,19.764c1.177-11.12,3.691-21.868,9.309-29.56
					l-0.646-0.472c-8.358,11.441-9.954,29.409-10.415,45.477c-0.117,4.096-0.186,7.951-0.254,11.681
					c-0.22,12.341-1.233,27.419-2.941,34.839c-0.192,0.835-0.4,1.71-0.619,2.629C74.94,286.7,71.54,301.01,72.527,325.97z
					 M113.585,208.883l-5.656,30.529l3.185,25.813l0.009-25.012l3.803-18.924c0.09,1.889,0.183,3.825,0.279,5.802
					c0.788,16.305,1.682,34.786,0.752,38.654c-2.549,10.602-1.994,17.333-0.99,29.553c0.102,1.241,0.208,2.537,0.317,3.899
					c0.549,6.905,1.172,13.677,1.596,18.123c0.254,0.07,0.532,0.14,0.824,0.21c-0.424-4.434-1.062-11.347-1.623-18.397
					c-0.108-1.362-0.215-2.658-0.317-3.9c-0.998-12.138-1.548-18.823,0.97-29.3c0.956-3.98,0.098-21.722-0.731-38.88
					c-0.151-3.113-0.296-6.127-0.428-8.999l1.08-5.374c3.859-0.844,12.408-5.14,13.638-10.418
					C124.251,208.334,113.585,208.883,113.585,208.883z"/>
			</g>
		</g>
		<g id="Top_19_">
			<g id="Arm_00000124136155247854240080000013602312926105519290_">
				<g id="Shovel_00000109718231871081083230000017060753053903121819_">
					<g id="Shovel_1_">
						<g id="Shovel">
							<g>
								<path style="fill:#E0E0E0;" d="M169.766,323.794c0,0,3.344,16.323,7.101,24.73c0.433,0.968,0.87,1.824,1.31,2.582
									c0.752,0.029,1.555,0.035,2.408,0.03c6.03-0.042,14.241-0.916,20.13-4.719c1.622-6.263,2.329-10.881,0.449-16.351
									l-8.599-24.972l-2.133-0.439L169.766,323.794z"/>
								<polygon style="fill:#EBEBEB;" points="190.438,304.649 192.569,305.089 171.902,324.23 169.771,323.791 								"/>
								<path style="fill:#FAFAFA;" d="M171.899,324.233c0,0,3.993,17.459,7.705,25.074c0.321,0.667,0.643,1.272,0.981,1.829
									c6.03-0.042,14.241-0.916,20.13-4.719c0.317-0.21,0.621-0.409,0.914-0.632c1.413-6.629,1.449-10.149-0.464-15.719
									l-8.599-24.972L171.899,324.233z"/>
								<g>
									<path id="XMLID_6689_" style="fill:#E0E0E0;" d="M184.961,313.667l-4.48,4.342c0.72,5.043,5.402,18.006,7.057,19.817
										c1.654,1.811,3.08,0.322,2.583-1.554C189.623,334.396,185.148,319.66,184.961,313.667z"/>
								</g>
							</g>
							<g>
								<g>
									<path style="fill:#F0F0F0;" d="M182.883,302.664c-0.102-0.447-0.499-0.827-1.167-1.034
										c-1.337-0.414-3.253,0.022-4.279,0.973c-0.513,0.475-0.707,0.99-0.605,1.437c0.073,0.32,3.098,13.668,3.171,13.988
										c0.102,0.447,0.499,0.827,1.167,1.034c1.337,0.413,3.252-0.022,4.279-0.973c0.513-0.475,0.707-0.99,0.605-1.437
										C185.982,316.332,182.956,302.984,182.883,302.664z"/>
									<path style="opacity:0.2;" d="M181.717,301.631c0.668,0.207,1.065,0.587,1.167,1.034c0.102,0.447-0.092,0.961-0.605,1.437
										c-1.027,0.951-2.942,1.386-4.279,0.973c-0.668-0.207-1.065-0.587-1.167-1.034c-0.102-0.447,0.092-0.961,0.605-1.437
										C178.464,301.653,180.38,301.217,181.717,301.631z"/>
								</g>
								<g>
									<path style="fill:#BA68C8;" d="M165.265,224.586c-0.102-0.447-0.499-0.827-1.167-1.034
										c-1.337-0.413-3.252,0.022-4.279,0.973c-0.513,0.476-0.707,0.99-0.605,1.437c0.073,0.32,18.192,80.627,18.265,80.947
										c0.102,0.447,0.499,0.827,1.167,1.034c1.337,0.413,3.252-0.022,4.279-0.973c0.513-0.475,0.707-0.99,0.605-1.437
										C183.458,305.213,165.338,224.906,165.265,224.586z"/>
									<path style="opacity:0.2;" d="M164.098,223.553c0.668,0.207,1.065,0.587,1.167,1.034c0.102,0.447-0.092,0.961-0.605,1.437
										c-1.026,0.951-2.942,1.386-4.279,0.973c-0.668-0.207-1.065-0.587-1.167-1.034c-0.102-0.447,0.092-0.961,0.605-1.437
										C160.846,223.575,162.762,223.139,164.098,223.553z"/>
								</g>
								<g>
									<path style="fill:#37474F;" d="M164.434,220.943c-0.102-0.447-0.499-0.828-1.168-1.035
										c-1.338-0.414-3.256,0.022-4.284,0.974c-0.514,0.476-0.708,0.991-0.606,1.438c0.073,0.32,2.107,9.27,2.18,9.59
										c0.102,0.448,0.499,0.828,1.168,1.035c1.338,0.414,3.256-0.022,4.284-0.974c0.514-0.476,0.708-0.991,0.606-1.438
										C166.54,230.214,164.507,221.264,164.434,220.943z"/>
									<path style="opacity:0.2;" d="M158.982,220.883c-0.514,0.476-0.708,0.991-0.606,1.438c0.073,0.32,2.107,9.27,2.18,9.59
										c0,0.002,0.002,0.003,0.003,0.004c4.202,18.622,16.861,74.726,16.921,74.993c0.001,0.003,0.005,0.006,0.006,0.009
										c0.913,4.027,2.467,10.882,2.519,11.11c0.102,0.447,0.499,0.827,1.167,1.034c0.415,0.128,0.887,0.15,1.369,0.125
										c-7.825-34.681-17.592-77.968-22.343-99.021C159.738,220.354,159.308,220.58,158.982,220.883z"/>
									<path style="fill:#263238;" d="M163.265,219.908c0.669,0.207,1.067,0.587,1.168,1.035c0.102,0.448-0.092,0.963-0.606,1.438
										c-1.028,0.952-2.945,1.388-4.284,0.974c-0.669-0.207-1.067-0.587-1.168-1.035c-0.102-0.448,0.092-0.963,0.606-1.438
										C160.009,219.931,161.927,219.495,163.265,219.908z"/>
								</g>
							</g>
							<g>
								<path id="XMLID_6621_" style="fill:#263238;" d="M165.921,198.083c-0.058-0.238-0.144-0.453-0.254-0.637l0,0
									c-0.343-0.57-0.896-0.81-1.476-0.607c-2.388,0.839-4.688,2.104-6.885,3.786c-2.198,1.682-4.295,3.781-6.278,6.287
									c-0.482,0.609-0.763,1.488-0.765,2.322v0c-0.001,0.269,0.029,0.527,0.086,0.766l1.514,6.233
									c0.938,3.862,3.068,6.592,5.851,7.5l3.493,1.139c1.231,0.402,2.67-0.7,3.351-2.565l1.928-5.282
									c1.54-4.22,1.885-8.848,0.947-12.713L165.921,198.083z M153.724,214.803l-0.837-3.447c3.544-4.607,7.526-7.655,11.848-9.067
									l0.837,3.448c0.765,3.149,0.483,6.927-0.77,10.366l-1.931,5.29c-0.179,0.489-0.558,0.782-0.88,0.674l-3.493-1.139
									C156.229,220.182,154.488,217.952,153.724,214.803z"/>
							</g>
						</g>
					</g>
					<path style="fill:#B16668;" d="M205.612,339.127c1.508,0.836,2.136,2.952,1.33,4.476c0.867-0.3,1.791-0.604,2.685-0.397
						c0.894,0.207,1.681,1.148,1.373,2.013c0.585-0.298,1.498-0.459,2.116-0.198c0.436,0.184,0.782,0.566,0.924,1.017
						c0.018,0.057,0.034,0.118,0.077,0.16c0.072,0.07,0.188,0.059,0.289,0.048c0.925-0.099,1.888,0.308,2.463,1.039
						c0.214,0.272,0.372,0.671,0.165,0.948c-0.076,0.102-0.189,0.167-0.302,0.226c-1.245,0.648-2.773,0.723-4.075,0.201
						c-0.209-0.084-0.428-0.184-0.649-0.144c-0.161,0.029-0.298,0.128-0.436,0.217c-0.798,0.518-1.778,0.75-2.724,0.644
						c-0.946-0.106-1.851-0.548-2.515-1.229c-0.051-0.052-0.106-0.108-0.178-0.118c-0.073-0.01-0.143,0.032-0.205,0.071
						c-1.136,0.705-1.527,0.993-3.936,1.091c-2.409,0.097-3.463-0.881-3.443-0.891c-1.605,0.781-3.171,1.034-5.402,1.316
						c1.663-0.76,3.309-2.163,4.184-3.769c0.591-1.084,0.94-2.283,1.499-3.383C199.941,340.328,203.113,337.741,205.612,339.127z"/>
				</g>
				<path style="fill:#FFBDA7;" d="M124.441,171.43c-2.675-11.323-4.223-18.485-4.223-18.485l3.555-18.656
					c7.975,1.177,9.556,6.059,12.445,17.477c2.806,11.094,4.89,20.501,4.89,20.501s14.309,17.182,18.742,20.155
					c4.434,2.973,7.574,3.696,8.185,5.311c0.678,1.792,1.099,3.732,1.448,5.612c0.153,0.829,0.357,1.736,0.292,2.585
					c-0.032,0.415-0.166,0.867-0.424,1.202c-0.38,0.495-1.054,0.484-1.475,0.904c-0.124,0.124-0.184,0.296-0.256,0.456
					c-0.44,0.974-1.526,1.614-2.591,1.528c-0.294-0.024-0.609-0.094-0.871,0.043c-0.204,0.107-0.328,0.316-0.453,0.509
					c-0.324,0.497-0.733,0.952-1.253,1.238c-0.52,0.285-1.162,0.382-1.715,0.167c-0.311-0.121-0.597-0.338-0.93-0.354
					c-0.187-0.009-0.371,0.047-0.551,0.099c-0.864,0.245-1.832,0.493-2.654,0.132c-1.294-0.568-1.799-1.456-1.799-1.456
					s0.73-0.969,1.165-1.441c0.785-0.851,1.242-1.709,1.174-2.866c-0.153-2.605-2.141-2.545-2.141-2.545
					c-0.938,1.006-1.735,1.959-2.339,2.837c-2.818-3.047-1.866-5.421-4.572-7.864c-3.959-3.574-10.336-8.487-16.834-13.95
					C125.767,179.955,126.042,178.207,124.441,171.43z"/>
			</g>
			<g>
				<path style="fill:#263238;" d="M79.543,196.793c2.059-8.574,3.567-15.31,3.691-20.793c0.257-11.344-2.158-18.297-2.779-23.105
					c-1.353-10.471,5.047-16.655,7.519-18.663c0,0,1.703-0.289,5.474-0.81c1.85-0.256,4.715-0.606,7.488-0.941
					c6.159-0.745,9.492-0.654,11.784-0.375c1.13,0.138,6.475,1.169,6.475,1.169c1.616,0.411,4.572,1.009,4.577,1.013
					c0,0,3.647,3.102,6.994,9.372c2.554,4.786,3.98,8.774,4.247,18.919c0.34,12.915,0.708,25.943,0.529,34.949
					C124.722,203.887,92.742,208.525,79.543,196.793z"/>
			</g>
			<g id="Head_9_">
				<path style="fill:#263238;" d="M85.599,87.381c-3.032,1.4-5.419,4.263-5.735,7.573c-0.225,2.359,0.522,4.9-0.534,7.021
					c-1.086,2.181-3.656,3.091-5.558,4.614c-1.224,0.981-2.218,2.293-2.639,3.804c-0.421,1.511-0.223,3.223,0.693,4.497
					c-0.287-1.067,0.216-2.221,0.997-3.002c0.781-0.781,1.805-1.262,2.807-1.729c-2.231,1.039-2.819,5.123-2.465,7.19
					c0.464,2.711,3.326,4.428,2.689,7.292c-0.33,1.484-1.222,2.77-1.892,4.135c-1.119,2.28-1.631,4.919-1.074,7.397
					c0.96,4.269,4.992,6.339,8.951,7.252c3.234,0.745,6.623,0.532,9.887-0.067c2.257-0.414,4.534-1.035,6.406-2.361
					c2.409-1.706,3.946-4.491,4.421-7.404c0.486-2.977-0.286-5.466-1.05-8.283c-0.326-1.202,0.234-2.111,0.523-3.297
					c0.32-1.31,0.47-2.655,0.621-3.992c0.867-7.691,1.045-15.563-0.782-23.085c-1.504-6.194-8.358-9.656-14.383-8.211
					C86.838,86.88,86.205,87.101,85.599,87.381z"/>
				<path style="fill:#BA68C8;" d="M88.44,94.06c-0.048,0.47-0.055,0.971,0.173,1.384c0.405,0.736,1.36,0.922,2.194,1.023
					c0.875,0.106,1.794,0.2,2.612-0.127c0.68-0.272,1.219-0.811,1.673-1.387c1.418-1.798,4.131-8.426-0.169-8.578
					C91.417,86.252,88.741,91.125,88.44,94.06z"/>
				<path style="fill:#263238;" d="M98.83,123.168c0.312,0.813,1.081-0.089,1.839,0.412c0.59,0.391,1.399,0.169,2.033,0.02
					c0.367-0.086,0.728-0.193,1.084-0.316c1.916-0.663,3.637-1.809,5.196-3.088c2.785-2.285,5.007-5.318,8.086-7.148
					c2.187-1.299,4.125-3.432,6.609-4.127c1.074-0.3,2.222-0.362,3.233-0.832c1.174-0.545,2.076-1.645,2.38-2.903
					c0.304-1.258,0.006-2.649-0.789-3.67c1.6-1.234,2.65-3.16,2.803-5.175c0.153-2.015-0.6-4.084-2.025-5.517
					c-1.894-1.904-4.612-2.524-7.037-3.46c-1.248-0.482-2.24-1.077-3.292-1.854c-1.18-0.87-2.813-1.398-4.205-1.809
					c-7.005-2.063-15.953-0.27-20.925,5.283c-2.169,2.423-3.607,5.491-4.08,8.708c-0.354,2.404-0.095,4.851-0.046,7.248
					c0.048,2.353,0.929,4.942,1.916,7.052C93.494,116.024,97.194,118.91,98.83,123.168z"/>
				<path style="fill:#FFBDA7;" d="M98.704,127.96c-0.004-1.677-0.028-12.655-0.028-12.655c-0.063,0.627-2.65,3.338-5.862,0.916
					c-3.471-2.618-2.992-6.656-1.379-8.87c1.783-2.446,6.519-2.453,7.022,1.644c2.349-0.121,3.47-1.151,2.49-5.009
					c0.153-1.946,1.879-1.291,2.526-3.084c0.514-1.425,0.246-3.049,0.773-4.402c0.552-1.416,2.044-2.457,3.454-2.867
					c1.634-0.475,3.411-0.275,5.011,0.304c0.914,0.331,1.928,0.784,2.809,0.373c0.481-0.224,0.818-0.67,1.257-0.967
					c1.109-0.75,2.771-0.682,4.006-0.326c1.035,0.299,1.937,0.975,2.618,1.81c1.586,1.948,1.836,4.052,2.24,6.401
					c0.532,3.086,0.778,6.228,0.702,9.359c-0.216,8.934-1.791,12.195-4.487,13.972c-1.81,1.193-3.712,1.897-7.68,1.893l-0.028,2.787
					c0.079,1.403-0.039,2.699,1.332,3.14c0.92,0.296,3.098,0.776,3.098,0.776s3.255,5.106-5.498,5.714
					c-13.953,0.97-19.632-5.449-19.632-5.449s1.918-0.253,3.076-0.994C98.535,131.141,98.708,129.637,98.704,127.96z"/>
				<g>
					<g id="XMLID_3825_">
						<path id="XMLID_3826_" style="fill:#B16668;" d="M111.136,114.159l5.3,1.625c-0.422,1.516-1.95,2.381-3.413,1.933
							C111.559,117.269,110.714,115.676,111.136,114.159z"/>
						<path style="fill:#F0997A;" d="M111.485,115.376c1.478-0.053,2.747,0.956,3.075,2.342c-0.486,0.145-1.015,0.159-1.538-0.001
							c-1.05-0.322-1.773-1.236-1.946-2.285C111.212,115.409,111.345,115.381,111.485,115.376z"/>
					</g>
					<path id="XMLID_3824_" style="fill:#263238;" d="M124.036,102.973l-3.332-1.796c0.465-0.946,1.588-1.311,2.508-0.814
						C124.132,100.858,124.501,102.028,124.036,102.973z"/>
					<path id="XMLID_3823_" style="fill:#263238;" d="M106.36,103.493l3.393-1.784c-0.461-0.963-1.594-1.344-2.531-0.852
						C106.285,101.35,105.899,102.53,106.36,103.493z"/>
					<path id="XMLID_3822_" style="fill:#263238;" d="M120.221,105.978c-0.057,0.861,0.603,1.623,1.473,1.704
						c0.869,0.081,1.62-0.552,1.676-1.412c0.057-0.861-0.603-1.623-1.472-1.704C121.028,104.485,120.277,105.117,120.221,105.978z"
						/>
					<path id="XMLID_3821_" style="fill:#263238;" d="M108.065,106.4c-0.056,0.86,0.603,1.623,1.472,1.704
						c0.87,0.081,1.62-0.552,1.676-1.412c0.057-0.861-0.603-1.623-1.472-1.703C108.872,104.908,108.121,105.54,108.065,106.4z"/>
				</g>
				<polygon style="fill:#F0997A;" points="121.415,110.261 116.453,112.694 114.841,103.097 				"/>
				<g id="XMLID_3819_">
					<path id="XMLID_3820_" style="fill:#F0997A;" d="M114.176,126.454c-5.57-0.042-12.085-2.663-14.434-6.592
						c0,0,0.416,3.048,2.588,4.851c5.12,4.252,11.827,3.73,11.827,3.73L114.176,126.454z"/>
				</g>
			</g>
			<g id="Arm_17_">
				<g>
					<path style="fill:#F0997A;" d="M76.533,211.098c-2.593,0.683-5.831-2.59-6.714-3.724c-0.883-1.134,0.336-3.762,0.927-5.989
						c0.591-2.226,0.097-6.021,2.864-4.906C76.377,197.595,82.029,205.183,76.533,211.098z"/>
					<path style="fill:#FFBDA7;" d="M87.975,134.232c-7.198,0.919-10.559,2.575-14.667,10.438
						c-4.785,9.157-12.488,21.874-13.718,25.867c-1.144,3.713-3.334,6.337,0.642,12.099c3.637,5.27,15.121,19.123,16.807,21.155
						c1.492,1.798,0.547,6.845-4.693,5.987c0,0,3.929,3.618,6.133,3.268c1.902-0.302,4.916-1.901,7.764-7.596
						c1.797-3.593,0.41-6.467-2.135-10.557c-3.038-4.882-9.543-18.463-9.543-18.463l12.546-21.276
						C87.112,155.154,93.959,140.732,87.975,134.232z"/>
				</g>
			</g>
		</g>
	</g>
</g>
</svg>
